{"glyphs":{"0":{"ha":1250,"x_min":83,"x_max":1167,"o":"m 328 1032 q 420 1033 335 1032 q 631 1033 506 1033 l 926 1033 l 942 1031 q 1063 978 1008 1018 q 1085 956 1071 969 q 1107 932 1099 943 q 1160 826 1146 885 q 1161 822 1161 824 q 1164 807 1163 814 q 1166 787 1165 800 q 1167 748 1167 774 q 1167 676 1167 722 l 1167 651 q 1167 563 1167 596 q 1167 514 1167 531 q 1165 489 1167 497 q 1163 472 1164 481 q 1085 332 1146 390 q 940 258 1026 274 l 924 256 l 632 256 q 486 254 543 254 q 397 255 429 254 q 347 256 364 256 q 323 256 331 256 q 307 258 315 257 l 307 260 q 147 351 211 276 q 86 482 100 407 l 83 499 l 83 788 l 86 803 q 163 954 100 892 q 328 1032 231 1021 m 699 774 q 683 776 690 776 q 660 771 674 776 q 638 747 647 765 q 635 742 636 744 q 635 736 635 739 q 635 726 635 733 q 635 717 635 721 q 635 712 635 714 q 638 707 636 710 q 660 685 646 692 q 682 679 671 679 l 690 679 q 725 703 714 683 q 732 728 732 715 q 729 744 732 736 q 717 762 725 754 q 699 774 708 769 m 854 776 l 829 776 l 829 754 l 828 733 l 815 754 l 801 775 l 775 775 l 775 679 l 803 679 l 803 722 l 817 701 l 831 679 l 854 679 l 854 776 m 228 774 q 222 774 225 774 q 215 775 219 775 q 200 775 210 775 l 179 775 l 179 679 l 206 679 l 206 710 l 215 711 q 224 712 221 711 q 231 714 228 713 q 249 742 249 724 l 249 744 q 228 774 246 765 m 353 775 l 290 775 l 290 679 l 353 679 l 353 704 l 318 704 l 318 714 l 349 714 l 349 739 l 318 739 l 318 749 l 353 749 l 353 775 m 454 771 l 449 775 l 400 775 l 400 679 l 426 679 l 426 694 q 426 706 426 703 q 428 710 426 710 q 432 706 429 710 q 439 694 435 701 l 449 679 l 479 679 l 476 685 q 468 697 472 690 l 457 714 l 461 718 q 465 723 463 721 q 468 728 467 725 q 471 733 471 731 q 471 742 471 736 q 471 751 471 747 q 469 756 471 754 q 454 771 464 765 m 567 774 q 553 775 561 775 q 538 772 543 775 q 515 749 517 765 q 516 738 515 742 q 521 729 517 733 q 549 717 528 721 q 560 714 557 715 q 565 710 564 713 q 565 708 565 708 q 564 706 565 707 q 557 704 561 704 q 551 704 556 704 q 543 708 546 704 l 540 711 l 533 710 l 532 710 q 526 708 529 708 q 521 707 522 707 q 515 704 515 706 l 515 703 q 517 697 515 701 q 542 679 524 683 q 553 678 547 678 q 576 683 564 678 q 592 706 592 690 l 592 711 q 558 739 592 733 q 543 746 543 742 q 544 749 543 747 q 553 751 547 751 q 561 747 558 751 l 564 744 l 578 747 q 585 749 582 749 q 588 749 588 749 q 590 751 589 750 q 589 753 590 751 q 581 765 588 760 q 567 774 575 771 m 957 768 l 954 775 l 925 775 l 910 728 q 899 694 904 708 q 894 679 894 681 l 922 679 l 925 690 l 940 689 l 954 689 l 956 683 l 957 679 l 971 679 q 982 679 979 679 q 985 681 985 679 l 982 688 q 971 722 978 700 q 963 749 967 736 q 957 767 958 761 l 957 768 m 1050 775 l 1024 775 l 1024 679 l 1079 679 l 1079 704 l 1050 704 l 1050 775 m 685 607 q 675 608 679 608 q 643 596 657 608 q 626 561 626 579 q 628 542 626 557 q 654 515 631 528 q 660 512 658 513 q 666 511 663 511 q 676 511 669 511 q 685 511 682 511 q 691 512 689 511 q 697 515 693 513 q 711 525 704 518 q 721 538 718 532 q 726 560 726 549 q 725 568 726 564 q 710 594 721 583 q 685 607 699 604 m 849 608 l 835 608 q 822 607 822 608 q 821 600 821 606 q 821 586 821 594 l 821 567 l 808 586 l 794 607 l 769 607 l 769 511 l 796 511 l 796 532 l 797 554 l 811 532 l 824 511 l 849 511 l 849 608 m 231 578 l 231 607 l 204 607 l 204 538 l 208 532 q 217 520 211 525 q 229 513 222 515 q 243 511 235 511 q 258 513 251 511 q 272 522 265 515 q 279 535 278 528 q 281 541 281 538 q 282 551 282 544 q 282 574 282 558 l 282 607 l 256 607 l 256 578 q 256 553 256 561 q 254 543 256 546 q 250 538 253 540 q 243 536 246 536 q 235 539 239 536 q 232 544 233 540 q 231 554 231 547 q 231 578 231 561 m 381 606 q 367 607 375 607 q 350 606 357 607 q 340 600 344 604 q 332 592 335 596 q 328 588 329 590 q 328 581 328 585 q 329 569 328 572 q 335 561 331 565 q 345 554 339 557 q 363 549 351 551 q 378 542 378 546 q 374 536 378 538 l 368 536 q 363 536 367 536 q 356 540 358 536 l 353 543 l 340 540 q 331 538 335 539 q 326 538 328 538 q 327 534 326 536 q 330 528 328 532 q 333 522 332 525 q 363 511 343 511 l 367 511 q 400 525 390 511 q 403 531 403 528 q 404 536 404 533 l 404 540 q 375 571 404 564 q 358 576 361 574 q 356 579 356 578 q 357 582 356 581 q 360 583 358 583 q 365 583 363 583 q 371 583 369 583 q 374 579 372 582 l 376 576 l 389 579 q 399 582 394 581 l 401 582 q 402 585 403 583 q 400 589 401 586 q 381 606 393 601 m 511 607 l 449 607 l 449 511 l 511 511 l 511 536 l 476 536 l 476 546 l 507 546 l 507 571 l 476 571 l 476 582 l 511 582 l 511 607 m 922 607 l 896 607 l 896 511 l 951 511 l 951 536 l 922 536 l 922 607 m 1001 594 l 994 607 l 963 607 l 965 604 q 971 594 967 601 q 982 576 975 586 l 996 551 l 996 511 l 1022 511 l 1022 551 l 1036 576 q 1048 595 1043 588 q 1053 604 1053 603 l 1054 607 l 1024 607 l 1017 594 q 1012 585 1014 589 q 1008 582 1010 582 l 1007 586 q 1001 594 1004 589 m 674 749 q 683 750 679 750 q 699 743 692 750 q 704 728 704 736 q 703 717 704 722 q 683 704 696 704 q 674 705 682 704 q 661 721 667 706 l 661 725 q 664 738 661 732 q 674 749 667 744 m 206 749 l 213 749 q 219 748 218 749 q 221 743 221 747 q 219 738 221 739 q 213 735 217 736 l 206 735 l 206 749 m 426 749 l 435 749 q 443 748 442 749 q 444 742 444 747 q 433 735 444 735 l 426 735 l 426 749 m 938 729 q 939 736 938 733 l 940 738 l 942 732 q 943 726 943 729 l 947 714 l 933 714 l 933 718 l 935 721 q 936 728 935 724 q 938 729 936 729 m 667 581 q 676 583 672 583 q 688 579 682 583 q 697 565 694 575 q 699 558 699 561 q 692 543 699 550 q 675 536 686 536 q 657 547 664 536 q 654 558 654 553 q 656 569 654 563 q 667 581 658 576 m 194 169 q 206 171 200 171 q 215 170 210 171 q 226 165 221 169 q 231 161 229 164 q 235 156 233 158 q 236 151 236 153 q 232 150 235 150 q 229 151 231 150 q 226 154 228 151 q 209 163 221 163 q 190 156 197 164 q 183 139 183 150 l 183 135 q 193 115 185 121 q 206 111 199 111 q 214 113 210 111 q 225 120 221 115 q 229 129 229 125 l 229 132 l 210 132 l 210 140 l 236 140 l 236 106 l 233 106 q 229 107 229 106 q 232 114 229 108 q 233 118 233 117 l 232 118 l 228 114 q 207 104 221 104 q 179 121 189 104 q 177 125 178 124 q 176 129 176 126 q 176 138 176 132 q 176 146 176 143 q 177 150 176 149 q 179 154 178 151 q 194 169 185 165 m 451 168 q 461 171 454 171 l 468 171 l 468 163 l 463 163 q 457 162 458 163 q 454 160 456 161 q 453 156 454 158 q 453 153 453 154 l 453 150 l 464 150 l 464 142 l 457 142 q 451 142 453 142 q 447 140 449 142 l 450 138 q 452 135 451 136 q 453 131 453 133 q 453 119 453 128 l 453 106 l 444 106 l 444 142 l 442 142 q 440 142 440 142 q 439 146 439 143 q 440 149 439 149 q 442 150 440 150 q 444 151 444 150 q 444 154 444 151 q 451 168 444 163 m 565 171 l 574 171 l 574 106 l 565 106 l 565 171 m 604 171 l 613 171 l 613 106 l 604 106 l 604 171 m 704 168 q 713 171 707 171 l 719 171 l 719 163 l 714 163 q 709 162 711 163 q 707 160 707 161 q 705 156 706 158 q 704 153 704 154 l 704 150 l 717 150 l 717 142 l 708 142 q 702 142 704 142 q 700 140 700 142 q 699 140 699 140 q 701 138 700 139 q 703 135 703 136 q 704 131 704 133 q 704 119 704 128 l 704 106 l 696 106 l 696 142 l 694 142 q 692 142 692 142 q 692 146 692 143 q 692 149 692 149 q 694 150 692 150 q 696 151 696 150 q 696 154 696 151 q 704 168 696 163 m 342 156 l 342 161 l 350 161 l 350 150 l 360 150 l 360 142 l 353 142 q 344 140 344 142 q 347 138 344 139 q 349 136 349 138 q 349 133 349 135 q 350 125 350 131 l 350 114 l 356 113 l 361 113 l 361 106 l 354 106 q 349 106 350 106 q 344 108 347 106 l 342 111 l 342 142 l 339 142 q 335 142 336 142 q 335 146 335 143 q 335 149 335 149 q 339 150 336 150 q 341 150 340 150 q 342 151 342 150 q 342 156 342 153 m 883 156 l 883 161 l 890 161 l 890 150 l 901 150 l 901 142 l 894 142 q 888 142 889 142 q 886 140 886 142 l 889 138 l 890 138 l 890 128 q 892 115 890 118 q 897 113 893 113 q 901 113 900 113 q 903 112 903 113 q 903 108 903 111 l 903 106 l 897 106 q 891 106 893 106 q 888 108 889 106 l 883 111 l 883 142 l 881 142 q 878 142 879 142 q 878 146 878 143 q 878 149 878 149 q 881 150 879 150 q 883 150 882 150 q 883 151 883 150 q 883 156 883 153 m 1050 156 l 1050 161 l 1058 161 l 1058 150 l 1068 150 l 1068 142 l 1061 142 q 1055 142 1057 142 q 1053 140 1053 142 l 1056 138 q 1057 137 1057 138 q 1058 134 1057 136 q 1058 128 1058 132 q 1059 115 1058 118 q 1065 113 1060 113 q 1068 113 1067 113 q 1069 112 1069 113 q 1069 108 1069 111 l 1069 106 l 1064 106 q 1058 106 1060 106 q 1054 108 1056 106 l 1050 111 l 1050 142 l 1047 142 q 1045 142 1046 142 q 1044 146 1044 143 q 1045 149 1044 149 q 1047 150 1046 150 q 1049 150 1049 150 q 1050 151 1050 150 q 1050 156 1050 153 m 282 149 q 290 150 286 150 q 303 145 297 150 q 311 129 310 140 l 311 125 l 293 125 q 280 124 283 125 q 276 122 276 124 l 276 121 q 278 118 276 119 q 288 113 281 113 l 290 113 q 299 115 294 113 q 303 119 301 118 q 308 119 306 119 q 310 118 310 119 q 307 114 310 117 q 301 108 304 111 q 297 106 299 106 l 292 106 q 285 106 289 106 q 276 107 281 106 q 268 126 268 114 q 269 135 268 128 q 282 149 269 143 m 297 140 q 287 142 292 143 q 278 136 282 142 l 278 133 l 276 132 l 281 132 q 289 131 283 131 q 297 132 293 131 l 301 132 q 302 134 303 132 q 300 138 301 136 q 297 140 299 139 m 754 149 q 763 150 758 150 q 771 149 767 150 q 783 126 783 143 q 780 113 783 119 q 769 106 776 107 q 763 104 765 104 q 756 105 760 104 q 747 110 751 106 q 742 121 743 114 q 740 131 740 125 l 740 135 q 746 143 742 139 q 754 149 750 147 m 769 140 q 760 143 764 143 q 751 139 756 143 q 747 128 747 135 q 750 118 747 124 q 760 113 753 113 l 764 113 q 771 114 767 113 q 775 128 775 119 q 769 140 775 136 m 828 149 q 836 150 832 150 q 842 149 839 150 q 849 142 846 147 q 850 136 850 140 q 850 122 850 132 l 850 106 l 843 106 l 843 121 q 843 132 843 128 q 842 138 843 136 q 840 140 842 139 q 835 142 839 142 q 828 140 832 143 q 823 135 824 139 q 821 119 822 131 l 821 106 l 814 106 l 814 150 l 818 150 q 821 149 821 150 q 819 144 821 147 q 817 142 818 143 q 817 139 817 140 l 817 136 l 818 139 q 823 145 821 143 q 828 149 825 147 m 992 149 q 997 150 994 150 q 1001 150 999 150 q 1015 144 1011 150 q 1018 126 1018 139 q 1018 119 1018 121 q 1018 115 1018 117 q 1019 114 1018 114 q 1022 110 1021 113 q 1022 107 1022 108 q 1019 106 1021 106 q 1013 113 1015 106 l 1010 117 l 1010 114 q 1006 106 1008 108 q 996 104 1003 104 q 985 108 989 104 q 982 115 982 111 q 982 120 982 117 q 989 128 982 124 q 994 130 990 129 q 1001 132 997 131 q 1007 133 1004 132 l 1010 133 l 1010 135 q 1008 138 1010 136 q 1003 142 1007 140 q 996 142 1000 143 q 990 138 992 142 q 988 136 989 136 q 985 136 988 136 q 982 138 982 136 l 983 142 q 987 146 985 144 q 992 149 989 147 m 1010 124 q 1008 126 1010 126 q 1003 125 1007 126 l 1001 125 q 994 122 997 124 q 991 120 992 121 q 990 119 990 119 q 989 117 989 118 q 997 111 989 111 q 1006 115 1001 111 q 1010 124 1010 119 m 493 132 l 493 150 l 501 150 l 501 133 q 501 122 501 125 q 502 117 501 118 q 503 114 503 115 q 508 113 506 113 q 515 113 511 113 q 521 118 518 114 q 522 124 522 121 q 522 136 522 128 l 524 150 l 531 150 l 531 132 q 531 123 531 126 q 531 117 531 119 q 531 115 531 115 q 533 114 532 114 q 535 110 535 113 q 535 107 535 108 q 533 106 535 106 q 528 108 531 106 q 524 114 525 110 q 522 115 522 115 q 521 111 522 114 q 517 106 519 107 q 510 104 515 104 q 494 111 500 104 q 494 118 494 114 q 493 132 493 122 m 196 49 q 199 49 197 49 q 204 50 201 50 l 210 49 l 210 40 l 204 40 q 198 40 200 40 q 194 38 196 39 q 192 33 193 35 q 192 29 192 32 l 192 25 l 204 25 l 204 15 l 194 15 q 188 15 190 15 q 185 14 185 15 l 188 11 l 192 8 l 192 -28 l 182 -28 l 182 15 l 178 15 q 176 15 176 15 q 175 17 175 15 q 175 19 175 18 q 176 24 175 22 q 178 25 176 25 q 180 25 179 25 q 181 26 181 25 q 182 31 182 28 q 196 49 183 46 m 575 36 l 575 50 l 585 50 l 585 17 q 585 1 585 7 q 585 -10 585 -6 q 586 -15 585 -14 l 586 -17 q 589 -18 588 -18 q 590 -19 590 -18 q 590 -24 590 -21 l 590 -26 l 589 -28 q 584 -26 588 -28 q 579 -22 581 -25 l 576 -19 l 572 -24 q 557 -29 565 -29 q 549 -28 553 -29 q 536 -11 539 -22 q 535 -3 535 -7 q 538 11 535 3 q 550 24 540 19 q 553 26 551 25 q 557 26 556 26 q 567 24 561 26 q 575 17 572 21 l 579 13 l 581 13 q 578 18 581 14 q 576 22 576 19 q 576 27 576 24 q 575 36 575 31 m 568 13 q 560 16 565 15 q 551 14 556 17 q 544 -4 544 8 q 547 -10 546 -7 q 547 -14 547 -12 q 557 -19 551 -18 l 560 -19 q 568 -17 564 -19 q 575 -1 575 -11 q 568 13 575 7 m 626 50 l 631 50 l 635 49 l 636 44 l 636 39 l 626 39 l 626 50 m 397 39 l 407 39 l 407 25 l 419 25 l 419 15 l 404 15 l 401 14 q 403 13 401 13 l 403 11 l 404 11 l 406 10 l 407 7 l 407 -4 q 408 -17 407 -15 q 410 -18 408 -18 q 415 -18 413 -18 l 419 -18 l 419 -28 l 414 -28 q 404 -26 407 -28 q 400 -22 401 -25 q 398 -15 399 -19 q 397 -1 397 -10 l 397 15 l 394 15 q 392 15 393 15 q 391 17 392 15 q 390 19 390 18 q 391 24 390 22 q 392 25 392 25 q 394 25 393 25 l 397 25 l 397 39 m 1051 39 l 1061 39 l 1061 25 l 1072 25 l 1072 15 l 1056 15 l 1056 14 l 1058 11 q 1060 8 1060 10 q 1060 4 1060 7 q 1061 -4 1061 1 l 1061 -18 l 1074 -18 l 1074 -29 l 1067 -28 q 1059 -27 1061 -28 q 1056 -24 1057 -26 l 1051 -21 l 1051 15 l 1047 15 q 1045 15 1046 15 q 1044 17 1044 15 q 1044 19 1044 18 q 1044 24 1044 22 q 1045 25 1044 25 q 1047 25 1046 25 l 1051 25 l 1051 39 m 249 25 l 254 26 q 263 25 258 26 q 271 19 267 24 l 274 17 l 274 21 q 274 24 274 24 q 278 25 275 25 l 282 25 l 282 -7 q 282 -26 282 -19 q 282 -35 282 -32 q 281 -40 282 -39 q 279 -43 281 -42 q 277 -46 279 -44 q 274 -49 275 -47 q 270 -51 272 -50 q 265 -51 268 -51 q 254 -51 261 -51 l 239 -51 l 239 -43 l 251 -43 q 261 -42 257 -43 q 267 -42 265 -42 q 274 -29 274 -37 q 274 -26 274 -28 q 276 -22 275 -24 q 278 -17 278 -18 q 274 -19 276 -17 q 261 -28 268 -25 q 254 -29 258 -29 q 247 -28 251 -29 q 240 -22 243 -26 q 235 -12 236 -17 q 233 -1 233 -8 q 235 8 233 4 q 240 18 236 14 q 249 25 243 22 m 265 14 q 259 16 264 15 q 251 15 254 17 q 243 4 244 13 l 243 0 q 246 -14 243 -7 q 256 -19 250 -19 q 261 -19 257 -19 q 271 -11 265 -19 q 272 -3 272 -7 q 272 3 272 -1 q 265 14 271 8 m 331 25 l 342 25 q 358 15 354 25 q 360 10 361 11 q 356 8 360 8 q 350 10 350 8 q 347 15 350 13 q 340 17 343 17 q 331 13 333 17 q 329 10 329 11 q 332 7 329 8 q 337 5 333 6 q 344 3 340 4 q 358 -3 354 0 q 361 -12 361 -7 q 361 -17 361 -15 q 358 -22 361 -19 q 342 -29 351 -29 q 332 -28 339 -29 q 319 -18 325 -28 q 318 -11 318 -12 q 322 -10 318 -10 q 327 -10 326 -10 q 328 -12 328 -11 l 329 -14 q 332 -17 329 -15 q 334 -19 333 -18 q 337 -19 335 -19 q 342 -19 339 -19 q 348 -19 346 -19 q 350 -17 350 -18 q 352 -15 351 -15 q 353 -12 353 -14 q 338 -6 353 -10 q 330 -3 333 -4 q 325 0 326 -1 q 321 5 322 1 q 319 13 319 8 q 324 20 321 17 q 331 25 328 24 m 689 25 l 694 25 q 706 23 700 25 q 718 14 713 21 q 720 7 719 10 q 721 0 721 4 l 721 -4 q 713 -24 721 -17 q 697 -29 706 -29 q 685 -26 693 -29 q 672 -10 676 -24 q 671 1 671 -4 q 674 11 671 7 q 681 19 676 15 q 689 25 685 24 m 703 15 l 697 17 q 692 15 696 17 q 683 10 688 14 q 681 1 681 6 q 681 -8 681 -4 q 694 -19 685 -18 l 697 -19 q 710 -12 706 -19 q 713 -1 713 -7 q 711 6 713 1 q 703 15 710 11 m 768 24 q 778 26 774 26 q 786 24 782 26 q 793 19 790 22 q 796 14 796 15 q 797 12 796 13 q 797 10 797 11 q 793 8 796 8 q 789 9 790 8 q 788 11 788 10 q 781 15 786 14 l 775 17 q 769 15 774 17 q 765 10 765 14 q 767 8 765 8 q 772 6 768 7 q 783 1 775 4 q 793 -2 790 0 q 797 -8 796 -4 q 799 -14 799 -11 q 793 -24 799 -19 q 776 -29 788 -29 q 762 -24 768 -29 q 756 -12 756 -19 q 756 -10 756 -11 q 760 -10 757 -10 q 764 -10 763 -10 q 765 -12 765 -11 q 778 -19 767 -19 q 789 -14 786 -19 q 787 -10 789 -11 q 779 -7 785 -8 q 765 -2 769 -4 q 758 3 761 0 q 757 7 757 4 l 757 11 q 768 24 757 21 m 901 22 q 906 25 904 24 q 910 26 908 26 q 921 22 915 26 q 928 13 926 18 q 928 5 928 11 q 929 -10 929 -1 l 929 -28 l 919 -28 l 919 -12 q 919 6 919 0 q 915 14 918 13 q 910 15 913 15 q 903 15 907 15 q 897 8 900 14 q 895 5 896 7 q 894 -1 894 3 q 894 -11 894 -4 l 893 -28 l 885 -28 l 885 25 l 889 25 q 893 24 892 25 q 894 22 894 24 l 893 21 q 892 18 892 19 q 889 13 889 15 l 889 11 l 892 15 q 901 22 896 19 m 983 25 l 989 26 q 998 25 993 26 q 1007 18 1003 24 q 1013 11 1011 15 q 1015 1 1014 7 l 1015 -6 l 975 -6 l 974 -7 q 976 -12 974 -10 q 982 -18 979 -15 q 989 -19 985 -19 q 994 -19 990 -19 q 1003 -14 999 -18 q 1004 -12 1003 -12 q 1008 -11 1006 -11 q 1013 -12 1013 -11 q 1011 -18 1014 -14 q 997 -28 1006 -25 q 989 -29 993 -29 q 981 -28 985 -29 q 964 -1 964 -21 q 983 25 965 19 m 997 14 q 990 16 994 15 q 983 15 986 17 q 978 11 981 14 q 975 6 975 8 l 974 3 l 989 3 q 999 3 996 3 q 1003 3 1003 3 q 1004 6 1004 4 q 1002 10 1004 7 q 997 14 1000 13 m 454 6 l 454 25 l 463 25 l 463 6 q 463 -6 463 -1 q 463 -12 463 -10 q 464 -15 464 -14 q 465 -17 464 -15 q 474 -19 468 -19 q 478 -19 475 -19 q 485 -12 482 -18 q 487 -9 486 -11 q 488 -3 488 -7 q 488 8 488 1 l 489 25 l 497 25 l 497 -15 l 500 -17 q 502 -19 501 -18 q 503 -24 503 -21 q 501 -28 503 -28 q 495 -26 499 -28 q 490 -19 492 -24 q 488 -17 489 -17 q 486 -24 486 -18 q 481 -28 485 -26 q 471 -29 476 -29 q 461 -26 465 -29 q 458 -24 460 -25 q 456 -19 457 -22 q 455 -15 456 -18 q 454 -8 454 -12 q 454 6 454 -4 m 626 25 l 631 25 l 635 24 l 636 -1 l 636 -28 l 626 -28 l 626 25 m 836 -17 q 838 -15 836 -15 q 842 -15 840 -15 l 847 -15 l 847 -28 l 835 -28 l 835 -22 q 836 -18 835 -19 l 836 -17 z "},"1":{"ha":1250,"x_min":83,"x_max":1167,"o":"m 328 1032 q 420 1033 335 1032 q 631 1033 506 1033 l 926 1033 l 942 1031 q 1063 978 1008 1018 q 1085 956 1071 969 q 1107 932 1099 943 q 1160 826 1146 885 q 1161 822 1161 824 q 1164 807 1163 814 q 1166 787 1165 800 q 1167 748 1167 774 q 1167 676 1167 722 l 1167 651 q 1167 563 1167 596 q 1167 514 1167 531 q 1165 489 1167 497 q 1163 472 1164 481 q 1085 332 1146 390 q 940 258 1026 274 l 924 256 l 632 256 q 486 254 543 254 q 397 255 429 254 q 347 256 364 256 q 323 256 331 256 q 307 258 315 257 l 307 260 q 147 351 211 276 q 86 482 100 407 l 83 499 l 83 788 l 86 803 q 163 954 100 892 q 328 1032 231 1021 m 699 774 q 683 776 690 776 q 660 771 674 776 q 638 747 647 765 q 635 742 636 744 q 635 736 635 739 q 635 726 635 733 q 635 717 635 721 q 635 712 635 714 q 638 707 636 710 q 660 685 646 692 q 682 679 671 679 l 690 679 q 725 703 714 683 q 732 728 732 715 q 729 744 732 736 q 717 762 725 754 q 699 774 708 769 m 854 776 l 829 776 l 829 754 l 828 733 l 815 754 l 801 775 l 775 775 l 775 679 l 803 679 l 803 722 l 817 701 l 831 679 l 854 679 l 854 776 m 228 774 q 222 774 225 774 q 215 775 219 775 q 200 775 210 775 l 179 775 l 179 679 l 206 679 l 206 710 l 215 711 q 224 712 221 711 q 231 714 228 713 q 249 742 249 724 l 249 744 q 228 774 246 765 m 353 775 l 290 775 l 290 679 l 353 679 l 353 704 l 318 704 l 318 714 l 349 714 l 349 739 l 318 739 l 318 749 l 353 749 l 353 775 m 454 771 l 449 775 l 400 775 l 400 679 l 426 679 l 426 694 q 426 706 426 703 q 428 710 426 710 q 432 706 429 710 q 439 694 435 701 l 449 679 l 479 679 l 476 685 q 468 697 472 690 l 457 714 l 461 718 q 465 723 463 721 q 468 728 467 725 q 471 733 471 731 q 471 742 471 736 q 471 751 471 747 q 469 756 471 754 q 454 771 464 765 m 567 774 q 553 775 561 775 q 538 772 543 775 q 515 749 517 765 q 516 738 515 742 q 521 729 517 733 q 549 717 528 721 q 560 714 557 715 q 565 710 564 713 q 565 708 565 708 q 564 706 565 707 q 557 704 561 704 q 551 704 556 704 q 543 708 546 704 l 540 711 l 533 710 l 532 710 q 526 708 529 708 q 521 707 522 707 q 515 704 515 706 l 515 703 q 517 697 515 701 q 542 679 524 683 q 553 678 547 678 q 576 683 564 678 q 592 706 592 690 l 592 711 q 558 739 592 733 q 543 746 543 742 q 544 749 543 747 q 553 751 547 751 q 561 747 558 751 l 564 744 l 578 747 q 585 749 582 749 q 588 749 588 749 q 590 751 589 750 q 589 753 590 751 q 581 765 588 760 q 567 774 575 771 m 957 768 l 954 775 l 925 775 l 910 728 q 899 694 904 708 q 894 679 894 681 l 922 679 l 925 690 l 940 689 l 954 689 l 956 683 l 957 679 l 971 679 q 982 679 979 679 q 985 681 985 679 l 982 688 q 971 722 978 700 q 963 749 967 736 q 957 767 958 761 l 957 768 m 1050 775 l 1024 775 l 1024 679 l 1079 679 l 1079 704 l 1050 704 l 1050 775 m 685 607 q 675 608 679 608 q 643 596 657 608 q 626 561 626 579 q 628 542 626 557 q 654 515 631 528 q 660 512 658 513 q 666 511 663 511 q 676 511 669 511 q 685 511 682 511 q 691 512 689 511 q 697 515 693 513 q 711 525 704 518 q 721 538 718 532 q 726 560 726 549 q 725 568 726 564 q 710 594 721 583 q 685 607 699 604 m 849 608 l 835 608 q 822 607 822 608 q 821 600 821 606 q 821 586 821 594 l 821 567 l 808 586 l 794 607 l 769 607 l 769 511 l 796 511 l 796 532 l 797 554 l 811 532 l 824 511 l 849 511 l 849 608 m 231 578 l 231 607 l 204 607 l 204 538 l 208 532 q 217 520 211 525 q 229 513 222 515 q 243 511 235 511 q 258 513 251 511 q 272 522 265 515 q 279 535 278 528 q 281 541 281 538 q 282 551 282 544 q 282 574 282 558 l 282 607 l 256 607 l 256 578 q 256 553 256 561 q 254 543 256 546 q 250 538 253 540 q 243 536 246 536 q 235 539 239 536 q 232 544 233 540 q 231 554 231 547 q 231 578 231 561 m 381 606 q 367 607 375 607 q 350 606 357 607 q 340 600 344 604 q 332 592 335 596 q 328 588 329 590 q 328 581 328 585 q 329 569 328 572 q 335 561 331 565 q 345 554 339 557 q 363 549 351 551 q 378 542 378 546 q 374 536 378 538 l 368 536 q 363 536 367 536 q 356 540 358 536 l 353 543 l 340 540 q 331 538 335 539 q 326 538 328 538 q 327 534 326 536 q 330 528 328 532 q 333 522 332 525 q 363 511 343 511 l 367 511 q 400 525 390 511 q 403 531 403 528 q 404 536 404 533 l 404 540 q 375 571 404 564 q 358 576 361 574 q 356 579 356 578 q 357 582 356 581 q 360 583 358 583 q 365 583 363 583 q 371 583 369 583 q 374 579 372 582 l 376 576 l 389 579 q 399 582 394 581 l 401 582 q 402 585 403 583 q 400 589 401 586 q 381 606 393 601 m 511 607 l 449 607 l 449 511 l 511 511 l 511 536 l 476 536 l 476 546 l 507 546 l 507 571 l 476 571 l 476 582 l 511 582 l 511 607 m 922 607 l 896 607 l 896 511 l 951 511 l 951 536 l 922 536 l 922 607 m 1001 594 l 994 607 l 963 607 l 965 604 q 971 594 967 601 q 982 576 975 586 l 996 551 l 996 511 l 1022 511 l 1022 551 l 1036 576 q 1048 595 1043 588 q 1053 604 1053 603 l 1054 607 l 1024 607 l 1017 594 q 1012 585 1014 589 q 1008 582 1010 582 l 1007 586 q 1001 594 1004 589 m 674 749 q 683 750 679 750 q 699 743 692 750 q 704 728 704 736 q 703 717 704 722 q 683 704 696 704 q 674 705 682 704 q 661 721 667 706 l 661 725 q 664 738 661 732 q 674 749 667 744 m 206 749 l 213 749 q 219 748 218 749 q 221 743 221 747 q 219 738 221 739 q 213 735 217 736 l 206 735 l 206 749 m 426 749 l 435 749 q 443 748 442 749 q 444 742 444 747 q 433 735 444 735 l 426 735 l 426 749 m 938 729 q 939 736 938 733 l 940 738 l 942 732 q 943 726 943 729 l 947 714 l 933 714 l 933 718 l 935 721 q 936 728 935 724 q 938 729 936 729 m 667 581 q 676 583 672 583 q 688 579 682 583 q 697 565 694 575 q 699 558 699 561 q 692 543 699 550 q 675 536 686 536 q 657 547 664 536 q 654 558 654 553 q 656 569 654 563 q 667 581 658 576 m 194 169 q 206 171 200 171 q 215 170 210 171 q 226 165 221 169 q 231 161 229 164 q 235 156 233 158 q 236 151 236 153 q 232 150 235 150 q 229 151 231 150 q 226 154 228 151 q 209 163 221 163 q 190 156 197 164 q 183 139 183 150 l 183 135 q 193 115 185 121 q 206 111 199 111 q 214 113 210 111 q 225 120 221 115 q 229 129 229 125 l 229 132 l 210 132 l 210 140 l 236 140 l 236 106 l 233 106 q 229 107 229 106 q 232 114 229 108 q 233 118 233 117 l 232 118 l 228 114 q 207 104 221 104 q 179 121 189 104 q 177 125 178 124 q 176 129 176 126 q 176 138 176 132 q 176 146 176 143 q 177 150 176 149 q 179 154 178 151 q 194 169 185 165 m 451 168 q 461 171 454 171 l 468 171 l 468 163 l 463 163 q 457 162 458 163 q 454 160 456 161 q 453 156 454 158 q 453 153 453 154 l 453 150 l 464 150 l 464 142 l 457 142 q 451 142 453 142 q 447 140 449 142 l 450 138 q 452 135 451 136 q 453 131 453 133 q 453 119 453 128 l 453 106 l 444 106 l 444 142 l 442 142 q 440 142 440 142 q 439 146 439 143 q 440 149 439 149 q 442 150 440 150 q 444 151 444 150 q 444 154 444 151 q 451 168 444 163 m 565 171 l 574 171 l 574 106 l 565 106 l 565 171 m 604 171 l 613 171 l 613 106 l 604 106 l 604 171 m 704 168 q 713 171 707 171 l 719 171 l 719 163 l 714 163 q 709 162 711 163 q 707 160 707 161 q 705 156 706 158 q 704 153 704 154 l 704 150 l 717 150 l 717 142 l 708 142 q 702 142 704 142 q 700 140 700 142 q 699 140 699 140 q 701 138 700 139 q 703 135 703 136 q 704 131 704 133 q 704 119 704 128 l 704 106 l 696 106 l 696 142 l 694 142 q 692 142 692 142 q 692 146 692 143 q 692 149 692 149 q 694 150 692 150 q 696 151 696 150 q 696 154 696 151 q 704 168 696 163 m 342 156 l 342 161 l 350 161 l 350 150 l 360 150 l 360 142 l 353 142 q 344 140 344 142 q 347 138 344 139 q 349 136 349 138 q 349 133 349 135 q 350 125 350 131 l 350 114 l 356 113 l 361 113 l 361 106 l 354 106 q 349 106 350 106 q 344 108 347 106 l 342 111 l 342 142 l 339 142 q 335 142 336 142 q 335 146 335 143 q 335 149 335 149 q 339 150 336 150 q 341 150 340 150 q 342 151 342 150 q 342 156 342 153 m 883 156 l 883 161 l 890 161 l 890 150 l 901 150 l 901 142 l 894 142 q 888 142 889 142 q 886 140 886 142 l 889 138 l 890 138 l 890 128 q 892 115 890 118 q 897 113 893 113 q 901 113 900 113 q 903 112 903 113 q 903 108 903 111 l 903 106 l 897 106 q 891 106 893 106 q 888 108 889 106 l 883 111 l 883 142 l 881 142 q 878 142 879 142 q 878 146 878 143 q 878 149 878 149 q 881 150 879 150 q 883 150 882 150 q 883 151 883 150 q 883 156 883 153 m 1050 156 l 1050 161 l 1058 161 l 1058 150 l 1068 150 l 1068 142 l 1061 142 q 1055 142 1057 142 q 1053 140 1053 142 l 1056 138 q 1057 137 1057 138 q 1058 134 1057 136 q 1058 128 1058 132 q 1059 115 1058 118 q 1065 113 1060 113 q 1068 113 1067 113 q 1069 112 1069 113 q 1069 108 1069 111 l 1069 106 l 1064 106 q 1058 106 1060 106 q 1054 108 1056 106 l 1050 111 l 1050 142 l 1047 142 q 1045 142 1046 142 q 1044 146 1044 143 q 1045 149 1044 149 q 1047 150 1046 150 q 1049 150 1049 150 q 1050 151 1050 150 q 1050 156 1050 153 m 282 149 q 290 150 286 150 q 303 145 297 150 q 311 129 310 140 l 311 125 l 293 125 q 280 124 283 125 q 276 122 276 124 l 276 121 q 278 118 276 119 q 288 113 281 113 l 290 113 q 299 115 294 113 q 303 119 301 118 q 308 119 306 119 q 310 118 310 119 q 307 114 310 117 q 301 108 304 111 q 297 106 299 106 l 292 106 q 285 106 289 106 q 276 107 281 106 q 268 126 268 114 q 269 135 268 128 q 282 149 269 143 m 297 140 q 287 142 292 143 q 278 136 282 142 l 278 133 l 276 132 l 281 132 q 289 131 283 131 q 297 132 293 131 l 301 132 q 302 134 303 132 q 300 138 301 136 q 297 140 299 139 m 754 149 q 763 150 758 150 q 771 149 767 150 q 783 126 783 143 q 780 113 783 119 q 769 106 776 107 q 763 104 765 104 q 756 105 760 104 q 747 110 751 106 q 742 121 743 114 q 740 131 740 125 l 740 135 q 746 143 742 139 q 754 149 750 147 m 769 140 q 760 143 764 143 q 751 139 756 143 q 747 128 747 135 q 750 118 747 124 q 760 113 753 113 l 764 113 q 771 114 767 113 q 775 128 775 119 q 769 140 775 136 m 828 149 q 836 150 832 150 q 842 149 839 150 q 849 142 846 147 q 850 136 850 140 q 850 122 850 132 l 850 106 l 843 106 l 843 121 q 843 132 843 128 q 842 138 843 136 q 840 140 842 139 q 835 142 839 142 q 828 140 832 143 q 823 135 824 139 q 821 119 822 131 l 821 106 l 814 106 l 814 150 l 818 150 q 821 149 821 150 q 819 144 821 147 q 817 142 818 143 q 817 139 817 140 l 817 136 l 818 139 q 823 145 821 143 q 828 149 825 147 m 992 149 q 997 150 994 150 q 1001 150 999 150 q 1015 144 1011 150 q 1018 126 1018 139 q 1018 119 1018 121 q 1018 115 1018 117 q 1019 114 1018 114 q 1022 110 1021 113 q 1022 107 1022 108 q 1019 106 1021 106 q 1013 113 1015 106 l 1010 117 l 1010 114 q 1006 106 1008 108 q 996 104 1003 104 q 985 108 989 104 q 982 115 982 111 q 982 120 982 117 q 989 128 982 124 q 994 130 990 129 q 1001 132 997 131 q 1007 133 1004 132 l 1010 133 l 1010 135 q 1008 138 1010 136 q 1003 142 1007 140 q 996 142 1000 143 q 990 138 992 142 q 988 136 989 136 q 985 136 988 136 q 982 138 982 136 l 983 142 q 987 146 985 144 q 992 149 989 147 m 1010 124 q 1008 126 1010 126 q 1003 125 1007 126 l 1001 125 q 994 122 997 124 q 991 120 992 121 q 990 119 990 119 q 989 117 989 118 q 997 111 989 111 q 1006 115 1001 111 q 1010 124 1010 119 m 493 132 l 493 150 l 501 150 l 501 133 q 501 122 501 125 q 502 117 501 118 q 503 114 503 115 q 508 113 506 113 q 515 113 511 113 q 521 118 518 114 q 522 124 522 121 q 522 136 522 128 l 524 150 l 531 150 l 531 132 q 531 123 531 126 q 531 117 531 119 q 531 115 531 115 q 533 114 532 114 q 535 110 535 113 q 535 107 535 108 q 533 106 535 106 q 528 108 531 106 q 524 114 525 110 q 522 115 522 115 q 521 111 522 114 q 517 106 519 107 q 510 104 515 104 q 494 111 500 104 q 494 118 494 114 q 493 132 493 122 m 196 49 q 199 49 197 49 q 204 50 201 50 l 210 49 l 210 40 l 204 40 q 198 40 200 40 q 194 38 196 39 q 192 33 193 35 q 192 29 192 32 l 192 25 l 204 25 l 204 15 l 194 15 q 188 15 190 15 q 185 14 185 15 l 188 11 l 192 8 l 192 -28 l 182 -28 l 182 15 l 178 15 q 176 15 176 15 q 175 17 175 15 q 175 19 175 18 q 176 24 175 22 q 178 25 176 25 q 180 25 179 25 q 181 26 181 25 q 182 31 182 28 q 196 49 183 46 m 575 36 l 575 50 l 585 50 l 585 17 q 585 1 585 7 q 585 -10 585 -6 q 586 -15 585 -14 l 586 -17 q 589 -18 588 -18 q 590 -19 590 -18 q 590 -24 590 -21 l 590 -26 l 589 -28 q 584 -26 588 -28 q 579 -22 581 -25 l 576 -19 l 572 -24 q 557 -29 565 -29 q 549 -28 553 -29 q 536 -11 539 -22 q 535 -3 535 -7 q 538 11 535 3 q 550 24 540 19 q 553 26 551 25 q 557 26 556 26 q 567 24 561 26 q 575 17 572 21 l 579 13 l 581 13 q 578 18 581 14 q 576 22 576 19 q 576 27 576 24 q 575 36 575 31 m 568 13 q 560 16 565 15 q 551 14 556 17 q 544 -4 544 8 q 547 -10 546 -7 q 547 -14 547 -12 q 557 -19 551 -18 l 560 -19 q 568 -17 564 -19 q 575 -1 575 -11 q 568 13 575 7 m 626 50 l 631 50 l 635 49 l 636 44 l 636 39 l 626 39 l 626 50 m 397 39 l 407 39 l 407 25 l 419 25 l 419 15 l 404 15 l 401 14 q 403 13 401 13 l 403 11 l 404 11 l 406 10 l 407 7 l 407 -4 q 408 -17 407 -15 q 410 -18 408 -18 q 415 -18 413 -18 l 419 -18 l 419 -28 l 414 -28 q 404 -26 407 -28 q 400 -22 401 -25 q 398 -15 399 -19 q 397 -1 397 -10 l 397 15 l 394 15 q 392 15 393 15 q 391 17 392 15 q 390 19 390 18 q 391 24 390 22 q 392 25 392 25 q 394 25 393 25 l 397 25 l 397 39 m 1051 39 l 1061 39 l 1061 25 l 1072 25 l 1072 15 l 1056 15 l 1056 14 l 1058 11 q 1060 8 1060 10 q 1060 4 1060 7 q 1061 -4 1061 1 l 1061 -18 l 1074 -18 l 1074 -29 l 1067 -28 q 1059 -27 1061 -28 q 1056 -24 1057 -26 l 1051 -21 l 1051 15 l 1047 15 q 1045 15 1046 15 q 1044 17 1044 15 q 1044 19 1044 18 q 1044 24 1044 22 q 1045 25 1044 25 q 1047 25 1046 25 l 1051 25 l 1051 39 m 249 25 l 254 26 q 263 25 258 26 q 271 19 267 24 l 274 17 l 274 21 q 274 24 274 24 q 278 25 275 25 l 282 25 l 282 -7 q 282 -26 282 -19 q 282 -35 282 -32 q 281 -40 282 -39 q 279 -43 281 -42 q 277 -46 279 -44 q 274 -49 275 -47 q 270 -51 272 -50 q 265 -51 268 -51 q 254 -51 261 -51 l 239 -51 l 239 -43 l 251 -43 q 261 -42 257 -43 q 267 -42 265 -42 q 274 -29 274 -37 q 274 -26 274 -28 q 276 -22 275 -24 q 278 -17 278 -18 q 274 -19 276 -17 q 261 -28 268 -25 q 254 -29 258 -29 q 247 -28 251 -29 q 240 -22 243 -26 q 235 -12 236 -17 q 233 -1 233 -8 q 235 8 233 4 q 240 18 236 14 q 249 25 243 22 m 265 14 q 259 16 264 15 q 251 15 254 17 q 243 4 244 13 l 243 0 q 246 -14 243 -7 q 256 -19 250 -19 q 261 -19 257 -19 q 271 -11 265 -19 q 272 -3 272 -7 q 272 3 272 -1 q 265 14 271 8 m 331 25 l 342 25 q 358 15 354 25 q 360 10 361 11 q 356 8 360 8 q 350 10 350 8 q 347 15 350 13 q 340 17 343 17 q 331 13 333 17 q 329 10 329 11 q 332 7 329 8 q 337 5 333 6 q 344 3 340 4 q 358 -3 354 0 q 361 -12 361 -7 q 361 -17 361 -15 q 358 -22 361 -19 q 342 -29 351 -29 q 332 -28 339 -29 q 319 -18 325 -28 q 318 -11 318 -12 q 322 -10 318 -10 q 327 -10 326 -10 q 328 -12 328 -11 l 329 -14 q 332 -17 329 -15 q 334 -19 333 -18 q 337 -19 335 -19 q 342 -19 339 -19 q 348 -19 346 -19 q 350 -17 350 -18 q 352 -15 351 -15 q 353 -12 353 -14 q 338 -6 353 -10 q 330 -3 333 -4 q 325 0 326 -1 q 321 5 322 1 q 319 13 319 8 q 324 20 321 17 q 331 25 328 24 m 689 25 l 694 25 q 706 23 700 25 q 718 14 713 21 q 720 7 719 10 q 721 0 721 4 l 721 -4 q 713 -24 721 -17 q 697 -29 706 -29 q 685 -26 693 -29 q 672 -10 676 -24 q 671 1 671 -4 q 674 11 671 7 q 681 19 676 15 q 689 25 685 24 m 703 15 l 697 17 q 692 15 696 17 q 683 10 688 14 q 681 1 681 6 q 681 -8 681 -4 q 694 -19 685 -18 l 697 -19 q 710 -12 706 -19 q 713 -1 713 -7 q 711 6 713 1 q 703 15 710 11 m 768 24 q 778 26 774 26 q 786 24 782 26 q 793 19 790 22 q 796 14 796 15 q 797 12 796 13 q 797 10 797 11 q 793 8 796 8 q 789 9 790 8 q 788 11 788 10 q 781 15 786 14 l 775 17 q 769 15 774 17 q 765 10 765 14 q 767 8 765 8 q 772 6 768 7 q 783 1 775 4 q 793 -2 790 0 q 797 -8 796 -4 q 799 -14 799 -11 q 793 -24 799 -19 q 776 -29 788 -29 q 762 -24 768 -29 q 756 -12 756 -19 q 756 -10 756 -11 q 760 -10 757 -10 q 764 -10 763 -10 q 765 -12 765 -11 q 778 -19 767 -19 q 789 -14 786 -19 q 787 -10 789 -11 q 779 -7 785 -8 q 765 -2 769 -4 q 758 3 761 0 q 757 7 757 4 l 757 11 q 768 24 757 21 m 901 22 q 906 25 904 24 q 910 26 908 26 q 921 22 915 26 q 928 13 926 18 q 928 5 928 11 q 929 -10 929 -1 l 929 -28 l 919 -28 l 919 -12 q 919 6 919 0 q 915 14 918 13 q 910 15 913 15 q 903 15 907 15 q 897 8 900 14 q 895 5 896 7 q 894 -1 894 3 q 894 -11 894 -4 l 893 -28 l 885 -28 l 885 25 l 889 25 q 893 24 892 25 q 894 22 894 24 l 893 21 q 892 18 892 19 q 889 13 889 15 l 889 11 l 892 15 q 901 22 896 19 m 983 25 l 989 26 q 998 25 993 26 q 1007 18 1003 24 q 1013 11 1011 15 q 1015 1 1014 7 l 1015 -6 l 975 -6 l 974 -7 q 976 -12 974 -10 q 982 -18 979 -15 q 989 -19 985 -19 q 994 -19 990 -19 q 1003 -14 999 -18 q 1004 -12 1003 -12 q 1008 -11 1006 -11 q 1013 -12 1013 -11 q 1011 -18 1014 -14 q 997 -28 1006 -25 q 989 -29 993 -29 q 981 -28 985 -29 q 964 -1 964 -21 q 983 25 965 19 m 997 14 q 990 16 994 15 q 983 15 986 17 q 978 11 981 14 q 975 6 975 8 l 974 3 l 989 3 q 999 3 996 3 q 1003 3 1003 3 q 1004 6 1004 4 q 1002 10 1004 7 q 997 14 1000 13 m 454 6 l 454 25 l 463 25 l 463 6 q 463 -6 463 -1 q 463 -12 463 -10 q 464 -15 464 -14 q 465 -17 464 -15 q 474 -19 468 -19 q 478 -19 475 -19 q 485 -12 482 -18 q 487 -9 486 -11 q 488 -3 488 -7 q 488 8 488 1 l 489 25 l 497 25 l 497 -15 l 500 -17 q 502 -19 501 -18 q 503 -24 503 -21 q 501 -28 503 -28 q 495 -26 499 -28 q 490 -19 492 -24 q 488 -17 489 -17 q 486 -24 486 -18 q 481 -28 485 -26 q 471 -29 476 -29 q 461 -26 465 -29 q 458 -24 460 -25 q 456 -19 457 -22 q 455 -15 456 -18 q 454 -8 454 -12 q 454 6 454 -4 m 626 25 l 631 25 l 635 24 l 636 -1 l 636 -28 l 626 -28 l 626 25 m 836 -17 q 838 -15 836 -15 q 842 -15 840 -15 l 847 -15 l 847 -28 l 835 -28 l 835 -22 q 836 -18 835 -19 l 836 -17 z "},"2":{"ha":1250,"x_min":83,"x_max":1167,"o":"m 328 1032 q 420 1033 335 1032 q 631 1033 506 1033 l 926 1033 l 942 1031 q 1063 978 1008 1018 q 1085 956 1071 969 q 1107 932 1099 943 q 1160 826 1146 885 q 1161 822 1161 824 q 1164 807 1163 814 q 1166 787 1165 800 q 1167 748 1167 774 q 1167 676 1167 722 l 1167 651 q 1167 563 1167 596 q 1167 514 1167 531 q 1165 489 1167 497 q 1163 472 1164 481 q 1085 332 1146 390 q 940 258 1026 274 l 924 256 l 632 256 q 486 254 543 254 q 397 255 429 254 q 347 256 364 256 q 323 256 331 256 q 307 258 315 257 l 307 260 q 147 351 211 276 q 86 482 100 407 l 83 499 l 83 788 l 86 803 q 163 954 100 892 q 328 1032 231 1021 m 699 774 q 683 776 690 776 q 660 771 674 776 q 638 747 647 765 q 635 742 636 744 q 635 736 635 739 q 635 726 635 733 q 635 717 635 721 q 635 712 635 714 q 638 707 636 710 q 660 685 646 692 q 682 679 671 679 l 690 679 q 725 703 714 683 q 732 728 732 715 q 729 744 732 736 q 717 762 725 754 q 699 774 708 769 m 854 776 l 829 776 l 829 754 l 828 733 l 815 754 l 801 775 l 775 775 l 775 679 l 803 679 l 803 722 l 817 701 l 831 679 l 854 679 l 854 776 m 228 774 q 222 774 225 774 q 215 775 219 775 q 200 775 210 775 l 179 775 l 179 679 l 206 679 l 206 710 l 215 711 q 224 712 221 711 q 231 714 228 713 q 249 742 249 724 l 249 744 q 228 774 246 765 m 353 775 l 290 775 l 290 679 l 353 679 l 353 704 l 318 704 l 318 714 l 349 714 l 349 739 l 318 739 l 318 749 l 353 749 l 353 775 m 454 771 l 449 775 l 400 775 l 400 679 l 426 679 l 426 694 q 426 706 426 703 q 428 710 426 710 q 432 706 429 710 q 439 694 435 701 l 449 679 l 479 679 l 476 685 q 468 697 472 690 l 457 714 l 461 718 q 465 723 463 721 q 468 728 467 725 q 471 733 471 731 q 471 742 471 736 q 471 751 471 747 q 469 756 471 754 q 454 771 464 765 m 567 774 q 553 775 561 775 q 538 772 543 775 q 515 749 517 765 q 516 738 515 742 q 521 729 517 733 q 549 717 528 721 q 560 714 557 715 q 565 710 564 713 q 565 708 565 708 q 564 706 565 707 q 557 704 561 704 q 551 704 556 704 q 543 708 546 704 l 540 711 l 533 710 l 532 710 q 526 708 529 708 q 521 707 522 707 q 515 704 515 706 l 515 703 q 517 697 515 701 q 542 679 524 683 q 553 678 547 678 q 576 683 564 678 q 592 706 592 690 l 592 711 q 558 739 592 733 q 543 746 543 742 q 544 749 543 747 q 553 751 547 751 q 561 747 558 751 l 564 744 l 578 747 q 585 749 582 749 q 588 749 588 749 q 590 751 589 750 q 589 753 590 751 q 581 765 588 760 q 567 774 575 771 m 957 768 l 954 775 l 925 775 l 910 728 q 899 694 904 708 q 894 679 894 681 l 922 679 l 925 690 l 940 689 l 954 689 l 956 683 l 957 679 l 971 679 q 982 679 979 679 q 985 681 985 679 l 982 688 q 971 722 978 700 q 963 749 967 736 q 957 767 958 761 l 957 768 m 1050 775 l 1024 775 l 1024 679 l 1079 679 l 1079 704 l 1050 704 l 1050 775 m 685 607 q 675 608 679 608 q 643 596 657 608 q 626 561 626 579 q 628 542 626 557 q 654 515 631 528 q 660 512 658 513 q 666 511 663 511 q 676 511 669 511 q 685 511 682 511 q 691 512 689 511 q 697 515 693 513 q 711 525 704 518 q 721 538 718 532 q 726 560 726 549 q 725 568 726 564 q 710 594 721 583 q 685 607 699 604 m 849 608 l 835 608 q 822 607 822 608 q 821 600 821 606 q 821 586 821 594 l 821 567 l 808 586 l 794 607 l 769 607 l 769 511 l 796 511 l 796 532 l 797 554 l 811 532 l 824 511 l 849 511 l 849 608 m 231 578 l 231 607 l 204 607 l 204 538 l 208 532 q 217 520 211 525 q 229 513 222 515 q 243 511 235 511 q 258 513 251 511 q 272 522 265 515 q 279 535 278 528 q 281 541 281 538 q 282 551 282 544 q 282 574 282 558 l 282 607 l 256 607 l 256 578 q 256 553 256 561 q 254 543 256 546 q 250 538 253 540 q 243 536 246 536 q 235 539 239 536 q 232 544 233 540 q 231 554 231 547 q 231 578 231 561 m 381 606 q 367 607 375 607 q 350 606 357 607 q 340 600 344 604 q 332 592 335 596 q 328 588 329 590 q 328 581 328 585 q 329 569 328 572 q 335 561 331 565 q 345 554 339 557 q 363 549 351 551 q 378 542 378 546 q 374 536 378 538 l 368 536 q 363 536 367 536 q 356 540 358 536 l 353 543 l 340 540 q 331 538 335 539 q 326 538 328 538 q 327 534 326 536 q 330 528 328 532 q 333 522 332 525 q 363 511 343 511 l 367 511 q 400 525 390 511 q 403 531 403 528 q 404 536 404 533 l 404 540 q 375 571 404 564 q 358 576 361 574 q 356 579 356 578 q 357 582 356 581 q 360 583 358 583 q 365 583 363 583 q 371 583 369 583 q 374 579 372 582 l 376 576 l 389 579 q 399 582 394 581 l 401 582 q 402 585 403 583 q 400 589 401 586 q 381 606 393 601 m 511 607 l 449 607 l 449 511 l 511 511 l 511 536 l 476 536 l 476 546 l 507 546 l 507 571 l 476 571 l 476 582 l 511 582 l 511 607 m 922 607 l 896 607 l 896 511 l 951 511 l 951 536 l 922 536 l 922 607 m 1001 594 l 994 607 l 963 607 l 965 604 q 971 594 967 601 q 982 576 975 586 l 996 551 l 996 511 l 1022 511 l 1022 551 l 1036 576 q 1048 595 1043 588 q 1053 604 1053 603 l 1054 607 l 1024 607 l 1017 594 q 1012 585 1014 589 q 1008 582 1010 582 l 1007 586 q 1001 594 1004 589 m 674 749 q 683 750 679 750 q 699 743 692 750 q 704 728 704 736 q 703 717 704 722 q 683 704 696 704 q 674 705 682 704 q 661 721 667 706 l 661 725 q 664 738 661 732 q 674 749 667 744 m 206 749 l 213 749 q 219 748 218 749 q 221 743 221 747 q 219 738 221 739 q 213 735 217 736 l 206 735 l 206 749 m 426 749 l 435 749 q 443 748 442 749 q 444 742 444 747 q 433 735 444 735 l 426 735 l 426 749 m 938 729 q 939 736 938 733 l 940 738 l 942 732 q 943 726 943 729 l 947 714 l 933 714 l 933 718 l 935 721 q 936 728 935 724 q 938 729 936 729 m 667 581 q 676 583 672 583 q 688 579 682 583 q 697 565 694 575 q 699 558 699 561 q 692 543 699 550 q 675 536 686 536 q 657 547 664 536 q 654 558 654 553 q 656 569 654 563 q 667 581 658 576 m 194 169 q 206 171 200 171 q 215 170 210 171 q 226 165 221 169 q 231 161 229 164 q 235 156 233 158 q 236 151 236 153 q 232 150 235 150 q 229 151 231 150 q 226 154 228 151 q 209 163 221 163 q 190 156 197 164 q 183 139 183 150 l 183 135 q 193 115 185 121 q 206 111 199 111 q 214 113 210 111 q 225 120 221 115 q 229 129 229 125 l 229 132 l 210 132 l 210 140 l 236 140 l 236 106 l 233 106 q 229 107 229 106 q 232 114 229 108 q 233 118 233 117 l 232 118 l 228 114 q 207 104 221 104 q 179 121 189 104 q 177 125 178 124 q 176 129 176 126 q 176 138 176 132 q 176 146 176 143 q 177 150 176 149 q 179 154 178 151 q 194 169 185 165 m 451 168 q 461 171 454 171 l 468 171 l 468 163 l 463 163 q 457 162 458 163 q 454 160 456 161 q 453 156 454 158 q 453 153 453 154 l 453 150 l 464 150 l 464 142 l 457 142 q 451 142 453 142 q 447 140 449 142 l 450 138 q 452 135 451 136 q 453 131 453 133 q 453 119 453 128 l 453 106 l 444 106 l 444 142 l 442 142 q 440 142 440 142 q 439 146 439 143 q 440 149 439 149 q 442 150 440 150 q 444 151 444 150 q 444 154 444 151 q 451 168 444 163 m 565 171 l 574 171 l 574 106 l 565 106 l 565 171 m 604 171 l 613 171 l 613 106 l 604 106 l 604 171 m 704 168 q 713 171 707 171 l 719 171 l 719 163 l 714 163 q 709 162 711 163 q 707 160 707 161 q 705 156 706 158 q 704 153 704 154 l 704 150 l 717 150 l 717 142 l 708 142 q 702 142 704 142 q 700 140 700 142 q 699 140 699 140 q 701 138 700 139 q 703 135 703 136 q 704 131 704 133 q 704 119 704 128 l 704 106 l 696 106 l 696 142 l 694 142 q 692 142 692 142 q 692 146 692 143 q 692 149 692 149 q 694 150 692 150 q 696 151 696 150 q 696 154 696 151 q 704 168 696 163 m 342 156 l 342 161 l 350 161 l 350 150 l 360 150 l 360 142 l 353 142 q 344 140 344 142 q 347 138 344 139 q 349 136 349 138 q 349 133 349 135 q 350 125 350 131 l 350 114 l 356 113 l 361 113 l 361 106 l 354 106 q 349 106 350 106 q 344 108 347 106 l 342 111 l 342 142 l 339 142 q 335 142 336 142 q 335 146 335 143 q 335 149 335 149 q 339 150 336 150 q 341 150 340 150 q 342 151 342 150 q 342 156 342 153 m 883 156 l 883 161 l 890 161 l 890 150 l 901 150 l 901 142 l 894 142 q 888 142 889 142 q 886 140 886 142 l 889 138 l 890 138 l 890 128 q 892 115 890 118 q 897 113 893 113 q 901 113 900 113 q 903 112 903 113 q 903 108 903 111 l 903 106 l 897 106 q 891 106 893 106 q 888 108 889 106 l 883 111 l 883 142 l 881 142 q 878 142 879 142 q 878 146 878 143 q 878 149 878 149 q 881 150 879 150 q 883 150 882 150 q 883 151 883 150 q 883 156 883 153 m 1050 156 l 1050 161 l 1058 161 l 1058 150 l 1068 150 l 1068 142 l 1061 142 q 1055 142 1057 142 q 1053 140 1053 142 l 1056 138 q 1057 137 1057 138 q 1058 134 1057 136 q 1058 128 1058 132 q 1059 115 1058 118 q 1065 113 1060 113 q 1068 113 1067 113 q 1069 112 1069 113 q 1069 108 1069 111 l 1069 106 l 1064 106 q 1058 106 1060 106 q 1054 108 1056 106 l 1050 111 l 1050 142 l 1047 142 q 1045 142 1046 142 q 1044 146 1044 143 q 1045 149 1044 149 q 1047 150 1046 150 q 1049 150 1049 150 q 1050 151 1050 150 q 1050 156 1050 153 m 282 149 q 290 150 286 150 q 303 145 297 150 q 311 129 310 140 l 311 125 l 293 125 q 280 124 283 125 q 276 122 276 124 l 276 121 q 278 118 276 119 q 288 113 281 113 l 290 113 q 299 115 294 113 q 303 119 301 118 q 308 119 306 119 q 310 118 310 119 q 307 114 310 117 q 301 108 304 111 q 297 106 299 106 l 292 106 q 285 106 289 106 q 276 107 281 106 q 268 126 268 114 q 269 135 268 128 q 282 149 269 143 m 297 140 q 287 142 292 143 q 278 136 282 142 l 278 133 l 276 132 l 281 132 q 289 131 283 131 q 297 132 293 131 l 301 132 q 302 134 303 132 q 300 138 301 136 q 297 140 299 139 m 754 149 q 763 150 758 150 q 771 149 767 150 q 783 126 783 143 q 780 113 783 119 q 769 106 776 107 q 763 104 765 104 q 756 105 760 104 q 747 110 751 106 q 742 121 743 114 q 740 131 740 125 l 740 135 q 746 143 742 139 q 754 149 750 147 m 769 140 q 760 143 764 143 q 751 139 756 143 q 747 128 747 135 q 750 118 747 124 q 760 113 753 113 l 764 113 q 771 114 767 113 q 775 128 775 119 q 769 140 775 136 m 828 149 q 836 150 832 150 q 842 149 839 150 q 849 142 846 147 q 850 136 850 140 q 850 122 850 132 l 850 106 l 843 106 l 843 121 q 843 132 843 128 q 842 138 843 136 q 840 140 842 139 q 835 142 839 142 q 828 140 832 143 q 823 135 824 139 q 821 119 822 131 l 821 106 l 814 106 l 814 150 l 818 150 q 821 149 821 150 q 819 144 821 147 q 817 142 818 143 q 817 139 817 140 l 817 136 l 818 139 q 823 145 821 143 q 828 149 825 147 m 992 149 q 997 150 994 150 q 1001 150 999 150 q 1015 144 1011 150 q 1018 126 1018 139 q 1018 119 1018 121 q 1018 115 1018 117 q 1019 114 1018 114 q 1022 110 1021 113 q 1022 107 1022 108 q 1019 106 1021 106 q 1013 113 1015 106 l 1010 117 l 1010 114 q 1006 106 1008 108 q 996 104 1003 104 q 985 108 989 104 q 982 115 982 111 q 982 120 982 117 q 989 128 982 124 q 994 130 990 129 q 1001 132 997 131 q 1007 133 1004 132 l 1010 133 l 1010 135 q 1008 138 1010 136 q 1003 142 1007 140 q 996 142 1000 143 q 990 138 992 142 q 988 136 989 136 q 985 136 988 136 q 982 138 982 136 l 983 142 q 987 146 985 144 q 992 149 989 147 m 1010 124 q 1008 126 1010 126 q 1003 125 1007 126 l 1001 125 q 994 122 997 124 q 991 120 992 121 q 990 119 990 119 q 989 117 989 118 q 997 111 989 111 q 1006 115 1001 111 q 1010 124 1010 119 m 493 132 l 493 150 l 501 150 l 501 133 q 501 122 501 125 q 502 117 501 118 q 503 114 503 115 q 508 113 506 113 q 515 113 511 113 q 521 118 518 114 q 522 124 522 121 q 522 136 522 128 l 524 150 l 531 150 l 531 132 q 531 123 531 126 q 531 117 531 119 q 531 115 531 115 q 533 114 532 114 q 535 110 535 113 q 535 107 535 108 q 533 106 535 106 q 528 108 531 106 q 524 114 525 110 q 522 115 522 115 q 521 111 522 114 q 517 106 519 107 q 510 104 515 104 q 494 111 500 104 q 494 118 494 114 q 493 132 493 122 m 196 49 q 199 49 197 49 q 204 50 201 50 l 210 49 l 210 40 l 204 40 q 198 40 200 40 q 194 38 196 39 q 192 33 193 35 q 192 29 192 32 l 192 25 l 204 25 l 204 15 l 194 15 q 188 15 190 15 q 185 14 185 15 l 188 11 l 192 8 l 192 -28 l 182 -28 l 182 15 l 178 15 q 176 15 176 15 q 175 17 175 15 q 175 19 175 18 q 176 24 175 22 q 178 25 176 25 q 180 25 179 25 q 181 26 181 25 q 182 31 182 28 q 196 49 183 46 m 575 36 l 575 50 l 585 50 l 585 17 q 585 1 585 7 q 585 -10 585 -6 q 586 -15 585 -14 l 586 -17 q 589 -18 588 -18 q 590 -19 590 -18 q 590 -24 590 -21 l 590 -26 l 589 -28 q 584 -26 588 -28 q 579 -22 581 -25 l 576 -19 l 572 -24 q 557 -29 565 -29 q 549 -28 553 -29 q 536 -11 539 -22 q 535 -3 535 -7 q 538 11 535 3 q 550 24 540 19 q 553 26 551 25 q 557 26 556 26 q 567 24 561 26 q 575 17 572 21 l 579 13 l 581 13 q 578 18 581 14 q 576 22 576 19 q 576 27 576 24 q 575 36 575 31 m 568 13 q 560 16 565 15 q 551 14 556 17 q 544 -4 544 8 q 547 -10 546 -7 q 547 -14 547 -12 q 557 -19 551 -18 l 560 -19 q 568 -17 564 -19 q 575 -1 575 -11 q 568 13 575 7 m 626 50 l 631 50 l 635 49 l 636 44 l 636 39 l 626 39 l 626 50 m 397 39 l 407 39 l 407 25 l 419 25 l 419 15 l 404 15 l 401 14 q 403 13 401 13 l 403 11 l 404 11 l 406 10 l 407 7 l 407 -4 q 408 -17 407 -15 q 410 -18 408 -18 q 415 -18 413 -18 l 419 -18 l 419 -28 l 414 -28 q 404 -26 407 -28 q 400 -22 401 -25 q 398 -15 399 -19 q 397 -1 397 -10 l 397 15 l 394 15 q 392 15 393 15 q 391 17 392 15 q 390 19 390 18 q 391 24 390 22 q 392 25 392 25 q 394 25 393 25 l 397 25 l 397 39 m 1051 39 l 1061 39 l 1061 25 l 1072 25 l 1072 15 l 1056 15 l 1056 14 l 1058 11 q 1060 8 1060 10 q 1060 4 1060 7 q 1061 -4 1061 1 l 1061 -18 l 1074 -18 l 1074 -29 l 1067 -28 q 1059 -27 1061 -28 q 1056 -24 1057 -26 l 1051 -21 l 1051 15 l 1047 15 q 1045 15 1046 15 q 1044 17 1044 15 q 1044 19 1044 18 q 1044 24 1044 22 q 1045 25 1044 25 q 1047 25 1046 25 l 1051 25 l 1051 39 m 249 25 l 254 26 q 263 25 258 26 q 271 19 267 24 l 274 17 l 274 21 q 274 24 274 24 q 278 25 275 25 l 282 25 l 282 -7 q 282 -26 282 -19 q 282 -35 282 -32 q 281 -40 282 -39 q 279 -43 281 -42 q 277 -46 279 -44 q 274 -49 275 -47 q 270 -51 272 -50 q 265 -51 268 -51 q 254 -51 261 -51 l 239 -51 l 239 -43 l 251 -43 q 261 -42 257 -43 q 267 -42 265 -42 q 274 -29 274 -37 q 274 -26 274 -28 q 276 -22 275 -24 q 278 -17 278 -18 q 274 -19 276 -17 q 261 -28 268 -25 q 254 -29 258 -29 q 247 -28 251 -29 q 240 -22 243 -26 q 235 -12 236 -17 q 233 -1 233 -8 q 235 8 233 4 q 240 18 236 14 q 249 25 243 22 m 265 14 q 259 16 264 15 q 251 15 254 17 q 243 4 244 13 l 243 0 q 246 -14 243 -7 q 256 -19 250 -19 q 261 -19 257 -19 q 271 -11 265 -19 q 272 -3 272 -7 q 272 3 272 -1 q 265 14 271 8 m 331 25 l 342 25 q 358 15 354 25 q 360 10 361 11 q 356 8 360 8 q 350 10 350 8 q 347 15 350 13 q 340 17 343 17 q 331 13 333 17 q 329 10 329 11 q 332 7 329 8 q 337 5 333 6 q 344 3 340 4 q 358 -3 354 0 q 361 -12 361 -7 q 361 -17 361 -15 q 358 -22 361 -19 q 342 -29 351 -29 q 332 -28 339 -29 q 319 -18 325 -28 q 318 -11 318 -12 q 322 -10 318 -10 q 327 -10 326 -10 q 328 -12 328 -11 l 329 -14 q 332 -17 329 -15 q 334 -19 333 -18 q 337 -19 335 -19 q 342 -19 339 -19 q 348 -19 346 -19 q 350 -17 350 -18 q 352 -15 351 -15 q 353 -12 353 -14 q 338 -6 353 -10 q 330 -3 333 -4 q 325 0 326 -1 q 321 5 322 1 q 319 13 319 8 q 324 20 321 17 q 331 25 328 24 m 689 25 l 694 25 q 706 23 700 25 q 718 14 713 21 q 720 7 719 10 q 721 0 721 4 l 721 -4 q 713 -24 721 -17 q 697 -29 706 -29 q 685 -26 693 -29 q 672 -10 676 -24 q 671 1 671 -4 q 674 11 671 7 q 681 19 676 15 q 689 25 685 24 m 703 15 l 697 17 q 692 15 696 17 q 683 10 688 14 q 681 1 681 6 q 681 -8 681 -4 q 694 -19 685 -18 l 697 -19 q 710 -12 706 -19 q 713 -1 713 -7 q 711 6 713 1 q 703 15 710 11 m 768 24 q 778 26 774 26 q 786 24 782 26 q 793 19 790 22 q 796 14 796 15 q 797 12 796 13 q 797 10 797 11 q 793 8 796 8 q 789 9 790 8 q 788 11 788 10 q 781 15 786 14 l 775 17 q 769 15 774 17 q 765 10 765 14 q 767 8 765 8 q 772 6 768 7 q 783 1 775 4 q 793 -2 790 0 q 797 -8 796 -4 q 799 -14 799 -11 q 793 -24 799 -19 q 776 -29 788 -29 q 762 -24 768 -29 q 756 -12 756 -19 q 756 -10 756 -11 q 760 -10 757 -10 q 764 -10 763 -10 q 765 -12 765 -11 q 778 -19 767 -19 q 789 -14 786 -19 q 787 -10 789 -11 q 779 -7 785 -8 q 765 -2 769 -4 q 758 3 761 0 q 757 7 757 4 l 757 11 q 768 24 757 21 m 901 22 q 906 25 904 24 q 910 26 908 26 q 921 22 915 26 q 928 13 926 18 q 928 5 928 11 q 929 -10 929 -1 l 929 -28 l 919 -28 l 919 -12 q 919 6 919 0 q 915 14 918 13 q 910 15 913 15 q 903 15 907 15 q 897 8 900 14 q 895 5 896 7 q 894 -1 894 3 q 894 -11 894 -4 l 893 -28 l 885 -28 l 885 25 l 889 25 q 893 24 892 25 q 894 22 894 24 l 893 21 q 892 18 892 19 q 889 13 889 15 l 889 11 l 892 15 q 901 22 896 19 m 983 25 l 989 26 q 998 25 993 26 q 1007 18 1003 24 q 1013 11 1011 15 q 1015 1 1014 7 l 1015 -6 l 975 -6 l 974 -7 q 976 -12 974 -10 q 982 -18 979 -15 q 989 -19 985 -19 q 994 -19 990 -19 q 1003 -14 999 -18 q 1004 -12 1003 -12 q 1008 -11 1006 -11 q 1013 -12 1013 -11 q 1011 -18 1014 -14 q 997 -28 1006 -25 q 989 -29 993 -29 q 981 -28 985 -29 q 964 -1 964 -21 q 983 25 965 19 m 997 14 q 990 16 994 15 q 983 15 986 17 q 978 11 981 14 q 975 6 975 8 l 974 3 l 989 3 q 999 3 996 3 q 1003 3 1003 3 q 1004 6 1004 4 q 1002 10 1004 7 q 997 14 1000 13 m 454 6 l 454 25 l 463 25 l 463 6 q 463 -6 463 -1 q 463 -12 463 -10 q 464 -15 464 -14 q 465 -17 464 -15 q 474 -19 468 -19 q 478 -19 475 -19 q 485 -12 482 -18 q 487 -9 486 -11 q 488 -3 488 -7 q 488 8 488 1 l 489 25 l 497 25 l 497 -15 l 500 -17 q 502 -19 501 -18 q 503 -24 503 -21 q 501 -28 503 -28 q 495 -26 499 -28 q 490 -19 492 -24 q 488 -17 489 -17 q 486 -24 486 -18 q 481 -28 485 -26 q 471 -29 476 -29 q 461 -26 465 -29 q 458 -24 460 -25 q 456 -19 457 -22 q 455 -15 456 -18 q 454 -8 454 -12 q 454 6 454 -4 m 626 25 l 631 25 l 635 24 l 636 -1 l 636 -28 l 626 -28 l 626 25 m 836 -17 q 838 -15 836 -15 q 842 -15 840 -15 l 847 -15 l 847 -28 l 835 -28 l 835 -22 q 836 -18 835 -19 l 836 -17 z "},"3":{"ha":1250,"x_min":83,"x_max":1167,"o":"m 328 1032 q 420 1033 335 1032 q 631 1033 506 1033 l 926 1033 l 942 1031 q 1063 978 1008 1018 q 1085 956 1071 969 q 1107 932 1099 943 q 1160 826 1146 885 q 1161 822 1161 824 q 1164 807 1163 814 q 1166 787 1165 800 q 1167 748 1167 774 q 1167 676 1167 722 l 1167 651 q 1167 563 1167 596 q 1167 514 1167 531 q 1165 489 1167 497 q 1163 472 1164 481 q 1085 332 1146 390 q 940 258 1026 274 l 924 256 l 632 256 q 486 254 543 254 q 397 255 429 254 q 347 256 364 256 q 323 256 331 256 q 307 258 315 257 l 307 260 q 147 351 211 276 q 86 482 100 407 l 83 499 l 83 788 l 86 803 q 163 954 100 892 q 328 1032 231 1021 m 699 774 q 683 776 690 776 q 660 771 674 776 q 638 747 647 765 q 635 742 636 744 q 635 736 635 739 q 635 726 635 733 q 635 717 635 721 q 635 712 635 714 q 638 707 636 710 q 660 685 646 692 q 682 679 671 679 l 690 679 q 725 703 714 683 q 732 728 732 715 q 729 744 732 736 q 717 762 725 754 q 699 774 708 769 m 854 776 l 829 776 l 829 754 l 828 733 l 815 754 l 801 775 l 775 775 l 775 679 l 803 679 l 803 722 l 817 701 l 831 679 l 854 679 l 854 776 m 228 774 q 222 774 225 774 q 215 775 219 775 q 200 775 210 775 l 179 775 l 179 679 l 206 679 l 206 710 l 215 711 q 224 712 221 711 q 231 714 228 713 q 249 742 249 724 l 249 744 q 228 774 246 765 m 353 775 l 290 775 l 290 679 l 353 679 l 353 704 l 318 704 l 318 714 l 349 714 l 349 739 l 318 739 l 318 749 l 353 749 l 353 775 m 454 771 l 449 775 l 400 775 l 400 679 l 426 679 l 426 694 q 426 706 426 703 q 428 710 426 710 q 432 706 429 710 q 439 694 435 701 l 449 679 l 479 679 l 476 685 q 468 697 472 690 l 457 714 l 461 718 q 465 723 463 721 q 468 728 467 725 q 471 733 471 731 q 471 742 471 736 q 471 751 471 747 q 469 756 471 754 q 454 771 464 765 m 567 774 q 553 775 561 775 q 538 772 543 775 q 515 749 517 765 q 516 738 515 742 q 521 729 517 733 q 549 717 528 721 q 560 714 557 715 q 565 710 564 713 q 565 708 565 708 q 564 706 565 707 q 557 704 561 704 q 551 704 556 704 q 543 708 546 704 l 540 711 l 533 710 l 532 710 q 526 708 529 708 q 521 707 522 707 q 515 704 515 706 l 515 703 q 517 697 515 701 q 542 679 524 683 q 553 678 547 678 q 576 683 564 678 q 592 706 592 690 l 592 711 q 558 739 592 733 q 543 746 543 742 q 544 749 543 747 q 553 751 547 751 q 561 747 558 751 l 564 744 l 578 747 q 585 749 582 749 q 588 749 588 749 q 590 751 589 750 q 589 753 590 751 q 581 765 588 760 q 567 774 575 771 m 957 768 l 954 775 l 925 775 l 910 728 q 899 694 904 708 q 894 679 894 681 l 922 679 l 925 690 l 940 689 l 954 689 l 956 683 l 957 679 l 971 679 q 982 679 979 679 q 985 681 985 679 l 982 688 q 971 722 978 700 q 963 749 967 736 q 957 767 958 761 l 957 768 m 1050 775 l 1024 775 l 1024 679 l 1079 679 l 1079 704 l 1050 704 l 1050 775 m 685 607 q 675 608 679 608 q 643 596 657 608 q 626 561 626 579 q 628 542 626 557 q 654 515 631 528 q 660 512 658 513 q 666 511 663 511 q 676 511 669 511 q 685 511 682 511 q 691 512 689 511 q 697 515 693 513 q 711 525 704 518 q 721 538 718 532 q 726 560 726 549 q 725 568 726 564 q 710 594 721 583 q 685 607 699 604 m 849 608 l 835 608 q 822 607 822 608 q 821 600 821 606 q 821 586 821 594 l 821 567 l 808 586 l 794 607 l 769 607 l 769 511 l 796 511 l 796 532 l 797 554 l 811 532 l 824 511 l 849 511 l 849 608 m 231 578 l 231 607 l 204 607 l 204 538 l 208 532 q 217 520 211 525 q 229 513 222 515 q 243 511 235 511 q 258 513 251 511 q 272 522 265 515 q 279 535 278 528 q 281 541 281 538 q 282 551 282 544 q 282 574 282 558 l 282 607 l 256 607 l 256 578 q 256 553 256 561 q 254 543 256 546 q 250 538 253 540 q 243 536 246 536 q 235 539 239 536 q 232 544 233 540 q 231 554 231 547 q 231 578 231 561 m 381 606 q 367 607 375 607 q 350 606 357 607 q 340 600 344 604 q 332 592 335 596 q 328 588 329 590 q 328 581 328 585 q 329 569 328 572 q 335 561 331 565 q 345 554 339 557 q 363 549 351 551 q 378 542 378 546 q 374 536 378 538 l 368 536 q 363 536 367 536 q 356 540 358 536 l 353 543 l 340 540 q 331 538 335 539 q 326 538 328 538 q 327 534 326 536 q 330 528 328 532 q 333 522 332 525 q 363 511 343 511 l 367 511 q 400 525 390 511 q 403 531 403 528 q 404 536 404 533 l 404 540 q 375 571 404 564 q 358 576 361 574 q 356 579 356 578 q 357 582 356 581 q 360 583 358 583 q 365 583 363 583 q 371 583 369 583 q 374 579 372 582 l 376 576 l 389 579 q 399 582 394 581 l 401 582 q 402 585 403 583 q 400 589 401 586 q 381 606 393 601 m 511 607 l 449 607 l 449 511 l 511 511 l 511 536 l 476 536 l 476 546 l 507 546 l 507 571 l 476 571 l 476 582 l 511 582 l 511 607 m 922 607 l 896 607 l 896 511 l 951 511 l 951 536 l 922 536 l 922 607 m 1001 594 l 994 607 l 963 607 l 965 604 q 971 594 967 601 q 982 576 975 586 l 996 551 l 996 511 l 1022 511 l 1022 551 l 1036 576 q 1048 595 1043 588 q 1053 604 1053 603 l 1054 607 l 1024 607 l 1017 594 q 1012 585 1014 589 q 1008 582 1010 582 l 1007 586 q 1001 594 1004 589 m 674 749 q 683 750 679 750 q 699 743 692 750 q 704 728 704 736 q 703 717 704 722 q 683 704 696 704 q 674 705 682 704 q 661 721 667 706 l 661 725 q 664 738 661 732 q 674 749 667 744 m 206 749 l 213 749 q 219 748 218 749 q 221 743 221 747 q 219 738 221 739 q 213 735 217 736 l 206 735 l 206 749 m 426 749 l 435 749 q 443 748 442 749 q 444 742 444 747 q 433 735 444 735 l 426 735 l 426 749 m 938 729 q 939 736 938 733 l 940 738 l 942 732 q 943 726 943 729 l 947 714 l 933 714 l 933 718 l 935 721 q 936 728 935 724 q 938 729 936 729 m 667 581 q 676 583 672 583 q 688 579 682 583 q 697 565 694 575 q 699 558 699 561 q 692 543 699 550 q 675 536 686 536 q 657 547 664 536 q 654 558 654 553 q 656 569 654 563 q 667 581 658 576 m 194 169 q 206 171 200 171 q 215 170 210 171 q 226 165 221 169 q 231 161 229 164 q 235 156 233 158 q 236 151 236 153 q 232 150 235 150 q 229 151 231 150 q 226 154 228 151 q 209 163 221 163 q 190 156 197 164 q 183 139 183 150 l 183 135 q 193 115 185 121 q 206 111 199 111 q 214 113 210 111 q 225 120 221 115 q 229 129 229 125 l 229 132 l 210 132 l 210 140 l 236 140 l 236 106 l 233 106 q 229 107 229 106 q 232 114 229 108 q 233 118 233 117 l 232 118 l 228 114 q 207 104 221 104 q 179 121 189 104 q 177 125 178 124 q 176 129 176 126 q 176 138 176 132 q 176 146 176 143 q 177 150 176 149 q 179 154 178 151 q 194 169 185 165 m 451 168 q 461 171 454 171 l 468 171 l 468 163 l 463 163 q 457 162 458 163 q 454 160 456 161 q 453 156 454 158 q 453 153 453 154 l 453 150 l 464 150 l 464 142 l 457 142 q 451 142 453 142 q 447 140 449 142 l 450 138 q 452 135 451 136 q 453 131 453 133 q 453 119 453 128 l 453 106 l 444 106 l 444 142 l 442 142 q 440 142 440 142 q 439 146 439 143 q 440 149 439 149 q 442 150 440 150 q 444 151 444 150 q 444 154 444 151 q 451 168 444 163 m 565 171 l 574 171 l 574 106 l 565 106 l 565 171 m 604 171 l 613 171 l 613 106 l 604 106 l 604 171 m 704 168 q 713 171 707 171 l 719 171 l 719 163 l 714 163 q 709 162 711 163 q 707 160 707 161 q 705 156 706 158 q 704 153 704 154 l 704 150 l 717 150 l 717 142 l 708 142 q 702 142 704 142 q 700 140 700 142 q 699 140 699 140 q 701 138 700 139 q 703 135 703 136 q 704 131 704 133 q 704 119 704 128 l 704 106 l 696 106 l 696 142 l 694 142 q 692 142 692 142 q 692 146 692 143 q 692 149 692 149 q 694 150 692 150 q 696 151 696 150 q 696 154 696 151 q 704 168 696 163 m 342 156 l 342 161 l 350 161 l 350 150 l 360 150 l 360 142 l 353 142 q 344 140 344 142 q 347 138 344 139 q 349 136 349 138 q 349 133 349 135 q 350 125 350 131 l 350 114 l 356 113 l 361 113 l 361 106 l 354 106 q 349 106 350 106 q 344 108 347 106 l 342 111 l 342 142 l 339 142 q 335 142 336 142 q 335 146 335 143 q 335 149 335 149 q 339 150 336 150 q 341 150 340 150 q 342 151 342 150 q 342 156 342 153 m 883 156 l 883 161 l 890 161 l 890 150 l 901 150 l 901 142 l 894 142 q 888 142 889 142 q 886 140 886 142 l 889 138 l 890 138 l 890 128 q 892 115 890 118 q 897 113 893 113 q 901 113 900 113 q 903 112 903 113 q 903 108 903 111 l 903 106 l 897 106 q 891 106 893 106 q 888 108 889 106 l 883 111 l 883 142 l 881 142 q 878 142 879 142 q 878 146 878 143 q 878 149 878 149 q 881 150 879 150 q 883 150 882 150 q 883 151 883 150 q 883 156 883 153 m 1050 156 l 1050 161 l 1058 161 l 1058 150 l 1068 150 l 1068 142 l 1061 142 q 1055 142 1057 142 q 1053 140 1053 142 l 1056 138 q 1057 137 1057 138 q 1058 134 1057 136 q 1058 128 1058 132 q 1059 115 1058 118 q 1065 113 1060 113 q 1068 113 1067 113 q 1069 112 1069 113 q 1069 108 1069 111 l 1069 106 l 1064 106 q 1058 106 1060 106 q 1054 108 1056 106 l 1050 111 l 1050 142 l 1047 142 q 1045 142 1046 142 q 1044 146 1044 143 q 1045 149 1044 149 q 1047 150 1046 150 q 1049 150 1049 150 q 1050 151 1050 150 q 1050 156 1050 153 m 282 149 q 290 150 286 150 q 303 145 297 150 q 311 129 310 140 l 311 125 l 293 125 q 280 124 283 125 q 276 122 276 124 l 276 121 q 278 118 276 119 q 288 113 281 113 l 290 113 q 299 115 294 113 q 303 119 301 118 q 308 119 306 119 q 310 118 310 119 q 307 114 310 117 q 301 108 304 111 q 297 106 299 106 l 292 106 q 285 106 289 106 q 276 107 281 106 q 268 126 268 114 q 269 135 268 128 q 282 149 269 143 m 297 140 q 287 142 292 143 q 278 136 282 142 l 278 133 l 276 132 l 281 132 q 289 131 283 131 q 297 132 293 131 l 301 132 q 302 134 303 132 q 300 138 301 136 q 297 140 299 139 m 754 149 q 763 150 758 150 q 771 149 767 150 q 783 126 783 143 q 780 113 783 119 q 769 106 776 107 q 763 104 765 104 q 756 105 760 104 q 747 110 751 106 q 742 121 743 114 q 740 131 740 125 l 740 135 q 746 143 742 139 q 754 149 750 147 m 769 140 q 760 143 764 143 q 751 139 756 143 q 747 128 747 135 q 750 118 747 124 q 760 113 753 113 l 764 113 q 771 114 767 113 q 775 128 775 119 q 769 140 775 136 m 828 149 q 836 150 832 150 q 842 149 839 150 q 849 142 846 147 q 850 136 850 140 q 850 122 850 132 l 850 106 l 843 106 l 843 121 q 843 132 843 128 q 842 138 843 136 q 840 140 842 139 q 835 142 839 142 q 828 140 832 143 q 823 135 824 139 q 821 119 822 131 l 821 106 l 814 106 l 814 150 l 818 150 q 821 149 821 150 q 819 144 821 147 q 817 142 818 143 q 817 139 817 140 l 817 136 l 818 139 q 823 145 821 143 q 828 149 825 147 m 992 149 q 997 150 994 150 q 1001 150 999 150 q 1015 144 1011 150 q 1018 126 1018 139 q 1018 119 1018 121 q 1018 115 1018 117 q 1019 114 1018 114 q 1022 110 1021 113 q 1022 107 1022 108 q 1019 106 1021 106 q 1013 113 1015 106 l 1010 117 l 1010 114 q 1006 106 1008 108 q 996 104 1003 104 q 985 108 989 104 q 982 115 982 111 q 982 120 982 117 q 989 128 982 124 q 994 130 990 129 q 1001 132 997 131 q 1007 133 1004 132 l 1010 133 l 1010 135 q 1008 138 1010 136 q 1003 142 1007 140 q 996 142 1000 143 q 990 138 992 142 q 988 136 989 136 q 985 136 988 136 q 982 138 982 136 l 983 142 q 987 146 985 144 q 992 149 989 147 m 1010 124 q 1008 126 1010 126 q 1003 125 1007 126 l 1001 125 q 994 122 997 124 q 991 120 992 121 q 990 119 990 119 q 989 117 989 118 q 997 111 989 111 q 1006 115 1001 111 q 1010 124 1010 119 m 493 132 l 493 150 l 501 150 l 501 133 q 501 122 501 125 q 502 117 501 118 q 503 114 503 115 q 508 113 506 113 q 515 113 511 113 q 521 118 518 114 q 522 124 522 121 q 522 136 522 128 l 524 150 l 531 150 l 531 132 q 531 123 531 126 q 531 117 531 119 q 531 115 531 115 q 533 114 532 114 q 535 110 535 113 q 535 107 535 108 q 533 106 535 106 q 528 108 531 106 q 524 114 525 110 q 522 115 522 115 q 521 111 522 114 q 517 106 519 107 q 510 104 515 104 q 494 111 500 104 q 494 118 494 114 q 493 132 493 122 m 196 49 q 199 49 197 49 q 204 50 201 50 l 210 49 l 210 40 l 204 40 q 198 40 200 40 q 194 38 196 39 q 192 33 193 35 q 192 29 192 32 l 192 25 l 204 25 l 204 15 l 194 15 q 188 15 190 15 q 185 14 185 15 l 188 11 l 192 8 l 192 -28 l 182 -28 l 182 15 l 178 15 q 176 15 176 15 q 175 17 175 15 q 175 19 175 18 q 176 24 175 22 q 178 25 176 25 q 180 25 179 25 q 181 26 181 25 q 182 31 182 28 q 196 49 183 46 m 575 36 l 575 50 l 585 50 l 585 17 q 585 1 585 7 q 585 -10 585 -6 q 586 -15 585 -14 l 586 -17 q 589 -18 588 -18 q 590 -19 590 -18 q 590 -24 590 -21 l 590 -26 l 589 -28 q 584 -26 588 -28 q 579 -22 581 -25 l 576 -19 l 572 -24 q 557 -29 565 -29 q 549 -28 553 -29 q 536 -11 539 -22 q 535 -3 535 -7 q 538 11 535 3 q 550 24 540 19 q 553 26 551 25 q 557 26 556 26 q 567 24 561 26 q 575 17 572 21 l 579 13 l 581 13 q 578 18 581 14 q 576 22 576 19 q 576 27 576 24 q 575 36 575 31 m 568 13 q 560 16 565 15 q 551 14 556 17 q 544 -4 544 8 q 547 -10 546 -7 q 547 -14 547 -12 q 557 -19 551 -18 l 560 -19 q 568 -17 564 -19 q 575 -1 575 -11 q 568 13 575 7 m 626 50 l 631 50 l 635 49 l 636 44 l 636 39 l 626 39 l 626 50 m 397 39 l 407 39 l 407 25 l 419 25 l 419 15 l 404 15 l 401 14 q 403 13 401 13 l 403 11 l 404 11 l 406 10 l 407 7 l 407 -4 q 408 -17 407 -15 q 410 -18 408 -18 q 415 -18 413 -18 l 419 -18 l 419 -28 l 414 -28 q 404 -26 407 -28 q 400 -22 401 -25 q 398 -15 399 -19 q 397 -1 397 -10 l 397 15 l 394 15 q 392 15 393 15 q 391 17 392 15 q 390 19 390 18 q 391 24 390 22 q 392 25 392 25 q 394 25 393 25 l 397 25 l 397 39 m 1051 39 l 1061 39 l 1061 25 l 1072 25 l 1072 15 l 1056 15 l 1056 14 l 1058 11 q 1060 8 1060 10 q 1060 4 1060 7 q 1061 -4 1061 1 l 1061 -18 l 1074 -18 l 1074 -29 l 1067 -28 q 1059 -27 1061 -28 q 1056 -24 1057 -26 l 1051 -21 l 1051 15 l 1047 15 q 1045 15 1046 15 q 1044 17 1044 15 q 1044 19 1044 18 q 1044 24 1044 22 q 1045 25 1044 25 q 1047 25 1046 25 l 1051 25 l 1051 39 m 249 25 l 254 26 q 263 25 258 26 q 271 19 267 24 l 274 17 l 274 21 q 274 24 274 24 q 278 25 275 25 l 282 25 l 282 -7 q 282 -26 282 -19 q 282 -35 282 -32 q 281 -40 282 -39 q 279 -43 281 -42 q 277 -46 279 -44 q 274 -49 275 -47 q 270 -51 272 -50 q 265 -51 268 -51 q 254 -51 261 -51 l 239 -51 l 239 -43 l 251 -43 q 261 -42 257 -43 q 267 -42 265 -42 q 274 -29 274 -37 q 274 -26 274 -28 q 276 -22 275 -24 q 278 -17 278 -18 q 274 -19 276 -17 q 261 -28 268 -25 q 254 -29 258 -29 q 247 -28 251 -29 q 240 -22 243 -26 q 235 -12 236 -17 q 233 -1 233 -8 q 235 8 233 4 q 240 18 236 14 q 249 25 243 22 m 265 14 q 259 16 264 15 q 251 15 254 17 q 243 4 244 13 l 243 0 q 246 -14 243 -7 q 256 -19 250 -19 q 261 -19 257 -19 q 271 -11 265 -19 q 272 -3 272 -7 q 272 3 272 -1 q 265 14 271 8 m 331 25 l 342 25 q 358 15 354 25 q 360 10 361 11 q 356 8 360 8 q 350 10 350 8 q 347 15 350 13 q 340 17 343 17 q 331 13 333 17 q 329 10 329 11 q 332 7 329 8 q 337 5 333 6 q 344 3 340 4 q 358 -3 354 0 q 361 -12 361 -7 q 361 -17 361 -15 q 358 -22 361 -19 q 342 -29 351 -29 q 332 -28 339 -29 q 319 -18 325 -28 q 318 -11 318 -12 q 322 -10 318 -10 q 327 -10 326 -10 q 328 -12 328 -11 l 329 -14 q 332 -17 329 -15 q 334 -19 333 -18 q 337 -19 335 -19 q 342 -19 339 -19 q 348 -19 346 -19 q 350 -17 350 -18 q 352 -15 351 -15 q 353 -12 353 -14 q 338 -6 353 -10 q 330 -3 333 -4 q 325 0 326 -1 q 321 5 322 1 q 319 13 319 8 q 324 20 321 17 q 331 25 328 24 m 689 25 l 694 25 q 706 23 700 25 q 718 14 713 21 q 720 7 719 10 q 721 0 721 4 l 721 -4 q 713 -24 721 -17 q 697 -29 706 -29 q 685 -26 693 -29 q 672 -10 676 -24 q 671 1 671 -4 q 674 11 671 7 q 681 19 676 15 q 689 25 685 24 m 703 15 l 697 17 q 692 15 696 17 q 683 10 688 14 q 681 1 681 6 q 681 -8 681 -4 q 694 -19 685 -18 l 697 -19 q 710 -12 706 -19 q 713 -1 713 -7 q 711 6 713 1 q 703 15 710 11 m 768 24 q 778 26 774 26 q 786 24 782 26 q 793 19 790 22 q 796 14 796 15 q 797 12 796 13 q 797 10 797 11 q 793 8 796 8 q 789 9 790 8 q 788 11 788 10 q 781 15 786 14 l 775 17 q 769 15 774 17 q 765 10 765 14 q 767 8 765 8 q 772 6 768 7 q 783 1 775 4 q 793 -2 790 0 q 797 -8 796 -4 q 799 -14 799 -11 q 793 -24 799 -19 q 776 -29 788 -29 q 762 -24 768 -29 q 756 -12 756 -19 q 756 -10 756 -11 q 760 -10 757 -10 q 764 -10 763 -10 q 765 -12 765 -11 q 778 -19 767 -19 q 789 -14 786 -19 q 787 -10 789 -11 q 779 -7 785 -8 q 765 -2 769 -4 q 758 3 761 0 q 757 7 757 4 l 757 11 q 768 24 757 21 m 901 22 q 906 25 904 24 q 910 26 908 26 q 921 22 915 26 q 928 13 926 18 q 928 5 928 11 q 929 -10 929 -1 l 929 -28 l 919 -28 l 919 -12 q 919 6 919 0 q 915 14 918 13 q 910 15 913 15 q 903 15 907 15 q 897 8 900 14 q 895 5 896 7 q 894 -1 894 3 q 894 -11 894 -4 l 893 -28 l 885 -28 l 885 25 l 889 25 q 893 24 892 25 q 894 22 894 24 l 893 21 q 892 18 892 19 q 889 13 889 15 l 889 11 l 892 15 q 901 22 896 19 m 983 25 l 989 26 q 998 25 993 26 q 1007 18 1003 24 q 1013 11 1011 15 q 1015 1 1014 7 l 1015 -6 l 975 -6 l 974 -7 q 976 -12 974 -10 q 982 -18 979 -15 q 989 -19 985 -19 q 994 -19 990 -19 q 1003 -14 999 -18 q 1004 -12 1003 -12 q 1008 -11 1006 -11 q 1013 -12 1013 -11 q 1011 -18 1014 -14 q 997 -28 1006 -25 q 989 -29 993 -29 q 981 -28 985 -29 q 964 -1 964 -21 q 983 25 965 19 m 997 14 q 990 16 994 15 q 983 15 986 17 q 978 11 981 14 q 975 6 975 8 l 974 3 l 989 3 q 999 3 996 3 q 1003 3 1003 3 q 1004 6 1004 4 q 1002 10 1004 7 q 997 14 1000 13 m 454 6 l 454 25 l 463 25 l 463 6 q 463 -6 463 -1 q 463 -12 463 -10 q 464 -15 464 -14 q 465 -17 464 -15 q 474 -19 468 -19 q 478 -19 475 -19 q 485 -12 482 -18 q 487 -9 486 -11 q 488 -3 488 -7 q 488 8 488 1 l 489 25 l 497 25 l 497 -15 l 500 -17 q 502 -19 501 -18 q 503 -24 503 -21 q 501 -28 503 -28 q 495 -26 499 -28 q 490 -19 492 -24 q 488 -17 489 -17 q 486 -24 486 -18 q 481 -28 485 -26 q 471 -29 476 -29 q 461 -26 465 -29 q 458 -24 460 -25 q 456 -19 457 -22 q 455 -15 456 -18 q 454 -8 454 -12 q 454 6 454 -4 m 626 25 l 631 25 l 635 24 l 636 -1 l 636 -28 l 626 -28 l 626 25 m 836 -17 q 838 -15 836 -15 q 842 -15 840 -15 l 847 -15 l 847 -28 l 835 -28 l 835 -22 q 836 -18 835 -19 l 836 -17 z "},"4":{"ha":1250,"x_min":83,"x_max":1167,"o":"m 328 1032 q 420 1033 335 1032 q 631 1033 506 1033 l 926 1033 l 942 1031 q 1063 978 1008 1018 q 1085 956 1071 969 q 1107 932 1099 943 q 1160 826 1146 885 q 1161 822 1161 824 q 1164 807 1163 814 q 1166 787 1165 800 q 1167 748 1167 774 q 1167 676 1167 722 l 1167 651 q 1167 563 1167 596 q 1167 514 1167 531 q 1165 489 1167 497 q 1163 472 1164 481 q 1085 332 1146 390 q 940 258 1026 274 l 924 256 l 632 256 q 486 254 543 254 q 397 255 429 254 q 347 256 364 256 q 323 256 331 256 q 307 258 315 257 l 307 260 q 147 351 211 276 q 86 482 100 407 l 83 499 l 83 788 l 86 803 q 163 954 100 892 q 328 1032 231 1021 m 699 774 q 683 776 690 776 q 660 771 674 776 q 638 747 647 765 q 635 742 636 744 q 635 736 635 739 q 635 726 635 733 q 635 717 635 721 q 635 712 635 714 q 638 707 636 710 q 660 685 646 692 q 682 679 671 679 l 690 679 q 725 703 714 683 q 732 728 732 715 q 729 744 732 736 q 717 762 725 754 q 699 774 708 769 m 854 776 l 829 776 l 829 754 l 828 733 l 815 754 l 801 775 l 775 775 l 775 679 l 803 679 l 803 722 l 817 701 l 831 679 l 854 679 l 854 776 m 228 774 q 222 774 225 774 q 215 775 219 775 q 200 775 210 775 l 179 775 l 179 679 l 206 679 l 206 710 l 215 711 q 224 712 221 711 q 231 714 228 713 q 249 742 249 724 l 249 744 q 228 774 246 765 m 353 775 l 290 775 l 290 679 l 353 679 l 353 704 l 318 704 l 318 714 l 349 714 l 349 739 l 318 739 l 318 749 l 353 749 l 353 775 m 454 771 l 449 775 l 400 775 l 400 679 l 426 679 l 426 694 q 426 706 426 703 q 428 710 426 710 q 432 706 429 710 q 439 694 435 701 l 449 679 l 479 679 l 476 685 q 468 697 472 690 l 457 714 l 461 718 q 465 723 463 721 q 468 728 467 725 q 471 733 471 731 q 471 742 471 736 q 471 751 471 747 q 469 756 471 754 q 454 771 464 765 m 567 774 q 553 775 561 775 q 538 772 543 775 q 515 749 517 765 q 516 738 515 742 q 521 729 517 733 q 549 717 528 721 q 560 714 557 715 q 565 710 564 713 q 565 708 565 708 q 564 706 565 707 q 557 704 561 704 q 551 704 556 704 q 543 708 546 704 l 540 711 l 533 710 l 532 710 q 526 708 529 708 q 521 707 522 707 q 515 704 515 706 l 515 703 q 517 697 515 701 q 542 679 524 683 q 553 678 547 678 q 576 683 564 678 q 592 706 592 690 l 592 711 q 558 739 592 733 q 543 746 543 742 q 544 749 543 747 q 553 751 547 751 q 561 747 558 751 l 564 744 l 578 747 q 585 749 582 749 q 588 749 588 749 q 590 751 589 750 q 589 753 590 751 q 581 765 588 760 q 567 774 575 771 m 957 768 l 954 775 l 925 775 l 910 728 q 899 694 904 708 q 894 679 894 681 l 922 679 l 925 690 l 940 689 l 954 689 l 956 683 l 957 679 l 971 679 q 982 679 979 679 q 985 681 985 679 l 982 688 q 971 722 978 700 q 963 749 967 736 q 957 767 958 761 l 957 768 m 1050 775 l 1024 775 l 1024 679 l 1079 679 l 1079 704 l 1050 704 l 1050 775 m 685 607 q 675 608 679 608 q 643 596 657 608 q 626 561 626 579 q 628 542 626 557 q 654 515 631 528 q 660 512 658 513 q 666 511 663 511 q 676 511 669 511 q 685 511 682 511 q 691 512 689 511 q 697 515 693 513 q 711 525 704 518 q 721 538 718 532 q 726 560 726 549 q 725 568 726 564 q 710 594 721 583 q 685 607 699 604 m 849 608 l 835 608 q 822 607 822 608 q 821 600 821 606 q 821 586 821 594 l 821 567 l 808 586 l 794 607 l 769 607 l 769 511 l 796 511 l 796 532 l 797 554 l 811 532 l 824 511 l 849 511 l 849 608 m 231 578 l 231 607 l 204 607 l 204 538 l 208 532 q 217 520 211 525 q 229 513 222 515 q 243 511 235 511 q 258 513 251 511 q 272 522 265 515 q 279 535 278 528 q 281 541 281 538 q 282 551 282 544 q 282 574 282 558 l 282 607 l 256 607 l 256 578 q 256 553 256 561 q 254 543 256 546 q 250 538 253 540 q 243 536 246 536 q 235 539 239 536 q 232 544 233 540 q 231 554 231 547 q 231 578 231 561 m 381 606 q 367 607 375 607 q 350 606 357 607 q 340 600 344 604 q 332 592 335 596 q 328 588 329 590 q 328 581 328 585 q 329 569 328 572 q 335 561 331 565 q 345 554 339 557 q 363 549 351 551 q 378 542 378 546 q 374 536 378 538 l 368 536 q 363 536 367 536 q 356 540 358 536 l 353 543 l 340 540 q 331 538 335 539 q 326 538 328 538 q 327 534 326 536 q 330 528 328 532 q 333 522 332 525 q 363 511 343 511 l 367 511 q 400 525 390 511 q 403 531 403 528 q 404 536 404 533 l 404 540 q 375 571 404 564 q 358 576 361 574 q 356 579 356 578 q 357 582 356 581 q 360 583 358 583 q 365 583 363 583 q 371 583 369 583 q 374 579 372 582 l 376 576 l 389 579 q 399 582 394 581 l 401 582 q 402 585 403 583 q 400 589 401 586 q 381 606 393 601 m 511 607 l 449 607 l 449 511 l 511 511 l 511 536 l 476 536 l 476 546 l 507 546 l 507 571 l 476 571 l 476 582 l 511 582 l 511 607 m 922 607 l 896 607 l 896 511 l 951 511 l 951 536 l 922 536 l 922 607 m 1001 594 l 994 607 l 963 607 l 965 604 q 971 594 967 601 q 982 576 975 586 l 996 551 l 996 511 l 1022 511 l 1022 551 l 1036 576 q 1048 595 1043 588 q 1053 604 1053 603 l 1054 607 l 1024 607 l 1017 594 q 1012 585 1014 589 q 1008 582 1010 582 l 1007 586 q 1001 594 1004 589 m 674 749 q 683 750 679 750 q 699 743 692 750 q 704 728 704 736 q 703 717 704 722 q 683 704 696 704 q 674 705 682 704 q 661 721 667 706 l 661 725 q 664 738 661 732 q 674 749 667 744 m 206 749 l 213 749 q 219 748 218 749 q 221 743 221 747 q 219 738 221 739 q 213 735 217 736 l 206 735 l 206 749 m 426 749 l 435 749 q 443 748 442 749 q 444 742 444 747 q 433 735 444 735 l 426 735 l 426 749 m 938 729 q 939 736 938 733 l 940 738 l 942 732 q 943 726 943 729 l 947 714 l 933 714 l 933 718 l 935 721 q 936 728 935 724 q 938 729 936 729 m 667 581 q 676 583 672 583 q 688 579 682 583 q 697 565 694 575 q 699 558 699 561 q 692 543 699 550 q 675 536 686 536 q 657 547 664 536 q 654 558 654 553 q 656 569 654 563 q 667 581 658 576 m 194 169 q 206 171 200 171 q 215 170 210 171 q 226 165 221 169 q 231 161 229 164 q 235 156 233 158 q 236 151 236 153 q 232 150 235 150 q 229 151 231 150 q 226 154 228 151 q 209 163 221 163 q 190 156 197 164 q 183 139 183 150 l 183 135 q 193 115 185 121 q 206 111 199 111 q 214 113 210 111 q 225 120 221 115 q 229 129 229 125 l 229 132 l 210 132 l 210 140 l 236 140 l 236 106 l 233 106 q 229 107 229 106 q 232 114 229 108 q 233 118 233 117 l 232 118 l 228 114 q 207 104 221 104 q 179 121 189 104 q 177 125 178 124 q 176 129 176 126 q 176 138 176 132 q 176 146 176 143 q 177 150 176 149 q 179 154 178 151 q 194 169 185 165 m 451 168 q 461 171 454 171 l 468 171 l 468 163 l 463 163 q 457 162 458 163 q 454 160 456 161 q 453 156 454 158 q 453 153 453 154 l 453 150 l 464 150 l 464 142 l 457 142 q 451 142 453 142 q 447 140 449 142 l 450 138 q 452 135 451 136 q 453 131 453 133 q 453 119 453 128 l 453 106 l 444 106 l 444 142 l 442 142 q 440 142 440 142 q 439 146 439 143 q 440 149 439 149 q 442 150 440 150 q 444 151 444 150 q 444 154 444 151 q 451 168 444 163 m 565 171 l 574 171 l 574 106 l 565 106 l 565 171 m 604 171 l 613 171 l 613 106 l 604 106 l 604 171 m 704 168 q 713 171 707 171 l 719 171 l 719 163 l 714 163 q 709 162 711 163 q 707 160 707 161 q 705 156 706 158 q 704 153 704 154 l 704 150 l 717 150 l 717 142 l 708 142 q 702 142 704 142 q 700 140 700 142 q 699 140 699 140 q 701 138 700 139 q 703 135 703 136 q 704 131 704 133 q 704 119 704 128 l 704 106 l 696 106 l 696 142 l 694 142 q 692 142 692 142 q 692 146 692 143 q 692 149 692 149 q 694 150 692 150 q 696 151 696 150 q 696 154 696 151 q 704 168 696 163 m 342 156 l 342 161 l 350 161 l 350 150 l 360 150 l 360 142 l 353 142 q 344 140 344 142 q 347 138 344 139 q 349 136 349 138 q 349 133 349 135 q 350 125 350 131 l 350 114 l 356 113 l 361 113 l 361 106 l 354 106 q 349 106 350 106 q 344 108 347 106 l 342 111 l 342 142 l 339 142 q 335 142 336 142 q 335 146 335 143 q 335 149 335 149 q 339 150 336 150 q 341 150 340 150 q 342 151 342 150 q 342 156 342 153 m 883 156 l 883 161 l 890 161 l 890 150 l 901 150 l 901 142 l 894 142 q 888 142 889 142 q 886 140 886 142 l 889 138 l 890 138 l 890 128 q 892 115 890 118 q 897 113 893 113 q 901 113 900 113 q 903 112 903 113 q 903 108 903 111 l 903 106 l 897 106 q 891 106 893 106 q 888 108 889 106 l 883 111 l 883 142 l 881 142 q 878 142 879 142 q 878 146 878 143 q 878 149 878 149 q 881 150 879 150 q 883 150 882 150 q 883 151 883 150 q 883 156 883 153 m 1050 156 l 1050 161 l 1058 161 l 1058 150 l 1068 150 l 1068 142 l 1061 142 q 1055 142 1057 142 q 1053 140 1053 142 l 1056 138 q 1057 137 1057 138 q 1058 134 1057 136 q 1058 128 1058 132 q 1059 115 1058 118 q 1065 113 1060 113 q 1068 113 1067 113 q 1069 112 1069 113 q 1069 108 1069 111 l 1069 106 l 1064 106 q 1058 106 1060 106 q 1054 108 1056 106 l 1050 111 l 1050 142 l 1047 142 q 1045 142 1046 142 q 1044 146 1044 143 q 1045 149 1044 149 q 1047 150 1046 150 q 1049 150 1049 150 q 1050 151 1050 150 q 1050 156 1050 153 m 282 149 q 290 150 286 150 q 303 145 297 150 q 311 129 310 140 l 311 125 l 293 125 q 280 124 283 125 q 276 122 276 124 l 276 121 q 278 118 276 119 q 288 113 281 113 l 290 113 q 299 115 294 113 q 303 119 301 118 q 308 119 306 119 q 310 118 310 119 q 307 114 310 117 q 301 108 304 111 q 297 106 299 106 l 292 106 q 285 106 289 106 q 276 107 281 106 q 268 126 268 114 q 269 135 268 128 q 282 149 269 143 m 297 140 q 287 142 292 143 q 278 136 282 142 l 278 133 l 276 132 l 281 132 q 289 131 283 131 q 297 132 293 131 l 301 132 q 302 134 303 132 q 300 138 301 136 q 297 140 299 139 m 754 149 q 763 150 758 150 q 771 149 767 150 q 783 126 783 143 q 780 113 783 119 q 769 106 776 107 q 763 104 765 104 q 756 105 760 104 q 747 110 751 106 q 742 121 743 114 q 740 131 740 125 l 740 135 q 746 143 742 139 q 754 149 750 147 m 769 140 q 760 143 764 143 q 751 139 756 143 q 747 128 747 135 q 750 118 747 124 q 760 113 753 113 l 764 113 q 771 114 767 113 q 775 128 775 119 q 769 140 775 136 m 828 149 q 836 150 832 150 q 842 149 839 150 q 849 142 846 147 q 850 136 850 140 q 850 122 850 132 l 850 106 l 843 106 l 843 121 q 843 132 843 128 q 842 138 843 136 q 840 140 842 139 q 835 142 839 142 q 828 140 832 143 q 823 135 824 139 q 821 119 822 131 l 821 106 l 814 106 l 814 150 l 818 150 q 821 149 821 150 q 819 144 821 147 q 817 142 818 143 q 817 139 817 140 l 817 136 l 818 139 q 823 145 821 143 q 828 149 825 147 m 992 149 q 997 150 994 150 q 1001 150 999 150 q 1015 144 1011 150 q 1018 126 1018 139 q 1018 119 1018 121 q 1018 115 1018 117 q 1019 114 1018 114 q 1022 110 1021 113 q 1022 107 1022 108 q 1019 106 1021 106 q 1013 113 1015 106 l 1010 117 l 1010 114 q 1006 106 1008 108 q 996 104 1003 104 q 985 108 989 104 q 982 115 982 111 q 982 120 982 117 q 989 128 982 124 q 994 130 990 129 q 1001 132 997 131 q 1007 133 1004 132 l 1010 133 l 1010 135 q 1008 138 1010 136 q 1003 142 1007 140 q 996 142 1000 143 q 990 138 992 142 q 988 136 989 136 q 985 136 988 136 q 982 138 982 136 l 983 142 q 987 146 985 144 q 992 149 989 147 m 1010 124 q 1008 126 1010 126 q 1003 125 1007 126 l 1001 125 q 994 122 997 124 q 991 120 992 121 q 990 119 990 119 q 989 117 989 118 q 997 111 989 111 q 1006 115 1001 111 q 1010 124 1010 119 m 493 132 l 493 150 l 501 150 l 501 133 q 501 122 501 125 q 502 117 501 118 q 503 114 503 115 q 508 113 506 113 q 515 113 511 113 q 521 118 518 114 q 522 124 522 121 q 522 136 522 128 l 524 150 l 531 150 l 531 132 q 531 123 531 126 q 531 117 531 119 q 531 115 531 115 q 533 114 532 114 q 535 110 535 113 q 535 107 535 108 q 533 106 535 106 q 528 108 531 106 q 524 114 525 110 q 522 115 522 115 q 521 111 522 114 q 517 106 519 107 q 510 104 515 104 q 494 111 500 104 q 494 118 494 114 q 493 132 493 122 m 196 49 q 199 49 197 49 q 204 50 201 50 l 210 49 l 210 40 l 204 40 q 198 40 200 40 q 194 38 196 39 q 192 33 193 35 q 192 29 192 32 l 192 25 l 204 25 l 204 15 l 194 15 q 188 15 190 15 q 185 14 185 15 l 188 11 l 192 8 l 192 -28 l 182 -28 l 182 15 l 178 15 q 176 15 176 15 q 175 17 175 15 q 175 19 175 18 q 176 24 175 22 q 178 25 176 25 q 180 25 179 25 q 181 26 181 25 q 182 31 182 28 q 196 49 183 46 m 575 36 l 575 50 l 585 50 l 585 17 q 585 1 585 7 q 585 -10 585 -6 q 586 -15 585 -14 l 586 -17 q 589 -18 588 -18 q 590 -19 590 -18 q 590 -24 590 -21 l 590 -26 l 589 -28 q 584 -26 588 -28 q 579 -22 581 -25 l 576 -19 l 572 -24 q 557 -29 565 -29 q 549 -28 553 -29 q 536 -11 539 -22 q 535 -3 535 -7 q 538 11 535 3 q 550 24 540 19 q 553 26 551 25 q 557 26 556 26 q 567 24 561 26 q 575 17 572 21 l 579 13 l 581 13 q 578 18 581 14 q 576 22 576 19 q 576 27 576 24 q 575 36 575 31 m 568 13 q 560 16 565 15 q 551 14 556 17 q 544 -4 544 8 q 547 -10 546 -7 q 547 -14 547 -12 q 557 -19 551 -18 l 560 -19 q 568 -17 564 -19 q 575 -1 575 -11 q 568 13 575 7 m 626 50 l 631 50 l 635 49 l 636 44 l 636 39 l 626 39 l 626 50 m 397 39 l 407 39 l 407 25 l 419 25 l 419 15 l 404 15 l 401 14 q 403 13 401 13 l 403 11 l 404 11 l 406 10 l 407 7 l 407 -4 q 408 -17 407 -15 q 410 -18 408 -18 q 415 -18 413 -18 l 419 -18 l 419 -28 l 414 -28 q 404 -26 407 -28 q 400 -22 401 -25 q 398 -15 399 -19 q 397 -1 397 -10 l 397 15 l 394 15 q 392 15 393 15 q 391 17 392 15 q 390 19 390 18 q 391 24 390 22 q 392 25 392 25 q 394 25 393 25 l 397 25 l 397 39 m 1051 39 l 1061 39 l 1061 25 l 1072 25 l 1072 15 l 1056 15 l 1056 14 l 1058 11 q 1060 8 1060 10 q 1060 4 1060 7 q 1061 -4 1061 1 l 1061 -18 l 1074 -18 l 1074 -29 l 1067 -28 q 1059 -27 1061 -28 q 1056 -24 1057 -26 l 1051 -21 l 1051 15 l 1047 15 q 1045 15 1046 15 q 1044 17 1044 15 q 1044 19 1044 18 q 1044 24 1044 22 q 1045 25 1044 25 q 1047 25 1046 25 l 1051 25 l 1051 39 m 249 25 l 254 26 q 263 25 258 26 q 271 19 267 24 l 274 17 l 274 21 q 274 24 274 24 q 278 25 275 25 l 282 25 l 282 -7 q 282 -26 282 -19 q 282 -35 282 -32 q 281 -40 282 -39 q 279 -43 281 -42 q 277 -46 279 -44 q 274 -49 275 -47 q 270 -51 272 -50 q 265 -51 268 -51 q 254 -51 261 -51 l 239 -51 l 239 -43 l 251 -43 q 261 -42 257 -43 q 267 -42 265 -42 q 274 -29 274 -37 q 274 -26 274 -28 q 276 -22 275 -24 q 278 -17 278 -18 q 274 -19 276 -17 q 261 -28 268 -25 q 254 -29 258 -29 q 247 -28 251 -29 q 240 -22 243 -26 q 235 -12 236 -17 q 233 -1 233 -8 q 235 8 233 4 q 240 18 236 14 q 249 25 243 22 m 265 14 q 259 16 264 15 q 251 15 254 17 q 243 4 244 13 l 243 0 q 246 -14 243 -7 q 256 -19 250 -19 q 261 -19 257 -19 q 271 -11 265 -19 q 272 -3 272 -7 q 272 3 272 -1 q 265 14 271 8 m 331 25 l 342 25 q 358 15 354 25 q 360 10 361 11 q 356 8 360 8 q 350 10 350 8 q 347 15 350 13 q 340 17 343 17 q 331 13 333 17 q 329 10 329 11 q 332 7 329 8 q 337 5 333 6 q 344 3 340 4 q 358 -3 354 0 q 361 -12 361 -7 q 361 -17 361 -15 q 358 -22 361 -19 q 342 -29 351 -29 q 332 -28 339 -29 q 319 -18 325 -28 q 318 -11 318 -12 q 322 -10 318 -10 q 327 -10 326 -10 q 328 -12 328 -11 l 329 -14 q 332 -17 329 -15 q 334 -19 333 -18 q 337 -19 335 -19 q 342 -19 339 -19 q 348 -19 346 -19 q 350 -17 350 -18 q 352 -15 351 -15 q 353 -12 353 -14 q 338 -6 353 -10 q 330 -3 333 -4 q 325 0 326 -1 q 321 5 322 1 q 319 13 319 8 q 324 20 321 17 q 331 25 328 24 m 689 25 l 694 25 q 706 23 700 25 q 718 14 713 21 q 720 7 719 10 q 721 0 721 4 l 721 -4 q 713 -24 721 -17 q 697 -29 706 -29 q 685 -26 693 -29 q 672 -10 676 -24 q 671 1 671 -4 q 674 11 671 7 q 681 19 676 15 q 689 25 685 24 m 703 15 l 697 17 q 692 15 696 17 q 683 10 688 14 q 681 1 681 6 q 681 -8 681 -4 q 694 -19 685 -18 l 697 -19 q 710 -12 706 -19 q 713 -1 713 -7 q 711 6 713 1 q 703 15 710 11 m 768 24 q 778 26 774 26 q 786 24 782 26 q 793 19 790 22 q 796 14 796 15 q 797 12 796 13 q 797 10 797 11 q 793 8 796 8 q 789 9 790 8 q 788 11 788 10 q 781 15 786 14 l 775 17 q 769 15 774 17 q 765 10 765 14 q 767 8 765 8 q 772 6 768 7 q 783 1 775 4 q 793 -2 790 0 q 797 -8 796 -4 q 799 -14 799 -11 q 793 -24 799 -19 q 776 -29 788 -29 q 762 -24 768 -29 q 756 -12 756 -19 q 756 -10 756 -11 q 760 -10 757 -10 q 764 -10 763 -10 q 765 -12 765 -11 q 778 -19 767 -19 q 789 -14 786 -19 q 787 -10 789 -11 q 779 -7 785 -8 q 765 -2 769 -4 q 758 3 761 0 q 757 7 757 4 l 757 11 q 768 24 757 21 m 901 22 q 906 25 904 24 q 910 26 908 26 q 921 22 915 26 q 928 13 926 18 q 928 5 928 11 q 929 -10 929 -1 l 929 -28 l 919 -28 l 919 -12 q 919 6 919 0 q 915 14 918 13 q 910 15 913 15 q 903 15 907 15 q 897 8 900 14 q 895 5 896 7 q 894 -1 894 3 q 894 -11 894 -4 l 893 -28 l 885 -28 l 885 25 l 889 25 q 893 24 892 25 q 894 22 894 24 l 893 21 q 892 18 892 19 q 889 13 889 15 l 889 11 l 892 15 q 901 22 896 19 m 983 25 l 989 26 q 998 25 993 26 q 1007 18 1003 24 q 1013 11 1011 15 q 1015 1 1014 7 l 1015 -6 l 975 -6 l 974 -7 q 976 -12 974 -10 q 982 -18 979 -15 q 989 -19 985 -19 q 994 -19 990 -19 q 1003 -14 999 -18 q 1004 -12 1003 -12 q 1008 -11 1006 -11 q 1013 -12 1013 -11 q 1011 -18 1014 -14 q 997 -28 1006 -25 q 989 -29 993 -29 q 981 -28 985 -29 q 964 -1 964 -21 q 983 25 965 19 m 997 14 q 990 16 994 15 q 983 15 986 17 q 978 11 981 14 q 975 6 975 8 l 974 3 l 989 3 q 999 3 996 3 q 1003 3 1003 3 q 1004 6 1004 4 q 1002 10 1004 7 q 997 14 1000 13 m 454 6 l 454 25 l 463 25 l 463 6 q 463 -6 463 -1 q 463 -12 463 -10 q 464 -15 464 -14 q 465 -17 464 -15 q 474 -19 468 -19 q 478 -19 475 -19 q 485 -12 482 -18 q 487 -9 486 -11 q 488 -3 488 -7 q 488 8 488 1 l 489 25 l 497 25 l 497 -15 l 500 -17 q 502 -19 501 -18 q 503 -24 503 -21 q 501 -28 503 -28 q 495 -26 499 -28 q 490 -19 492 -24 q 488 -17 489 -17 q 486 -24 486 -18 q 481 -28 485 -26 q 471 -29 476 -29 q 461 -26 465 -29 q 458 -24 460 -25 q 456 -19 457 -22 q 455 -15 456 -18 q 454 -8 454 -12 q 454 6 454 -4 m 626 25 l 631 25 l 635 24 l 636 -1 l 636 -28 l 626 -28 l 626 25 m 836 -17 q 838 -15 836 -15 q 842 -15 840 -15 l 847 -15 l 847 -28 l 835 -28 l 835 -22 q 836 -18 835 -19 l 836 -17 z "},"5":{"ha":1250,"x_min":83,"x_max":1167,"o":"m 328 1032 q 420 1033 335 1032 q 631 1033 506 1033 l 926 1033 l 942 1031 q 1063 978 1008 1018 q 1085 956 1071 969 q 1107 932 1099 943 q 1160 826 1146 885 q 1161 822 1161 824 q 1164 807 1163 814 q 1166 787 1165 800 q 1167 748 1167 774 q 1167 676 1167 722 l 1167 651 q 1167 563 1167 596 q 1167 514 1167 531 q 1165 489 1167 497 q 1163 472 1164 481 q 1085 332 1146 390 q 940 258 1026 274 l 924 256 l 632 256 q 486 254 543 254 q 397 255 429 254 q 347 256 364 256 q 323 256 331 256 q 307 258 315 257 l 307 260 q 147 351 211 276 q 86 482 100 407 l 83 499 l 83 788 l 86 803 q 163 954 100 892 q 328 1032 231 1021 m 699 774 q 683 776 690 776 q 660 771 674 776 q 638 747 647 765 q 635 742 636 744 q 635 736 635 739 q 635 726 635 733 q 635 717 635 721 q 635 712 635 714 q 638 707 636 710 q 660 685 646 692 q 682 679 671 679 l 690 679 q 725 703 714 683 q 732 728 732 715 q 729 744 732 736 q 717 762 725 754 q 699 774 708 769 m 854 776 l 829 776 l 829 754 l 828 733 l 815 754 l 801 775 l 775 775 l 775 679 l 803 679 l 803 722 l 817 701 l 831 679 l 854 679 l 854 776 m 228 774 q 222 774 225 774 q 215 775 219 775 q 200 775 210 775 l 179 775 l 179 679 l 206 679 l 206 710 l 215 711 q 224 712 221 711 q 231 714 228 713 q 249 742 249 724 l 249 744 q 228 774 246 765 m 353 775 l 290 775 l 290 679 l 353 679 l 353 704 l 318 704 l 318 714 l 349 714 l 349 739 l 318 739 l 318 749 l 353 749 l 353 775 m 454 771 l 449 775 l 400 775 l 400 679 l 426 679 l 426 694 q 426 706 426 703 q 428 710 426 710 q 432 706 429 710 q 439 694 435 701 l 449 679 l 479 679 l 476 685 q 468 697 472 690 l 457 714 l 461 718 q 465 723 463 721 q 468 728 467 725 q 471 733 471 731 q 471 742 471 736 q 471 751 471 747 q 469 756 471 754 q 454 771 464 765 m 567 774 q 553 775 561 775 q 538 772 543 775 q 515 749 517 765 q 516 738 515 742 q 521 729 517 733 q 549 717 528 721 q 560 714 557 715 q 565 710 564 713 q 565 708 565 708 q 564 706 565 707 q 557 704 561 704 q 551 704 556 704 q 543 708 546 704 l 540 711 l 533 710 l 532 710 q 526 708 529 708 q 521 707 522 707 q 515 704 515 706 l 515 703 q 517 697 515 701 q 542 679 524 683 q 553 678 547 678 q 576 683 564 678 q 592 706 592 690 l 592 711 q 558 739 592 733 q 543 746 543 742 q 544 749 543 747 q 553 751 547 751 q 561 747 558 751 l 564 744 l 578 747 q 585 749 582 749 q 588 749 588 749 q 590 751 589 750 q 589 753 590 751 q 581 765 588 760 q 567 774 575 771 m 957 768 l 954 775 l 925 775 l 910 728 q 899 694 904 708 q 894 679 894 681 l 922 679 l 925 690 l 940 689 l 954 689 l 956 683 l 957 679 l 971 679 q 982 679 979 679 q 985 681 985 679 l 982 688 q 971 722 978 700 q 963 749 967 736 q 957 767 958 761 l 957 768 m 1050 775 l 1024 775 l 1024 679 l 1079 679 l 1079 704 l 1050 704 l 1050 775 m 685 607 q 675 608 679 608 q 643 596 657 608 q 626 561 626 579 q 628 542 626 557 q 654 515 631 528 q 660 512 658 513 q 666 511 663 511 q 676 511 669 511 q 685 511 682 511 q 691 512 689 511 q 697 515 693 513 q 711 525 704 518 q 721 538 718 532 q 726 560 726 549 q 725 568 726 564 q 710 594 721 583 q 685 607 699 604 m 849 608 l 835 608 q 822 607 822 608 q 821 600 821 606 q 821 586 821 594 l 821 567 l 808 586 l 794 607 l 769 607 l 769 511 l 796 511 l 796 532 l 797 554 l 811 532 l 824 511 l 849 511 l 849 608 m 231 578 l 231 607 l 204 607 l 204 538 l 208 532 q 217 520 211 525 q 229 513 222 515 q 243 511 235 511 q 258 513 251 511 q 272 522 265 515 q 279 535 278 528 q 281 541 281 538 q 282 551 282 544 q 282 574 282 558 l 282 607 l 256 607 l 256 578 q 256 553 256 561 q 254 543 256 546 q 250 538 253 540 q 243 536 246 536 q 235 539 239 536 q 232 544 233 540 q 231 554 231 547 q 231 578 231 561 m 381 606 q 367 607 375 607 q 350 606 357 607 q 340 600 344 604 q 332 592 335 596 q 328 588 329 590 q 328 581 328 585 q 329 569 328 572 q 335 561 331 565 q 345 554 339 557 q 363 549 351 551 q 378 542 378 546 q 374 536 378 538 l 368 536 q 363 536 367 536 q 356 540 358 536 l 353 543 l 340 540 q 331 538 335 539 q 326 538 328 538 q 327 534 326 536 q 330 528 328 532 q 333 522 332 525 q 363 511 343 511 l 367 511 q 400 525 390 511 q 403 531 403 528 q 404 536 404 533 l 404 540 q 375 571 404 564 q 358 576 361 574 q 356 579 356 578 q 357 582 356 581 q 360 583 358 583 q 365 583 363 583 q 371 583 369 583 q 374 579 372 582 l 376 576 l 389 579 q 399 582 394 581 l 401 582 q 402 585 403 583 q 400 589 401 586 q 381 606 393 601 m 511 607 l 449 607 l 449 511 l 511 511 l 511 536 l 476 536 l 476 546 l 507 546 l 507 571 l 476 571 l 476 582 l 511 582 l 511 607 m 922 607 l 896 607 l 896 511 l 951 511 l 951 536 l 922 536 l 922 607 m 1001 594 l 994 607 l 963 607 l 965 604 q 971 594 967 601 q 982 576 975 586 l 996 551 l 996 511 l 1022 511 l 1022 551 l 1036 576 q 1048 595 1043 588 q 1053 604 1053 603 l 1054 607 l 1024 607 l 1017 594 q 1012 585 1014 589 q 1008 582 1010 582 l 1007 586 q 1001 594 1004 589 m 674 749 q 683 750 679 750 q 699 743 692 750 q 704 728 704 736 q 703 717 704 722 q 683 704 696 704 q 674 705 682 704 q 661 721 667 706 l 661 725 q 664 738 661 732 q 674 749 667 744 m 206 749 l 213 749 q 219 748 218 749 q 221 743 221 747 q 219 738 221 739 q 213 735 217 736 l 206 735 l 206 749 m 426 749 l 435 749 q 443 748 442 749 q 444 742 444 747 q 433 735 444 735 l 426 735 l 426 749 m 938 729 q 939 736 938 733 l 940 738 l 942 732 q 943 726 943 729 l 947 714 l 933 714 l 933 718 l 935 721 q 936 728 935 724 q 938 729 936 729 m 667 581 q 676 583 672 583 q 688 579 682 583 q 697 565 694 575 q 699 558 699 561 q 692 543 699 550 q 675 536 686 536 q 657 547 664 536 q 654 558 654 553 q 656 569 654 563 q 667 581 658 576 m 194 169 q 206 171 200 171 q 215 170 210 171 q 226 165 221 169 q 231 161 229 164 q 235 156 233 158 q 236 151 236 153 q 232 150 235 150 q 229 151 231 150 q 226 154 228 151 q 209 163 221 163 q 190 156 197 164 q 183 139 183 150 l 183 135 q 193 115 185 121 q 206 111 199 111 q 214 113 210 111 q 225 120 221 115 q 229 129 229 125 l 229 132 l 210 132 l 210 140 l 236 140 l 236 106 l 233 106 q 229 107 229 106 q 232 114 229 108 q 233 118 233 117 l 232 118 l 228 114 q 207 104 221 104 q 179 121 189 104 q 177 125 178 124 q 176 129 176 126 q 176 138 176 132 q 176 146 176 143 q 177 150 176 149 q 179 154 178 151 q 194 169 185 165 m 451 168 q 461 171 454 171 l 468 171 l 468 163 l 463 163 q 457 162 458 163 q 454 160 456 161 q 453 156 454 158 q 453 153 453 154 l 453 150 l 464 150 l 464 142 l 457 142 q 451 142 453 142 q 447 140 449 142 l 450 138 q 452 135 451 136 q 453 131 453 133 q 453 119 453 128 l 453 106 l 444 106 l 444 142 l 442 142 q 440 142 440 142 q 439 146 439 143 q 440 149 439 149 q 442 150 440 150 q 444 151 444 150 q 444 154 444 151 q 451 168 444 163 m 565 171 l 574 171 l 574 106 l 565 106 l 565 171 m 604 171 l 613 171 l 613 106 l 604 106 l 604 171 m 704 168 q 713 171 707 171 l 719 171 l 719 163 l 714 163 q 709 162 711 163 q 707 160 707 161 q 705 156 706 158 q 704 153 704 154 l 704 150 l 717 150 l 717 142 l 708 142 q 702 142 704 142 q 700 140 700 142 q 699 140 699 140 q 701 138 700 139 q 703 135 703 136 q 704 131 704 133 q 704 119 704 128 l 704 106 l 696 106 l 696 142 l 694 142 q 692 142 692 142 q 692 146 692 143 q 692 149 692 149 q 694 150 692 150 q 696 151 696 150 q 696 154 696 151 q 704 168 696 163 m 342 156 l 342 161 l 350 161 l 350 150 l 360 150 l 360 142 l 353 142 q 344 140 344 142 q 347 138 344 139 q 349 136 349 138 q 349 133 349 135 q 350 125 350 131 l 350 114 l 356 113 l 361 113 l 361 106 l 354 106 q 349 106 350 106 q 344 108 347 106 l 342 111 l 342 142 l 339 142 q 335 142 336 142 q 335 146 335 143 q 335 149 335 149 q 339 150 336 150 q 341 150 340 150 q 342 151 342 150 q 342 156 342 153 m 883 156 l 883 161 l 890 161 l 890 150 l 901 150 l 901 142 l 894 142 q 888 142 889 142 q 886 140 886 142 l 889 138 l 890 138 l 890 128 q 892 115 890 118 q 897 113 893 113 q 901 113 900 113 q 903 112 903 113 q 903 108 903 111 l 903 106 l 897 106 q 891 106 893 106 q 888 108 889 106 l 883 111 l 883 142 l 881 142 q 878 142 879 142 q 878 146 878 143 q 878 149 878 149 q 881 150 879 150 q 883 150 882 150 q 883 151 883 150 q 883 156 883 153 m 1050 156 l 1050 161 l 1058 161 l 1058 150 l 1068 150 l 1068 142 l 1061 142 q 1055 142 1057 142 q 1053 140 1053 142 l 1056 138 q 1057 137 1057 138 q 1058 134 1057 136 q 1058 128 1058 132 q 1059 115 1058 118 q 1065 113 1060 113 q 1068 113 1067 113 q 1069 112 1069 113 q 1069 108 1069 111 l 1069 106 l 1064 106 q 1058 106 1060 106 q 1054 108 1056 106 l 1050 111 l 1050 142 l 1047 142 q 1045 142 1046 142 q 1044 146 1044 143 q 1045 149 1044 149 q 1047 150 1046 150 q 1049 150 1049 150 q 1050 151 1050 150 q 1050 156 1050 153 m 282 149 q 290 150 286 150 q 303 145 297 150 q 311 129 310 140 l 311 125 l 293 125 q 280 124 283 125 q 276 122 276 124 l 276 121 q 278 118 276 119 q 288 113 281 113 l 290 113 q 299 115 294 113 q 303 119 301 118 q 308 119 306 119 q 310 118 310 119 q 307 114 310 117 q 301 108 304 111 q 297 106 299 106 l 292 106 q 285 106 289 106 q 276 107 281 106 q 268 126 268 114 q 269 135 268 128 q 282 149 269 143 m 297 140 q 287 142 292 143 q 278 136 282 142 l 278 133 l 276 132 l 281 132 q 289 131 283 131 q 297 132 293 131 l 301 132 q 302 134 303 132 q 300 138 301 136 q 297 140 299 139 m 754 149 q 763 150 758 150 q 771 149 767 150 q 783 126 783 143 q 780 113 783 119 q 769 106 776 107 q 763 104 765 104 q 756 105 760 104 q 747 110 751 106 q 742 121 743 114 q 740 131 740 125 l 740 135 q 746 143 742 139 q 754 149 750 147 m 769 140 q 760 143 764 143 q 751 139 756 143 q 747 128 747 135 q 750 118 747 124 q 760 113 753 113 l 764 113 q 771 114 767 113 q 775 128 775 119 q 769 140 775 136 m 828 149 q 836 150 832 150 q 842 149 839 150 q 849 142 846 147 q 850 136 850 140 q 850 122 850 132 l 850 106 l 843 106 l 843 121 q 843 132 843 128 q 842 138 843 136 q 840 140 842 139 q 835 142 839 142 q 828 140 832 143 q 823 135 824 139 q 821 119 822 131 l 821 106 l 814 106 l 814 150 l 818 150 q 821 149 821 150 q 819 144 821 147 q 817 142 818 143 q 817 139 817 140 l 817 136 l 818 139 q 823 145 821 143 q 828 149 825 147 m 992 149 q 997 150 994 150 q 1001 150 999 150 q 1015 144 1011 150 q 1018 126 1018 139 q 1018 119 1018 121 q 1018 115 1018 117 q 1019 114 1018 114 q 1022 110 1021 113 q 1022 107 1022 108 q 1019 106 1021 106 q 1013 113 1015 106 l 1010 117 l 1010 114 q 1006 106 1008 108 q 996 104 1003 104 q 985 108 989 104 q 982 115 982 111 q 982 120 982 117 q 989 128 982 124 q 994 130 990 129 q 1001 132 997 131 q 1007 133 1004 132 l 1010 133 l 1010 135 q 1008 138 1010 136 q 1003 142 1007 140 q 996 142 1000 143 q 990 138 992 142 q 988 136 989 136 q 985 136 988 136 q 982 138 982 136 l 983 142 q 987 146 985 144 q 992 149 989 147 m 1010 124 q 1008 126 1010 126 q 1003 125 1007 126 l 1001 125 q 994 122 997 124 q 991 120 992 121 q 990 119 990 119 q 989 117 989 118 q 997 111 989 111 q 1006 115 1001 111 q 1010 124 1010 119 m 493 132 l 493 150 l 501 150 l 501 133 q 501 122 501 125 q 502 117 501 118 q 503 114 503 115 q 508 113 506 113 q 515 113 511 113 q 521 118 518 114 q 522 124 522 121 q 522 136 522 128 l 524 150 l 531 150 l 531 132 q 531 123 531 126 q 531 117 531 119 q 531 115 531 115 q 533 114 532 114 q 535 110 535 113 q 535 107 535 108 q 533 106 535 106 q 528 108 531 106 q 524 114 525 110 q 522 115 522 115 q 521 111 522 114 q 517 106 519 107 q 510 104 515 104 q 494 111 500 104 q 494 118 494 114 q 493 132 493 122 m 196 49 q 199 49 197 49 q 204 50 201 50 l 210 49 l 210 40 l 204 40 q 198 40 200 40 q 194 38 196 39 q 192 33 193 35 q 192 29 192 32 l 192 25 l 204 25 l 204 15 l 194 15 q 188 15 190 15 q 185 14 185 15 l 188 11 l 192 8 l 192 -28 l 182 -28 l 182 15 l 178 15 q 176 15 176 15 q 175 17 175 15 q 175 19 175 18 q 176 24 175 22 q 178 25 176 25 q 180 25 179 25 q 181 26 181 25 q 182 31 182 28 q 196 49 183 46 m 575 36 l 575 50 l 585 50 l 585 17 q 585 1 585 7 q 585 -10 585 -6 q 586 -15 585 -14 l 586 -17 q 589 -18 588 -18 q 590 -19 590 -18 q 590 -24 590 -21 l 590 -26 l 589 -28 q 584 -26 588 -28 q 579 -22 581 -25 l 576 -19 l 572 -24 q 557 -29 565 -29 q 549 -28 553 -29 q 536 -11 539 -22 q 535 -3 535 -7 q 538 11 535 3 q 550 24 540 19 q 553 26 551 25 q 557 26 556 26 q 567 24 561 26 q 575 17 572 21 l 579 13 l 581 13 q 578 18 581 14 q 576 22 576 19 q 576 27 576 24 q 575 36 575 31 m 568 13 q 560 16 565 15 q 551 14 556 17 q 544 -4 544 8 q 547 -10 546 -7 q 547 -14 547 -12 q 557 -19 551 -18 l 560 -19 q 568 -17 564 -19 q 575 -1 575 -11 q 568 13 575 7 m 626 50 l 631 50 l 635 49 l 636 44 l 636 39 l 626 39 l 626 50 m 397 39 l 407 39 l 407 25 l 419 25 l 419 15 l 404 15 l 401 14 q 403 13 401 13 l 403 11 l 404 11 l 406 10 l 407 7 l 407 -4 q 408 -17 407 -15 q 410 -18 408 -18 q 415 -18 413 -18 l 419 -18 l 419 -28 l 414 -28 q 404 -26 407 -28 q 400 -22 401 -25 q 398 -15 399 -19 q 397 -1 397 -10 l 397 15 l 394 15 q 392 15 393 15 q 391 17 392 15 q 390 19 390 18 q 391 24 390 22 q 392 25 392 25 q 394 25 393 25 l 397 25 l 397 39 m 1051 39 l 1061 39 l 1061 25 l 1072 25 l 1072 15 l 1056 15 l 1056 14 l 1058 11 q 1060 8 1060 10 q 1060 4 1060 7 q 1061 -4 1061 1 l 1061 -18 l 1074 -18 l 1074 -29 l 1067 -28 q 1059 -27 1061 -28 q 1056 -24 1057 -26 l 1051 -21 l 1051 15 l 1047 15 q 1045 15 1046 15 q 1044 17 1044 15 q 1044 19 1044 18 q 1044 24 1044 22 q 1045 25 1044 25 q 1047 25 1046 25 l 1051 25 l 1051 39 m 249 25 l 254 26 q 263 25 258 26 q 271 19 267 24 l 274 17 l 274 21 q 274 24 274 24 q 278 25 275 25 l 282 25 l 282 -7 q 282 -26 282 -19 q 282 -35 282 -32 q 281 -40 282 -39 q 279 -43 281 -42 q 277 -46 279 -44 q 274 -49 275 -47 q 270 -51 272 -50 q 265 -51 268 -51 q 254 -51 261 -51 l 239 -51 l 239 -43 l 251 -43 q 261 -42 257 -43 q 267 -42 265 -42 q 274 -29 274 -37 q 274 -26 274 -28 q 276 -22 275 -24 q 278 -17 278 -18 q 274 -19 276 -17 q 261 -28 268 -25 q 254 -29 258 -29 q 247 -28 251 -29 q 240 -22 243 -26 q 235 -12 236 -17 q 233 -1 233 -8 q 235 8 233 4 q 240 18 236 14 q 249 25 243 22 m 265 14 q 259 16 264 15 q 251 15 254 17 q 243 4 244 13 l 243 0 q 246 -14 243 -7 q 256 -19 250 -19 q 261 -19 257 -19 q 271 -11 265 -19 q 272 -3 272 -7 q 272 3 272 -1 q 265 14 271 8 m 331 25 l 342 25 q 358 15 354 25 q 360 10 361 11 q 356 8 360 8 q 350 10 350 8 q 347 15 350 13 q 340 17 343 17 q 331 13 333 17 q 329 10 329 11 q 332 7 329 8 q 337 5 333 6 q 344 3 340 4 q 358 -3 354 0 q 361 -12 361 -7 q 361 -17 361 -15 q 358 -22 361 -19 q 342 -29 351 -29 q 332 -28 339 -29 q 319 -18 325 -28 q 318 -11 318 -12 q 322 -10 318 -10 q 327 -10 326 -10 q 328 -12 328 -11 l 329 -14 q 332 -17 329 -15 q 334 -19 333 -18 q 337 -19 335 -19 q 342 -19 339 -19 q 348 -19 346 -19 q 350 -17 350 -18 q 352 -15 351 -15 q 353 -12 353 -14 q 338 -6 353 -10 q 330 -3 333 -4 q 325 0 326 -1 q 321 5 322 1 q 319 13 319 8 q 324 20 321 17 q 331 25 328 24 m 689 25 l 694 25 q 706 23 700 25 q 718 14 713 21 q 720 7 719 10 q 721 0 721 4 l 721 -4 q 713 -24 721 -17 q 697 -29 706 -29 q 685 -26 693 -29 q 672 -10 676 -24 q 671 1 671 -4 q 674 11 671 7 q 681 19 676 15 q 689 25 685 24 m 703 15 l 697 17 q 692 15 696 17 q 683 10 688 14 q 681 1 681 6 q 681 -8 681 -4 q 694 -19 685 -18 l 697 -19 q 710 -12 706 -19 q 713 -1 713 -7 q 711 6 713 1 q 703 15 710 11 m 768 24 q 778 26 774 26 q 786 24 782 26 q 793 19 790 22 q 796 14 796 15 q 797 12 796 13 q 797 10 797 11 q 793 8 796 8 q 789 9 790 8 q 788 11 788 10 q 781 15 786 14 l 775 17 q 769 15 774 17 q 765 10 765 14 q 767 8 765 8 q 772 6 768 7 q 783 1 775 4 q 793 -2 790 0 q 797 -8 796 -4 q 799 -14 799 -11 q 793 -24 799 -19 q 776 -29 788 -29 q 762 -24 768 -29 q 756 -12 756 -19 q 756 -10 756 -11 q 760 -10 757 -10 q 764 -10 763 -10 q 765 -12 765 -11 q 778 -19 767 -19 q 789 -14 786 -19 q 787 -10 789 -11 q 779 -7 785 -8 q 765 -2 769 -4 q 758 3 761 0 q 757 7 757 4 l 757 11 q 768 24 757 21 m 901 22 q 906 25 904 24 q 910 26 908 26 q 921 22 915 26 q 928 13 926 18 q 928 5 928 11 q 929 -10 929 -1 l 929 -28 l 919 -28 l 919 -12 q 919 6 919 0 q 915 14 918 13 q 910 15 913 15 q 903 15 907 15 q 897 8 900 14 q 895 5 896 7 q 894 -1 894 3 q 894 -11 894 -4 l 893 -28 l 885 -28 l 885 25 l 889 25 q 893 24 892 25 q 894 22 894 24 l 893 21 q 892 18 892 19 q 889 13 889 15 l 889 11 l 892 15 q 901 22 896 19 m 983 25 l 989 26 q 998 25 993 26 q 1007 18 1003 24 q 1013 11 1011 15 q 1015 1 1014 7 l 1015 -6 l 975 -6 l 974 -7 q 976 -12 974 -10 q 982 -18 979 -15 q 989 -19 985 -19 q 994 -19 990 -19 q 1003 -14 999 -18 q 1004 -12 1003 -12 q 1008 -11 1006 -11 q 1013 -12 1013 -11 q 1011 -18 1014 -14 q 997 -28 1006 -25 q 989 -29 993 -29 q 981 -28 985 -29 q 964 -1 964 -21 q 983 25 965 19 m 997 14 q 990 16 994 15 q 983 15 986 17 q 978 11 981 14 q 975 6 975 8 l 974 3 l 989 3 q 999 3 996 3 q 1003 3 1003 3 q 1004 6 1004 4 q 1002 10 1004 7 q 997 14 1000 13 m 454 6 l 454 25 l 463 25 l 463 6 q 463 -6 463 -1 q 463 -12 463 -10 q 464 -15 464 -14 q 465 -17 464 -15 q 474 -19 468 -19 q 478 -19 475 -19 q 485 -12 482 -18 q 487 -9 486 -11 q 488 -3 488 -7 q 488 8 488 1 l 489 25 l 497 25 l 497 -15 l 500 -17 q 502 -19 501 -18 q 503 -24 503 -21 q 501 -28 503 -28 q 495 -26 499 -28 q 490 -19 492 -24 q 488 -17 489 -17 q 486 -24 486 -18 q 481 -28 485 -26 q 471 -29 476 -29 q 461 -26 465 -29 q 458 -24 460 -25 q 456 -19 457 -22 q 455 -15 456 -18 q 454 -8 454 -12 q 454 6 454 -4 m 626 25 l 631 25 l 635 24 l 636 -1 l 636 -28 l 626 -28 l 626 25 m 836 -17 q 838 -15 836 -15 q 842 -15 840 -15 l 847 -15 l 847 -28 l 835 -28 l 835 -22 q 836 -18 835 -19 l 836 -17 z "},"6":{"ha":1250,"x_min":83,"x_max":1167,"o":"m 328 1032 q 420 1033 335 1032 q 631 1033 506 1033 l 926 1033 l 942 1031 q 1063 978 1008 1018 q 1085 956 1071 969 q 1107 932 1099 943 q 1160 826 1146 885 q 1161 822 1161 824 q 1164 807 1163 814 q 1166 787 1165 800 q 1167 748 1167 774 q 1167 676 1167 722 l 1167 651 q 1167 563 1167 596 q 1167 514 1167 531 q 1165 489 1167 497 q 1163 472 1164 481 q 1085 332 1146 390 q 940 258 1026 274 l 924 256 l 632 256 q 486 254 543 254 q 397 255 429 254 q 347 256 364 256 q 323 256 331 256 q 307 258 315 257 l 307 260 q 147 351 211 276 q 86 482 100 407 l 83 499 l 83 788 l 86 803 q 163 954 100 892 q 328 1032 231 1021 m 699 774 q 683 776 690 776 q 660 771 674 776 q 638 747 647 765 q 635 742 636 744 q 635 736 635 739 q 635 726 635 733 q 635 717 635 721 q 635 712 635 714 q 638 707 636 710 q 660 685 646 692 q 682 679 671 679 l 690 679 q 725 703 714 683 q 732 728 732 715 q 729 744 732 736 q 717 762 725 754 q 699 774 708 769 m 854 776 l 829 776 l 829 754 l 828 733 l 815 754 l 801 775 l 775 775 l 775 679 l 803 679 l 803 722 l 817 701 l 831 679 l 854 679 l 854 776 m 228 774 q 222 774 225 774 q 215 775 219 775 q 200 775 210 775 l 179 775 l 179 679 l 206 679 l 206 710 l 215 711 q 224 712 221 711 q 231 714 228 713 q 249 742 249 724 l 249 744 q 228 774 246 765 m 353 775 l 290 775 l 290 679 l 353 679 l 353 704 l 318 704 l 318 714 l 349 714 l 349 739 l 318 739 l 318 749 l 353 749 l 353 775 m 454 771 l 449 775 l 400 775 l 400 679 l 426 679 l 426 694 q 426 706 426 703 q 428 710 426 710 q 432 706 429 710 q 439 694 435 701 l 449 679 l 479 679 l 476 685 q 468 697 472 690 l 457 714 l 461 718 q 465 723 463 721 q 468 728 467 725 q 471 733 471 731 q 471 742 471 736 q 471 751 471 747 q 469 756 471 754 q 454 771 464 765 m 567 774 q 553 775 561 775 q 538 772 543 775 q 515 749 517 765 q 516 738 515 742 q 521 729 517 733 q 549 717 528 721 q 560 714 557 715 q 565 710 564 713 q 565 708 565 708 q 564 706 565 707 q 557 704 561 704 q 551 704 556 704 q 543 708 546 704 l 540 711 l 533 710 l 532 710 q 526 708 529 708 q 521 707 522 707 q 515 704 515 706 l 515 703 q 517 697 515 701 q 542 679 524 683 q 553 678 547 678 q 576 683 564 678 q 592 706 592 690 l 592 711 q 558 739 592 733 q 543 746 543 742 q 544 749 543 747 q 553 751 547 751 q 561 747 558 751 l 564 744 l 578 747 q 585 749 582 749 q 588 749 588 749 q 590 751 589 750 q 589 753 590 751 q 581 765 588 760 q 567 774 575 771 m 957 768 l 954 775 l 925 775 l 910 728 q 899 694 904 708 q 894 679 894 681 l 922 679 l 925 690 l 940 689 l 954 689 l 956 683 l 957 679 l 971 679 q 982 679 979 679 q 985 681 985 679 l 982 688 q 971 722 978 700 q 963 749 967 736 q 957 767 958 761 l 957 768 m 1050 775 l 1024 775 l 1024 679 l 1079 679 l 1079 704 l 1050 704 l 1050 775 m 685 607 q 675 608 679 608 q 643 596 657 608 q 626 561 626 579 q 628 542 626 557 q 654 515 631 528 q 660 512 658 513 q 666 511 663 511 q 676 511 669 511 q 685 511 682 511 q 691 512 689 511 q 697 515 693 513 q 711 525 704 518 q 721 538 718 532 q 726 560 726 549 q 725 568 726 564 q 710 594 721 583 q 685 607 699 604 m 849 608 l 835 608 q 822 607 822 608 q 821 600 821 606 q 821 586 821 594 l 821 567 l 808 586 l 794 607 l 769 607 l 769 511 l 796 511 l 796 532 l 797 554 l 811 532 l 824 511 l 849 511 l 849 608 m 231 578 l 231 607 l 204 607 l 204 538 l 208 532 q 217 520 211 525 q 229 513 222 515 q 243 511 235 511 q 258 513 251 511 q 272 522 265 515 q 279 535 278 528 q 281 541 281 538 q 282 551 282 544 q 282 574 282 558 l 282 607 l 256 607 l 256 578 q 256 553 256 561 q 254 543 256 546 q 250 538 253 540 q 243 536 246 536 q 235 539 239 536 q 232 544 233 540 q 231 554 231 547 q 231 578 231 561 m 381 606 q 367 607 375 607 q 350 606 357 607 q 340 600 344 604 q 332 592 335 596 q 328 588 329 590 q 328 581 328 585 q 329 569 328 572 q 335 561 331 565 q 345 554 339 557 q 363 549 351 551 q 378 542 378 546 q 374 536 378 538 l 368 536 q 363 536 367 536 q 356 540 358 536 l 353 543 l 340 540 q 331 538 335 539 q 326 538 328 538 q 327 534 326 536 q 330 528 328 532 q 333 522 332 525 q 363 511 343 511 l 367 511 q 400 525 390 511 q 403 531 403 528 q 404 536 404 533 l 404 540 q 375 571 404 564 q 358 576 361 574 q 356 579 356 578 q 357 582 356 581 q 360 583 358 583 q 365 583 363 583 q 371 583 369 583 q 374 579 372 582 l 376 576 l 389 579 q 399 582 394 581 l 401 582 q 402 585 403 583 q 400 589 401 586 q 381 606 393 601 m 511 607 l 449 607 l 449 511 l 511 511 l 511 536 l 476 536 l 476 546 l 507 546 l 507 571 l 476 571 l 476 582 l 511 582 l 511 607 m 922 607 l 896 607 l 896 511 l 951 511 l 951 536 l 922 536 l 922 607 m 1001 594 l 994 607 l 963 607 l 965 604 q 971 594 967 601 q 982 576 975 586 l 996 551 l 996 511 l 1022 511 l 1022 551 l 1036 576 q 1048 595 1043 588 q 1053 604 1053 603 l 1054 607 l 1024 607 l 1017 594 q 1012 585 1014 589 q 1008 582 1010 582 l 1007 586 q 1001 594 1004 589 m 674 749 q 683 750 679 750 q 699 743 692 750 q 704 728 704 736 q 703 717 704 722 q 683 704 696 704 q 674 705 682 704 q 661 721 667 706 l 661 725 q 664 738 661 732 q 674 749 667 744 m 206 749 l 213 749 q 219 748 218 749 q 221 743 221 747 q 219 738 221 739 q 213 735 217 736 l 206 735 l 206 749 m 426 749 l 435 749 q 443 748 442 749 q 444 742 444 747 q 433 735 444 735 l 426 735 l 426 749 m 938 729 q 939 736 938 733 l 940 738 l 942 732 q 943 726 943 729 l 947 714 l 933 714 l 933 718 l 935 721 q 936 728 935 724 q 938 729 936 729 m 667 581 q 676 583 672 583 q 688 579 682 583 q 697 565 694 575 q 699 558 699 561 q 692 543 699 550 q 675 536 686 536 q 657 547 664 536 q 654 558 654 553 q 656 569 654 563 q 667 581 658 576 m 194 169 q 206 171 200 171 q 215 170 210 171 q 226 165 221 169 q 231 161 229 164 q 235 156 233 158 q 236 151 236 153 q 232 150 235 150 q 229 151 231 150 q 226 154 228 151 q 209 163 221 163 q 190 156 197 164 q 183 139 183 150 l 183 135 q 193 115 185 121 q 206 111 199 111 q 214 113 210 111 q 225 120 221 115 q 229 129 229 125 l 229 132 l 210 132 l 210 140 l 236 140 l 236 106 l 233 106 q 229 107 229 106 q 232 114 229 108 q 233 118 233 117 l 232 118 l 228 114 q 207 104 221 104 q 179 121 189 104 q 177 125 178 124 q 176 129 176 126 q 176 138 176 132 q 176 146 176 143 q 177 150 176 149 q 179 154 178 151 q 194 169 185 165 m 451 168 q 461 171 454 171 l 468 171 l 468 163 l 463 163 q 457 162 458 163 q 454 160 456 161 q 453 156 454 158 q 453 153 453 154 l 453 150 l 464 150 l 464 142 l 457 142 q 451 142 453 142 q 447 140 449 142 l 450 138 q 452 135 451 136 q 453 131 453 133 q 453 119 453 128 l 453 106 l 444 106 l 444 142 l 442 142 q 440 142 440 142 q 439 146 439 143 q 440 149 439 149 q 442 150 440 150 q 444 151 444 150 q 444 154 444 151 q 451 168 444 163 m 565 171 l 574 171 l 574 106 l 565 106 l 565 171 m 604 171 l 613 171 l 613 106 l 604 106 l 604 171 m 704 168 q 713 171 707 171 l 719 171 l 719 163 l 714 163 q 709 162 711 163 q 707 160 707 161 q 705 156 706 158 q 704 153 704 154 l 704 150 l 717 150 l 717 142 l 708 142 q 702 142 704 142 q 700 140 700 142 q 699 140 699 140 q 701 138 700 139 q 703 135 703 136 q 704 131 704 133 q 704 119 704 128 l 704 106 l 696 106 l 696 142 l 694 142 q 692 142 692 142 q 692 146 692 143 q 692 149 692 149 q 694 150 692 150 q 696 151 696 150 q 696 154 696 151 q 704 168 696 163 m 342 156 l 342 161 l 350 161 l 350 150 l 360 150 l 360 142 l 353 142 q 344 140 344 142 q 347 138 344 139 q 349 136 349 138 q 349 133 349 135 q 350 125 350 131 l 350 114 l 356 113 l 361 113 l 361 106 l 354 106 q 349 106 350 106 q 344 108 347 106 l 342 111 l 342 142 l 339 142 q 335 142 336 142 q 335 146 335 143 q 335 149 335 149 q 339 150 336 150 q 341 150 340 150 q 342 151 342 150 q 342 156 342 153 m 883 156 l 883 161 l 890 161 l 890 150 l 901 150 l 901 142 l 894 142 q 888 142 889 142 q 886 140 886 142 l 889 138 l 890 138 l 890 128 q 892 115 890 118 q 897 113 893 113 q 901 113 900 113 q 903 112 903 113 q 903 108 903 111 l 903 106 l 897 106 q 891 106 893 106 q 888 108 889 106 l 883 111 l 883 142 l 881 142 q 878 142 879 142 q 878 146 878 143 q 878 149 878 149 q 881 150 879 150 q 883 150 882 150 q 883 151 883 150 q 883 156 883 153 m 1050 156 l 1050 161 l 1058 161 l 1058 150 l 1068 150 l 1068 142 l 1061 142 q 1055 142 1057 142 q 1053 140 1053 142 l 1056 138 q 1057 137 1057 138 q 1058 134 1057 136 q 1058 128 1058 132 q 1059 115 1058 118 q 1065 113 1060 113 q 1068 113 1067 113 q 1069 112 1069 113 q 1069 108 1069 111 l 1069 106 l 1064 106 q 1058 106 1060 106 q 1054 108 1056 106 l 1050 111 l 1050 142 l 1047 142 q 1045 142 1046 142 q 1044 146 1044 143 q 1045 149 1044 149 q 1047 150 1046 150 q 1049 150 1049 150 q 1050 151 1050 150 q 1050 156 1050 153 m 282 149 q 290 150 286 150 q 303 145 297 150 q 311 129 310 140 l 311 125 l 293 125 q 280 124 283 125 q 276 122 276 124 l 276 121 q 278 118 276 119 q 288 113 281 113 l 290 113 q 299 115 294 113 q 303 119 301 118 q 308 119 306 119 q 310 118 310 119 q 307 114 310 117 q 301 108 304 111 q 297 106 299 106 l 292 106 q 285 106 289 106 q 276 107 281 106 q 268 126 268 114 q 269 135 268 128 q 282 149 269 143 m 297 140 q 287 142 292 143 q 278 136 282 142 l 278 133 l 276 132 l 281 132 q 289 131 283 131 q 297 132 293 131 l 301 132 q 302 134 303 132 q 300 138 301 136 q 297 140 299 139 m 754 149 q 763 150 758 150 q 771 149 767 150 q 783 126 783 143 q 780 113 783 119 q 769 106 776 107 q 763 104 765 104 q 756 105 760 104 q 747 110 751 106 q 742 121 743 114 q 740 131 740 125 l 740 135 q 746 143 742 139 q 754 149 750 147 m 769 140 q 760 143 764 143 q 751 139 756 143 q 747 128 747 135 q 750 118 747 124 q 760 113 753 113 l 764 113 q 771 114 767 113 q 775 128 775 119 q 769 140 775 136 m 828 149 q 836 150 832 150 q 842 149 839 150 q 849 142 846 147 q 850 136 850 140 q 850 122 850 132 l 850 106 l 843 106 l 843 121 q 843 132 843 128 q 842 138 843 136 q 840 140 842 139 q 835 142 839 142 q 828 140 832 143 q 823 135 824 139 q 821 119 822 131 l 821 106 l 814 106 l 814 150 l 818 150 q 821 149 821 150 q 819 144 821 147 q 817 142 818 143 q 817 139 817 140 l 817 136 l 818 139 q 823 145 821 143 q 828 149 825 147 m 992 149 q 997 150 994 150 q 1001 150 999 150 q 1015 144 1011 150 q 1018 126 1018 139 q 1018 119 1018 121 q 1018 115 1018 117 q 1019 114 1018 114 q 1022 110 1021 113 q 1022 107 1022 108 q 1019 106 1021 106 q 1013 113 1015 106 l 1010 117 l 1010 114 q 1006 106 1008 108 q 996 104 1003 104 q 985 108 989 104 q 982 115 982 111 q 982 120 982 117 q 989 128 982 124 q 994 130 990 129 q 1001 132 997 131 q 1007 133 1004 132 l 1010 133 l 1010 135 q 1008 138 1010 136 q 1003 142 1007 140 q 996 142 1000 143 q 990 138 992 142 q 988 136 989 136 q 985 136 988 136 q 982 138 982 136 l 983 142 q 987 146 985 144 q 992 149 989 147 m 1010 124 q 1008 126 1010 126 q 1003 125 1007 126 l 1001 125 q 994 122 997 124 q 991 120 992 121 q 990 119 990 119 q 989 117 989 118 q 997 111 989 111 q 1006 115 1001 111 q 1010 124 1010 119 m 493 132 l 493 150 l 501 150 l 501 133 q 501 122 501 125 q 502 117 501 118 q 503 114 503 115 q 508 113 506 113 q 515 113 511 113 q 521 118 518 114 q 522 124 522 121 q 522 136 522 128 l 524 150 l 531 150 l 531 132 q 531 123 531 126 q 531 117 531 119 q 531 115 531 115 q 533 114 532 114 q 535 110 535 113 q 535 107 535 108 q 533 106 535 106 q 528 108 531 106 q 524 114 525 110 q 522 115 522 115 q 521 111 522 114 q 517 106 519 107 q 510 104 515 104 q 494 111 500 104 q 494 118 494 114 q 493 132 493 122 m 196 49 q 199 49 197 49 q 204 50 201 50 l 210 49 l 210 40 l 204 40 q 198 40 200 40 q 194 38 196 39 q 192 33 193 35 q 192 29 192 32 l 192 25 l 204 25 l 204 15 l 194 15 q 188 15 190 15 q 185 14 185 15 l 188 11 l 192 8 l 192 -28 l 182 -28 l 182 15 l 178 15 q 176 15 176 15 q 175 17 175 15 q 175 19 175 18 q 176 24 175 22 q 178 25 176 25 q 180 25 179 25 q 181 26 181 25 q 182 31 182 28 q 196 49 183 46 m 575 36 l 575 50 l 585 50 l 585 17 q 585 1 585 7 q 585 -10 585 -6 q 586 -15 585 -14 l 586 -17 q 589 -18 588 -18 q 590 -19 590 -18 q 590 -24 590 -21 l 590 -26 l 589 -28 q 584 -26 588 -28 q 579 -22 581 -25 l 576 -19 l 572 -24 q 557 -29 565 -29 q 549 -28 553 -29 q 536 -11 539 -22 q 535 -3 535 -7 q 538 11 535 3 q 550 24 540 19 q 553 26 551 25 q 557 26 556 26 q 567 24 561 26 q 575 17 572 21 l 579 13 l 581 13 q 578 18 581 14 q 576 22 576 19 q 576 27 576 24 q 575 36 575 31 m 568 13 q 560 16 565 15 q 551 14 556 17 q 544 -4 544 8 q 547 -10 546 -7 q 547 -14 547 -12 q 557 -19 551 -18 l 560 -19 q 568 -17 564 -19 q 575 -1 575 -11 q 568 13 575 7 m 626 50 l 631 50 l 635 49 l 636 44 l 636 39 l 626 39 l 626 50 m 397 39 l 407 39 l 407 25 l 419 25 l 419 15 l 404 15 l 401 14 q 403 13 401 13 l 403 11 l 404 11 l 406 10 l 407 7 l 407 -4 q 408 -17 407 -15 q 410 -18 408 -18 q 415 -18 413 -18 l 419 -18 l 419 -28 l 414 -28 q 404 -26 407 -28 q 400 -22 401 -25 q 398 -15 399 -19 q 397 -1 397 -10 l 397 15 l 394 15 q 392 15 393 15 q 391 17 392 15 q 390 19 390 18 q 391 24 390 22 q 392 25 392 25 q 394 25 393 25 l 397 25 l 397 39 m 1051 39 l 1061 39 l 1061 25 l 1072 25 l 1072 15 l 1056 15 l 1056 14 l 1058 11 q 1060 8 1060 10 q 1060 4 1060 7 q 1061 -4 1061 1 l 1061 -18 l 1074 -18 l 1074 -29 l 1067 -28 q 1059 -27 1061 -28 q 1056 -24 1057 -26 l 1051 -21 l 1051 15 l 1047 15 q 1045 15 1046 15 q 1044 17 1044 15 q 1044 19 1044 18 q 1044 24 1044 22 q 1045 25 1044 25 q 1047 25 1046 25 l 1051 25 l 1051 39 m 249 25 l 254 26 q 263 25 258 26 q 271 19 267 24 l 274 17 l 274 21 q 274 24 274 24 q 278 25 275 25 l 282 25 l 282 -7 q 282 -26 282 -19 q 282 -35 282 -32 q 281 -40 282 -39 q 279 -43 281 -42 q 277 -46 279 -44 q 274 -49 275 -47 q 270 -51 272 -50 q 265 -51 268 -51 q 254 -51 261 -51 l 239 -51 l 239 -43 l 251 -43 q 261 -42 257 -43 q 267 -42 265 -42 q 274 -29 274 -37 q 274 -26 274 -28 q 276 -22 275 -24 q 278 -17 278 -18 q 274 -19 276 -17 q 261 -28 268 -25 q 254 -29 258 -29 q 247 -28 251 -29 q 240 -22 243 -26 q 235 -12 236 -17 q 233 -1 233 -8 q 235 8 233 4 q 240 18 236 14 q 249 25 243 22 m 265 14 q 259 16 264 15 q 251 15 254 17 q 243 4 244 13 l 243 0 q 246 -14 243 -7 q 256 -19 250 -19 q 261 -19 257 -19 q 271 -11 265 -19 q 272 -3 272 -7 q 272 3 272 -1 q 265 14 271 8 m 331 25 l 342 25 q 358 15 354 25 q 360 10 361 11 q 356 8 360 8 q 350 10 350 8 q 347 15 350 13 q 340 17 343 17 q 331 13 333 17 q 329 10 329 11 q 332 7 329 8 q 337 5 333 6 q 344 3 340 4 q 358 -3 354 0 q 361 -12 361 -7 q 361 -17 361 -15 q 358 -22 361 -19 q 342 -29 351 -29 q 332 -28 339 -29 q 319 -18 325 -28 q 318 -11 318 -12 q 322 -10 318 -10 q 327 -10 326 -10 q 328 -12 328 -11 l 329 -14 q 332 -17 329 -15 q 334 -19 333 -18 q 337 -19 335 -19 q 342 -19 339 -19 q 348 -19 346 -19 q 350 -17 350 -18 q 352 -15 351 -15 q 353 -12 353 -14 q 338 -6 353 -10 q 330 -3 333 -4 q 325 0 326 -1 q 321 5 322 1 q 319 13 319 8 q 324 20 321 17 q 331 25 328 24 m 689 25 l 694 25 q 706 23 700 25 q 718 14 713 21 q 720 7 719 10 q 721 0 721 4 l 721 -4 q 713 -24 721 -17 q 697 -29 706 -29 q 685 -26 693 -29 q 672 -10 676 -24 q 671 1 671 -4 q 674 11 671 7 q 681 19 676 15 q 689 25 685 24 m 703 15 l 697 17 q 692 15 696 17 q 683 10 688 14 q 681 1 681 6 q 681 -8 681 -4 q 694 -19 685 -18 l 697 -19 q 710 -12 706 -19 q 713 -1 713 -7 q 711 6 713 1 q 703 15 710 11 m 768 24 q 778 26 774 26 q 786 24 782 26 q 793 19 790 22 q 796 14 796 15 q 797 12 796 13 q 797 10 797 11 q 793 8 796 8 q 789 9 790 8 q 788 11 788 10 q 781 15 786 14 l 775 17 q 769 15 774 17 q 765 10 765 14 q 767 8 765 8 q 772 6 768 7 q 783 1 775 4 q 793 -2 790 0 q 797 -8 796 -4 q 799 -14 799 -11 q 793 -24 799 -19 q 776 -29 788 -29 q 762 -24 768 -29 q 756 -12 756 -19 q 756 -10 756 -11 q 760 -10 757 -10 q 764 -10 763 -10 q 765 -12 765 -11 q 778 -19 767 -19 q 789 -14 786 -19 q 787 -10 789 -11 q 779 -7 785 -8 q 765 -2 769 -4 q 758 3 761 0 q 757 7 757 4 l 757 11 q 768 24 757 21 m 901 22 q 906 25 904 24 q 910 26 908 26 q 921 22 915 26 q 928 13 926 18 q 928 5 928 11 q 929 -10 929 -1 l 929 -28 l 919 -28 l 919 -12 q 919 6 919 0 q 915 14 918 13 q 910 15 913 15 q 903 15 907 15 q 897 8 900 14 q 895 5 896 7 q 894 -1 894 3 q 894 -11 894 -4 l 893 -28 l 885 -28 l 885 25 l 889 25 q 893 24 892 25 q 894 22 894 24 l 893 21 q 892 18 892 19 q 889 13 889 15 l 889 11 l 892 15 q 901 22 896 19 m 983 25 l 989 26 q 998 25 993 26 q 1007 18 1003 24 q 1013 11 1011 15 q 1015 1 1014 7 l 1015 -6 l 975 -6 l 974 -7 q 976 -12 974 -10 q 982 -18 979 -15 q 989 -19 985 -19 q 994 -19 990 -19 q 1003 -14 999 -18 q 1004 -12 1003 -12 q 1008 -11 1006 -11 q 1013 -12 1013 -11 q 1011 -18 1014 -14 q 997 -28 1006 -25 q 989 -29 993 -29 q 981 -28 985 -29 q 964 -1 964 -21 q 983 25 965 19 m 997 14 q 990 16 994 15 q 983 15 986 17 q 978 11 981 14 q 975 6 975 8 l 974 3 l 989 3 q 999 3 996 3 q 1003 3 1003 3 q 1004 6 1004 4 q 1002 10 1004 7 q 997 14 1000 13 m 454 6 l 454 25 l 463 25 l 463 6 q 463 -6 463 -1 q 463 -12 463 -10 q 464 -15 464 -14 q 465 -17 464 -15 q 474 -19 468 -19 q 478 -19 475 -19 q 485 -12 482 -18 q 487 -9 486 -11 q 488 -3 488 -7 q 488 8 488 1 l 489 25 l 497 25 l 497 -15 l 500 -17 q 502 -19 501 -18 q 503 -24 503 -21 q 501 -28 503 -28 q 495 -26 499 -28 q 490 -19 492 -24 q 488 -17 489 -17 q 486 -24 486 -18 q 481 -28 485 -26 q 471 -29 476 -29 q 461 -26 465 -29 q 458 -24 460 -25 q 456 -19 457 -22 q 455 -15 456 -18 q 454 -8 454 -12 q 454 6 454 -4 m 626 25 l 631 25 l 635 24 l 636 -1 l 636 -28 l 626 -28 l 626 25 m 836 -17 q 838 -15 836 -15 q 842 -15 840 -15 l 847 -15 l 847 -28 l 835 -28 l 835 -22 q 836 -18 835 -19 l 836 -17 z "},"7":{"ha":1250,"x_min":83,"x_max":1167,"o":"m 328 1032 q 420 1033 335 1032 q 631 1033 506 1033 l 926 1033 l 942 1031 q 1063 978 1008 1018 q 1085 956 1071 969 q 1107 932 1099 943 q 1160 826 1146 885 q 1161 822 1161 824 q 1164 807 1163 814 q 1166 787 1165 800 q 1167 748 1167 774 q 1167 676 1167 722 l 1167 651 q 1167 563 1167 596 q 1167 514 1167 531 q 1165 489 1167 497 q 1163 472 1164 481 q 1085 332 1146 390 q 940 258 1026 274 l 924 256 l 632 256 q 486 254 543 254 q 397 255 429 254 q 347 256 364 256 q 323 256 331 256 q 307 258 315 257 l 307 260 q 147 351 211 276 q 86 482 100 407 l 83 499 l 83 788 l 86 803 q 163 954 100 892 q 328 1032 231 1021 m 699 774 q 683 776 690 776 q 660 771 674 776 q 638 747 647 765 q 635 742 636 744 q 635 736 635 739 q 635 726 635 733 q 635 717 635 721 q 635 712 635 714 q 638 707 636 710 q 660 685 646 692 q 682 679 671 679 l 690 679 q 725 703 714 683 q 732 728 732 715 q 729 744 732 736 q 717 762 725 754 q 699 774 708 769 m 854 776 l 829 776 l 829 754 l 828 733 l 815 754 l 801 775 l 775 775 l 775 679 l 803 679 l 803 722 l 817 701 l 831 679 l 854 679 l 854 776 m 228 774 q 222 774 225 774 q 215 775 219 775 q 200 775 210 775 l 179 775 l 179 679 l 206 679 l 206 710 l 215 711 q 224 712 221 711 q 231 714 228 713 q 249 742 249 724 l 249 744 q 228 774 246 765 m 353 775 l 290 775 l 290 679 l 353 679 l 353 704 l 318 704 l 318 714 l 349 714 l 349 739 l 318 739 l 318 749 l 353 749 l 353 775 m 454 771 l 449 775 l 400 775 l 400 679 l 426 679 l 426 694 q 426 706 426 703 q 428 710 426 710 q 432 706 429 710 q 439 694 435 701 l 449 679 l 479 679 l 476 685 q 468 697 472 690 l 457 714 l 461 718 q 465 723 463 721 q 468 728 467 725 q 471 733 471 731 q 471 742 471 736 q 471 751 471 747 q 469 756 471 754 q 454 771 464 765 m 567 774 q 553 775 561 775 q 538 772 543 775 q 515 749 517 765 q 516 738 515 742 q 521 729 517 733 q 549 717 528 721 q 560 714 557 715 q 565 710 564 713 q 565 708 565 708 q 564 706 565 707 q 557 704 561 704 q 551 704 556 704 q 543 708 546 704 l 540 711 l 533 710 l 532 710 q 526 708 529 708 q 521 707 522 707 q 515 704 515 706 l 515 703 q 517 697 515 701 q 542 679 524 683 q 553 678 547 678 q 576 683 564 678 q 592 706 592 690 l 592 711 q 558 739 592 733 q 543 746 543 742 q 544 749 543 747 q 553 751 547 751 q 561 747 558 751 l 564 744 l 578 747 q 585 749 582 749 q 588 749 588 749 q 590 751 589 750 q 589 753 590 751 q 581 765 588 760 q 567 774 575 771 m 957 768 l 954 775 l 925 775 l 910 728 q 899 694 904 708 q 894 679 894 681 l 922 679 l 925 690 l 940 689 l 954 689 l 956 683 l 957 679 l 971 679 q 982 679 979 679 q 985 681 985 679 l 982 688 q 971 722 978 700 q 963 749 967 736 q 957 767 958 761 l 957 768 m 1050 775 l 1024 775 l 1024 679 l 1079 679 l 1079 704 l 1050 704 l 1050 775 m 685 607 q 675 608 679 608 q 643 596 657 608 q 626 561 626 579 q 628 542 626 557 q 654 515 631 528 q 660 512 658 513 q 666 511 663 511 q 676 511 669 511 q 685 511 682 511 q 691 512 689 511 q 697 515 693 513 q 711 525 704 518 q 721 538 718 532 q 726 560 726 549 q 725 568 726 564 q 710 594 721 583 q 685 607 699 604 m 849 608 l 835 608 q 822 607 822 608 q 821 600 821 606 q 821 586 821 594 l 821 567 l 808 586 l 794 607 l 769 607 l 769 511 l 796 511 l 796 532 l 797 554 l 811 532 l 824 511 l 849 511 l 849 608 m 231 578 l 231 607 l 204 607 l 204 538 l 208 532 q 217 520 211 525 q 229 513 222 515 q 243 511 235 511 q 258 513 251 511 q 272 522 265 515 q 279 535 278 528 q 281 541 281 538 q 282 551 282 544 q 282 574 282 558 l 282 607 l 256 607 l 256 578 q 256 553 256 561 q 254 543 256 546 q 250 538 253 540 q 243 536 246 536 q 235 539 239 536 q 232 544 233 540 q 231 554 231 547 q 231 578 231 561 m 381 606 q 367 607 375 607 q 350 606 357 607 q 340 600 344 604 q 332 592 335 596 q 328 588 329 590 q 328 581 328 585 q 329 569 328 572 q 335 561 331 565 q 345 554 339 557 q 363 549 351 551 q 378 542 378 546 q 374 536 378 538 l 368 536 q 363 536 367 536 q 356 540 358 536 l 353 543 l 340 540 q 331 538 335 539 q 326 538 328 538 q 327 534 326 536 q 330 528 328 532 q 333 522 332 525 q 363 511 343 511 l 367 511 q 400 525 390 511 q 403 531 403 528 q 404 536 404 533 l 404 540 q 375 571 404 564 q 358 576 361 574 q 356 579 356 578 q 357 582 356 581 q 360 583 358 583 q 365 583 363 583 q 371 583 369 583 q 374 579 372 582 l 376 576 l 389 579 q 399 582 394 581 l 401 582 q 402 585 403 583 q 400 589 401 586 q 381 606 393 601 m 511 607 l 449 607 l 449 511 l 511 511 l 511 536 l 476 536 l 476 546 l 507 546 l 507 571 l 476 571 l 476 582 l 511 582 l 511 607 m 922 607 l 896 607 l 896 511 l 951 511 l 951 536 l 922 536 l 922 607 m 1001 594 l 994 607 l 963 607 l 965 604 q 971 594 967 601 q 982 576 975 586 l 996 551 l 996 511 l 1022 511 l 1022 551 l 1036 576 q 1048 595 1043 588 q 1053 604 1053 603 l 1054 607 l 1024 607 l 1017 594 q 1012 585 1014 589 q 1008 582 1010 582 l 1007 586 q 1001 594 1004 589 m 674 749 q 683 750 679 750 q 699 743 692 750 q 704 728 704 736 q 703 717 704 722 q 683 704 696 704 q 674 705 682 704 q 661 721 667 706 l 661 725 q 664 738 661 732 q 674 749 667 744 m 206 749 l 213 749 q 219 748 218 749 q 221 743 221 747 q 219 738 221 739 q 213 735 217 736 l 206 735 l 206 749 m 426 749 l 435 749 q 443 748 442 749 q 444 742 444 747 q 433 735 444 735 l 426 735 l 426 749 m 938 729 q 939 736 938 733 l 940 738 l 942 732 q 943 726 943 729 l 947 714 l 933 714 l 933 718 l 935 721 q 936 728 935 724 q 938 729 936 729 m 667 581 q 676 583 672 583 q 688 579 682 583 q 697 565 694 575 q 699 558 699 561 q 692 543 699 550 q 675 536 686 536 q 657 547 664 536 q 654 558 654 553 q 656 569 654 563 q 667 581 658 576 m 194 169 q 206 171 200 171 q 215 170 210 171 q 226 165 221 169 q 231 161 229 164 q 235 156 233 158 q 236 151 236 153 q 232 150 235 150 q 229 151 231 150 q 226 154 228 151 q 209 163 221 163 q 190 156 197 164 q 183 139 183 150 l 183 135 q 193 115 185 121 q 206 111 199 111 q 214 113 210 111 q 225 120 221 115 q 229 129 229 125 l 229 132 l 210 132 l 210 140 l 236 140 l 236 106 l 233 106 q 229 107 229 106 q 232 114 229 108 q 233 118 233 117 l 232 118 l 228 114 q 207 104 221 104 q 179 121 189 104 q 177 125 178 124 q 176 129 176 126 q 176 138 176 132 q 176 146 176 143 q 177 150 176 149 q 179 154 178 151 q 194 169 185 165 m 451 168 q 461 171 454 171 l 468 171 l 468 163 l 463 163 q 457 162 458 163 q 454 160 456 161 q 453 156 454 158 q 453 153 453 154 l 453 150 l 464 150 l 464 142 l 457 142 q 451 142 453 142 q 447 140 449 142 l 450 138 q 452 135 451 136 q 453 131 453 133 q 453 119 453 128 l 453 106 l 444 106 l 444 142 l 442 142 q 440 142 440 142 q 439 146 439 143 q 440 149 439 149 q 442 150 440 150 q 444 151 444 150 q 444 154 444 151 q 451 168 444 163 m 565 171 l 574 171 l 574 106 l 565 106 l 565 171 m 604 171 l 613 171 l 613 106 l 604 106 l 604 171 m 704 168 q 713 171 707 171 l 719 171 l 719 163 l 714 163 q 709 162 711 163 q 707 160 707 161 q 705 156 706 158 q 704 153 704 154 l 704 150 l 717 150 l 717 142 l 708 142 q 702 142 704 142 q 700 140 700 142 q 699 140 699 140 q 701 138 700 139 q 703 135 703 136 q 704 131 704 133 q 704 119 704 128 l 704 106 l 696 106 l 696 142 l 694 142 q 692 142 692 142 q 692 146 692 143 q 692 149 692 149 q 694 150 692 150 q 696 151 696 150 q 696 154 696 151 q 704 168 696 163 m 342 156 l 342 161 l 350 161 l 350 150 l 360 150 l 360 142 l 353 142 q 344 140 344 142 q 347 138 344 139 q 349 136 349 138 q 349 133 349 135 q 350 125 350 131 l 350 114 l 356 113 l 361 113 l 361 106 l 354 106 q 349 106 350 106 q 344 108 347 106 l 342 111 l 342 142 l 339 142 q 335 142 336 142 q 335 146 335 143 q 335 149 335 149 q 339 150 336 150 q 341 150 340 150 q 342 151 342 150 q 342 156 342 153 m 883 156 l 883 161 l 890 161 l 890 150 l 901 150 l 901 142 l 894 142 q 888 142 889 142 q 886 140 886 142 l 889 138 l 890 138 l 890 128 q 892 115 890 118 q 897 113 893 113 q 901 113 900 113 q 903 112 903 113 q 903 108 903 111 l 903 106 l 897 106 q 891 106 893 106 q 888 108 889 106 l 883 111 l 883 142 l 881 142 q 878 142 879 142 q 878 146 878 143 q 878 149 878 149 q 881 150 879 150 q 883 150 882 150 q 883 151 883 150 q 883 156 883 153 m 1050 156 l 1050 161 l 1058 161 l 1058 150 l 1068 150 l 1068 142 l 1061 142 q 1055 142 1057 142 q 1053 140 1053 142 l 1056 138 q 1057 137 1057 138 q 1058 134 1057 136 q 1058 128 1058 132 q 1059 115 1058 118 q 1065 113 1060 113 q 1068 113 1067 113 q 1069 112 1069 113 q 1069 108 1069 111 l 1069 106 l 1064 106 q 1058 106 1060 106 q 1054 108 1056 106 l 1050 111 l 1050 142 l 1047 142 q 1045 142 1046 142 q 1044 146 1044 143 q 1045 149 1044 149 q 1047 150 1046 150 q 1049 150 1049 150 q 1050 151 1050 150 q 1050 156 1050 153 m 282 149 q 290 150 286 150 q 303 145 297 150 q 311 129 310 140 l 311 125 l 293 125 q 280 124 283 125 q 276 122 276 124 l 276 121 q 278 118 276 119 q 288 113 281 113 l 290 113 q 299 115 294 113 q 303 119 301 118 q 308 119 306 119 q 310 118 310 119 q 307 114 310 117 q 301 108 304 111 q 297 106 299 106 l 292 106 q 285 106 289 106 q 276 107 281 106 q 268 126 268 114 q 269 135 268 128 q 282 149 269 143 m 297 140 q 287 142 292 143 q 278 136 282 142 l 278 133 l 276 132 l 281 132 q 289 131 283 131 q 297 132 293 131 l 301 132 q 302 134 303 132 q 300 138 301 136 q 297 140 299 139 m 754 149 q 763 150 758 150 q 771 149 767 150 q 783 126 783 143 q 780 113 783 119 q 769 106 776 107 q 763 104 765 104 q 756 105 760 104 q 747 110 751 106 q 742 121 743 114 q 740 131 740 125 l 740 135 q 746 143 742 139 q 754 149 750 147 m 769 140 q 760 143 764 143 q 751 139 756 143 q 747 128 747 135 q 750 118 747 124 q 760 113 753 113 l 764 113 q 771 114 767 113 q 775 128 775 119 q 769 140 775 136 m 828 149 q 836 150 832 150 q 842 149 839 150 q 849 142 846 147 q 850 136 850 140 q 850 122 850 132 l 850 106 l 843 106 l 843 121 q 843 132 843 128 q 842 138 843 136 q 840 140 842 139 q 835 142 839 142 q 828 140 832 143 q 823 135 824 139 q 821 119 822 131 l 821 106 l 814 106 l 814 150 l 818 150 q 821 149 821 150 q 819 144 821 147 q 817 142 818 143 q 817 139 817 140 l 817 136 l 818 139 q 823 145 821 143 q 828 149 825 147 m 992 149 q 997 150 994 150 q 1001 150 999 150 q 1015 144 1011 150 q 1018 126 1018 139 q 1018 119 1018 121 q 1018 115 1018 117 q 1019 114 1018 114 q 1022 110 1021 113 q 1022 107 1022 108 q 1019 106 1021 106 q 1013 113 1015 106 l 1010 117 l 1010 114 q 1006 106 1008 108 q 996 104 1003 104 q 985 108 989 104 q 982 115 982 111 q 982 120 982 117 q 989 128 982 124 q 994 130 990 129 q 1001 132 997 131 q 1007 133 1004 132 l 1010 133 l 1010 135 q 1008 138 1010 136 q 1003 142 1007 140 q 996 142 1000 143 q 990 138 992 142 q 988 136 989 136 q 985 136 988 136 q 982 138 982 136 l 983 142 q 987 146 985 144 q 992 149 989 147 m 1010 124 q 1008 126 1010 126 q 1003 125 1007 126 l 1001 125 q 994 122 997 124 q 991 120 992 121 q 990 119 990 119 q 989 117 989 118 q 997 111 989 111 q 1006 115 1001 111 q 1010 124 1010 119 m 493 132 l 493 150 l 501 150 l 501 133 q 501 122 501 125 q 502 117 501 118 q 503 114 503 115 q 508 113 506 113 q 515 113 511 113 q 521 118 518 114 q 522 124 522 121 q 522 136 522 128 l 524 150 l 531 150 l 531 132 q 531 123 531 126 q 531 117 531 119 q 531 115 531 115 q 533 114 532 114 q 535 110 535 113 q 535 107 535 108 q 533 106 535 106 q 528 108 531 106 q 524 114 525 110 q 522 115 522 115 q 521 111 522 114 q 517 106 519 107 q 510 104 515 104 q 494 111 500 104 q 494 118 494 114 q 493 132 493 122 m 196 49 q 199 49 197 49 q 204 50 201 50 l 210 49 l 210 40 l 204 40 q 198 40 200 40 q 194 38 196 39 q 192 33 193 35 q 192 29 192 32 l 192 25 l 204 25 l 204 15 l 194 15 q 188 15 190 15 q 185 14 185 15 l 188 11 l 192 8 l 192 -28 l 182 -28 l 182 15 l 178 15 q 176 15 176 15 q 175 17 175 15 q 175 19 175 18 q 176 24 175 22 q 178 25 176 25 q 180 25 179 25 q 181 26 181 25 q 182 31 182 28 q 196 49 183 46 m 575 36 l 575 50 l 585 50 l 585 17 q 585 1 585 7 q 585 -10 585 -6 q 586 -15 585 -14 l 586 -17 q 589 -18 588 -18 q 590 -19 590 -18 q 590 -24 590 -21 l 590 -26 l 589 -28 q 584 -26 588 -28 q 579 -22 581 -25 l 576 -19 l 572 -24 q 557 -29 565 -29 q 549 -28 553 -29 q 536 -11 539 -22 q 535 -3 535 -7 q 538 11 535 3 q 550 24 540 19 q 553 26 551 25 q 557 26 556 26 q 567 24 561 26 q 575 17 572 21 l 579 13 l 581 13 q 578 18 581 14 q 576 22 576 19 q 576 27 576 24 q 575 36 575 31 m 568 13 q 560 16 565 15 q 551 14 556 17 q 544 -4 544 8 q 547 -10 546 -7 q 547 -14 547 -12 q 557 -19 551 -18 l 560 -19 q 568 -17 564 -19 q 575 -1 575 -11 q 568 13 575 7 m 626 50 l 631 50 l 635 49 l 636 44 l 636 39 l 626 39 l 626 50 m 397 39 l 407 39 l 407 25 l 419 25 l 419 15 l 404 15 l 401 14 q 403 13 401 13 l 403 11 l 404 11 l 406 10 l 407 7 l 407 -4 q 408 -17 407 -15 q 410 -18 408 -18 q 415 -18 413 -18 l 419 -18 l 419 -28 l 414 -28 q 404 -26 407 -28 q 400 -22 401 -25 q 398 -15 399 -19 q 397 -1 397 -10 l 397 15 l 394 15 q 392 15 393 15 q 391 17 392 15 q 390 19 390 18 q 391 24 390 22 q 392 25 392 25 q 394 25 393 25 l 397 25 l 397 39 m 1051 39 l 1061 39 l 1061 25 l 1072 25 l 1072 15 l 1056 15 l 1056 14 l 1058 11 q 1060 8 1060 10 q 1060 4 1060 7 q 1061 -4 1061 1 l 1061 -18 l 1074 -18 l 1074 -29 l 1067 -28 q 1059 -27 1061 -28 q 1056 -24 1057 -26 l 1051 -21 l 1051 15 l 1047 15 q 1045 15 1046 15 q 1044 17 1044 15 q 1044 19 1044 18 q 1044 24 1044 22 q 1045 25 1044 25 q 1047 25 1046 25 l 1051 25 l 1051 39 m 249 25 l 254 26 q 263 25 258 26 q 271 19 267 24 l 274 17 l 274 21 q 274 24 274 24 q 278 25 275 25 l 282 25 l 282 -7 q 282 -26 282 -19 q 282 -35 282 -32 q 281 -40 282 -39 q 279 -43 281 -42 q 277 -46 279 -44 q 274 -49 275 -47 q 270 -51 272 -50 q 265 -51 268 -51 q 254 -51 261 -51 l 239 -51 l 239 -43 l 251 -43 q 261 -42 257 -43 q 267 -42 265 -42 q 274 -29 274 -37 q 274 -26 274 -28 q 276 -22 275 -24 q 278 -17 278 -18 q 274 -19 276 -17 q 261 -28 268 -25 q 254 -29 258 -29 q 247 -28 251 -29 q 240 -22 243 -26 q 235 -12 236 -17 q 233 -1 233 -8 q 235 8 233 4 q 240 18 236 14 q 249 25 243 22 m 265 14 q 259 16 264 15 q 251 15 254 17 q 243 4 244 13 l 243 0 q 246 -14 243 -7 q 256 -19 250 -19 q 261 -19 257 -19 q 271 -11 265 -19 q 272 -3 272 -7 q 272 3 272 -1 q 265 14 271 8 m 331 25 l 342 25 q 358 15 354 25 q 360 10 361 11 q 356 8 360 8 q 350 10 350 8 q 347 15 350 13 q 340 17 343 17 q 331 13 333 17 q 329 10 329 11 q 332 7 329 8 q 337 5 333 6 q 344 3 340 4 q 358 -3 354 0 q 361 -12 361 -7 q 361 -17 361 -15 q 358 -22 361 -19 q 342 -29 351 -29 q 332 -28 339 -29 q 319 -18 325 -28 q 318 -11 318 -12 q 322 -10 318 -10 q 327 -10 326 -10 q 328 -12 328 -11 l 329 -14 q 332 -17 329 -15 q 334 -19 333 -18 q 337 -19 335 -19 q 342 -19 339 -19 q 348 -19 346 -19 q 350 -17 350 -18 q 352 -15 351 -15 q 353 -12 353 -14 q 338 -6 353 -10 q 330 -3 333 -4 q 325 0 326 -1 q 321 5 322 1 q 319 13 319 8 q 324 20 321 17 q 331 25 328 24 m 689 25 l 694 25 q 706 23 700 25 q 718 14 713 21 q 720 7 719 10 q 721 0 721 4 l 721 -4 q 713 -24 721 -17 q 697 -29 706 -29 q 685 -26 693 -29 q 672 -10 676 -24 q 671 1 671 -4 q 674 11 671 7 q 681 19 676 15 q 689 25 685 24 m 703 15 l 697 17 q 692 15 696 17 q 683 10 688 14 q 681 1 681 6 q 681 -8 681 -4 q 694 -19 685 -18 l 697 -19 q 710 -12 706 -19 q 713 -1 713 -7 q 711 6 713 1 q 703 15 710 11 m 768 24 q 778 26 774 26 q 786 24 782 26 q 793 19 790 22 q 796 14 796 15 q 797 12 796 13 q 797 10 797 11 q 793 8 796 8 q 789 9 790 8 q 788 11 788 10 q 781 15 786 14 l 775 17 q 769 15 774 17 q 765 10 765 14 q 767 8 765 8 q 772 6 768 7 q 783 1 775 4 q 793 -2 790 0 q 797 -8 796 -4 q 799 -14 799 -11 q 793 -24 799 -19 q 776 -29 788 -29 q 762 -24 768 -29 q 756 -12 756 -19 q 756 -10 756 -11 q 760 -10 757 -10 q 764 -10 763 -10 q 765 -12 765 -11 q 778 -19 767 -19 q 789 -14 786 -19 q 787 -10 789 -11 q 779 -7 785 -8 q 765 -2 769 -4 q 758 3 761 0 q 757 7 757 4 l 757 11 q 768 24 757 21 m 901 22 q 906 25 904 24 q 910 26 908 26 q 921 22 915 26 q 928 13 926 18 q 928 5 928 11 q 929 -10 929 -1 l 929 -28 l 919 -28 l 919 -12 q 919 6 919 0 q 915 14 918 13 q 910 15 913 15 q 903 15 907 15 q 897 8 900 14 q 895 5 896 7 q 894 -1 894 3 q 894 -11 894 -4 l 893 -28 l 885 -28 l 885 25 l 889 25 q 893 24 892 25 q 894 22 894 24 l 893 21 q 892 18 892 19 q 889 13 889 15 l 889 11 l 892 15 q 901 22 896 19 m 983 25 l 989 26 q 998 25 993 26 q 1007 18 1003 24 q 1013 11 1011 15 q 1015 1 1014 7 l 1015 -6 l 975 -6 l 974 -7 q 976 -12 974 -10 q 982 -18 979 -15 q 989 -19 985 -19 q 994 -19 990 -19 q 1003 -14 999 -18 q 1004 -12 1003 -12 q 1008 -11 1006 -11 q 1013 -12 1013 -11 q 1011 -18 1014 -14 q 997 -28 1006 -25 q 989 -29 993 -29 q 981 -28 985 -29 q 964 -1 964 -21 q 983 25 965 19 m 997 14 q 990 16 994 15 q 983 15 986 17 q 978 11 981 14 q 975 6 975 8 l 974 3 l 989 3 q 999 3 996 3 q 1003 3 1003 3 q 1004 6 1004 4 q 1002 10 1004 7 q 997 14 1000 13 m 454 6 l 454 25 l 463 25 l 463 6 q 463 -6 463 -1 q 463 -12 463 -10 q 464 -15 464 -14 q 465 -17 464 -15 q 474 -19 468 -19 q 478 -19 475 -19 q 485 -12 482 -18 q 487 -9 486 -11 q 488 -3 488 -7 q 488 8 488 1 l 489 25 l 497 25 l 497 -15 l 500 -17 q 502 -19 501 -18 q 503 -24 503 -21 q 501 -28 503 -28 q 495 -26 499 -28 q 490 -19 492 -24 q 488 -17 489 -17 q 486 -24 486 -18 q 481 -28 485 -26 q 471 -29 476 -29 q 461 -26 465 -29 q 458 -24 460 -25 q 456 -19 457 -22 q 455 -15 456 -18 q 454 -8 454 -12 q 454 6 454 -4 m 626 25 l 631 25 l 635 24 l 636 -1 l 636 -28 l 626 -28 l 626 25 m 836 -17 q 838 -15 836 -15 q 842 -15 840 -15 l 847 -15 l 847 -28 l 835 -28 l 835 -22 q 836 -18 835 -19 l 836 -17 z "},"8":{"ha":1250,"x_min":83,"x_max":1167,"o":"m 328 1032 q 420 1033 335 1032 q 631 1033 506 1033 l 926 1033 l 942 1031 q 1063 978 1008 1018 q 1085 956 1071 969 q 1107 932 1099 943 q 1160 826 1146 885 q 1161 822 1161 824 q 1164 807 1163 814 q 1166 787 1165 800 q 1167 748 1167 774 q 1167 676 1167 722 l 1167 651 q 1167 563 1167 596 q 1167 514 1167 531 q 1165 489 1167 497 q 1163 472 1164 481 q 1085 332 1146 390 q 940 258 1026 274 l 924 256 l 632 256 q 486 254 543 254 q 397 255 429 254 q 347 256 364 256 q 323 256 331 256 q 307 258 315 257 l 307 260 q 147 351 211 276 q 86 482 100 407 l 83 499 l 83 788 l 86 803 q 163 954 100 892 q 328 1032 231 1021 m 699 774 q 683 776 690 776 q 660 771 674 776 q 638 747 647 765 q 635 742 636 744 q 635 736 635 739 q 635 726 635 733 q 635 717 635 721 q 635 712 635 714 q 638 707 636 710 q 660 685 646 692 q 682 679 671 679 l 690 679 q 725 703 714 683 q 732 728 732 715 q 729 744 732 736 q 717 762 725 754 q 699 774 708 769 m 854 776 l 829 776 l 829 754 l 828 733 l 815 754 l 801 775 l 775 775 l 775 679 l 803 679 l 803 722 l 817 701 l 831 679 l 854 679 l 854 776 m 228 774 q 222 774 225 774 q 215 775 219 775 q 200 775 210 775 l 179 775 l 179 679 l 206 679 l 206 710 l 215 711 q 224 712 221 711 q 231 714 228 713 q 249 742 249 724 l 249 744 q 228 774 246 765 m 353 775 l 290 775 l 290 679 l 353 679 l 353 704 l 318 704 l 318 714 l 349 714 l 349 739 l 318 739 l 318 749 l 353 749 l 353 775 m 454 771 l 449 775 l 400 775 l 400 679 l 426 679 l 426 694 q 426 706 426 703 q 428 710 426 710 q 432 706 429 710 q 439 694 435 701 l 449 679 l 479 679 l 476 685 q 468 697 472 690 l 457 714 l 461 718 q 465 723 463 721 q 468 728 467 725 q 471 733 471 731 q 471 742 471 736 q 471 751 471 747 q 469 756 471 754 q 454 771 464 765 m 567 774 q 553 775 561 775 q 538 772 543 775 q 515 749 517 765 q 516 738 515 742 q 521 729 517 733 q 549 717 528 721 q 560 714 557 715 q 565 710 564 713 q 565 708 565 708 q 564 706 565 707 q 557 704 561 704 q 551 704 556 704 q 543 708 546 704 l 540 711 l 533 710 l 532 710 q 526 708 529 708 q 521 707 522 707 q 515 704 515 706 l 515 703 q 517 697 515 701 q 542 679 524 683 q 553 678 547 678 q 576 683 564 678 q 592 706 592 690 l 592 711 q 558 739 592 733 q 543 746 543 742 q 544 749 543 747 q 553 751 547 751 q 561 747 558 751 l 564 744 l 578 747 q 585 749 582 749 q 588 749 588 749 q 590 751 589 750 q 589 753 590 751 q 581 765 588 760 q 567 774 575 771 m 957 768 l 954 775 l 925 775 l 910 728 q 899 694 904 708 q 894 679 894 681 l 922 679 l 925 690 l 940 689 l 954 689 l 956 683 l 957 679 l 971 679 q 982 679 979 679 q 985 681 985 679 l 982 688 q 971 722 978 700 q 963 749 967 736 q 957 767 958 761 l 957 768 m 1050 775 l 1024 775 l 1024 679 l 1079 679 l 1079 704 l 1050 704 l 1050 775 m 685 607 q 675 608 679 608 q 643 596 657 608 q 626 561 626 579 q 628 542 626 557 q 654 515 631 528 q 660 512 658 513 q 666 511 663 511 q 676 511 669 511 q 685 511 682 511 q 691 512 689 511 q 697 515 693 513 q 711 525 704 518 q 721 538 718 532 q 726 560 726 549 q 725 568 726 564 q 710 594 721 583 q 685 607 699 604 m 849 608 l 835 608 q 822 607 822 608 q 821 600 821 606 q 821 586 821 594 l 821 567 l 808 586 l 794 607 l 769 607 l 769 511 l 796 511 l 796 532 l 797 554 l 811 532 l 824 511 l 849 511 l 849 608 m 231 578 l 231 607 l 204 607 l 204 538 l 208 532 q 217 520 211 525 q 229 513 222 515 q 243 511 235 511 q 258 513 251 511 q 272 522 265 515 q 279 535 278 528 q 281 541 281 538 q 282 551 282 544 q 282 574 282 558 l 282 607 l 256 607 l 256 578 q 256 553 256 561 q 254 543 256 546 q 250 538 253 540 q 243 536 246 536 q 235 539 239 536 q 232 544 233 540 q 231 554 231 547 q 231 578 231 561 m 381 606 q 367 607 375 607 q 350 606 357 607 q 340 600 344 604 q 332 592 335 596 q 328 588 329 590 q 328 581 328 585 q 329 569 328 572 q 335 561 331 565 q 345 554 339 557 q 363 549 351 551 q 378 542 378 546 q 374 536 378 538 l 368 536 q 363 536 367 536 q 356 540 358 536 l 353 543 l 340 540 q 331 538 335 539 q 326 538 328 538 q 327 534 326 536 q 330 528 328 532 q 333 522 332 525 q 363 511 343 511 l 367 511 q 400 525 390 511 q 403 531 403 528 q 404 536 404 533 l 404 540 q 375 571 404 564 q 358 576 361 574 q 356 579 356 578 q 357 582 356 581 q 360 583 358 583 q 365 583 363 583 q 371 583 369 583 q 374 579 372 582 l 376 576 l 389 579 q 399 582 394 581 l 401 582 q 402 585 403 583 q 400 589 401 586 q 381 606 393 601 m 511 607 l 449 607 l 449 511 l 511 511 l 511 536 l 476 536 l 476 546 l 507 546 l 507 571 l 476 571 l 476 582 l 511 582 l 511 607 m 922 607 l 896 607 l 896 511 l 951 511 l 951 536 l 922 536 l 922 607 m 1001 594 l 994 607 l 963 607 l 965 604 q 971 594 967 601 q 982 576 975 586 l 996 551 l 996 511 l 1022 511 l 1022 551 l 1036 576 q 1048 595 1043 588 q 1053 604 1053 603 l 1054 607 l 1024 607 l 1017 594 q 1012 585 1014 589 q 1008 582 1010 582 l 1007 586 q 1001 594 1004 589 m 674 749 q 683 750 679 750 q 699 743 692 750 q 704 728 704 736 q 703 717 704 722 q 683 704 696 704 q 674 705 682 704 q 661 721 667 706 l 661 725 q 664 738 661 732 q 674 749 667 744 m 206 749 l 213 749 q 219 748 218 749 q 221 743 221 747 q 219 738 221 739 q 213 735 217 736 l 206 735 l 206 749 m 426 749 l 435 749 q 443 748 442 749 q 444 742 444 747 q 433 735 444 735 l 426 735 l 426 749 m 938 729 q 939 736 938 733 l 940 738 l 942 732 q 943 726 943 729 l 947 714 l 933 714 l 933 718 l 935 721 q 936 728 935 724 q 938 729 936 729 m 667 581 q 676 583 672 583 q 688 579 682 583 q 697 565 694 575 q 699 558 699 561 q 692 543 699 550 q 675 536 686 536 q 657 547 664 536 q 654 558 654 553 q 656 569 654 563 q 667 581 658 576 m 194 169 q 206 171 200 171 q 215 170 210 171 q 226 165 221 169 q 231 161 229 164 q 235 156 233 158 q 236 151 236 153 q 232 150 235 150 q 229 151 231 150 q 226 154 228 151 q 209 163 221 163 q 190 156 197 164 q 183 139 183 150 l 183 135 q 193 115 185 121 q 206 111 199 111 q 214 113 210 111 q 225 120 221 115 q 229 129 229 125 l 229 132 l 210 132 l 210 140 l 236 140 l 236 106 l 233 106 q 229 107 229 106 q 232 114 229 108 q 233 118 233 117 l 232 118 l 228 114 q 207 104 221 104 q 179 121 189 104 q 177 125 178 124 q 176 129 176 126 q 176 138 176 132 q 176 146 176 143 q 177 150 176 149 q 179 154 178 151 q 194 169 185 165 m 451 168 q 461 171 454 171 l 468 171 l 468 163 l 463 163 q 457 162 458 163 q 454 160 456 161 q 453 156 454 158 q 453 153 453 154 l 453 150 l 464 150 l 464 142 l 457 142 q 451 142 453 142 q 447 140 449 142 l 450 138 q 452 135 451 136 q 453 131 453 133 q 453 119 453 128 l 453 106 l 444 106 l 444 142 l 442 142 q 440 142 440 142 q 439 146 439 143 q 440 149 439 149 q 442 150 440 150 q 444 151 444 150 q 444 154 444 151 q 451 168 444 163 m 565 171 l 574 171 l 574 106 l 565 106 l 565 171 m 604 171 l 613 171 l 613 106 l 604 106 l 604 171 m 704 168 q 713 171 707 171 l 719 171 l 719 163 l 714 163 q 709 162 711 163 q 707 160 707 161 q 705 156 706 158 q 704 153 704 154 l 704 150 l 717 150 l 717 142 l 708 142 q 702 142 704 142 q 700 140 700 142 q 699 140 699 140 q 701 138 700 139 q 703 135 703 136 q 704 131 704 133 q 704 119 704 128 l 704 106 l 696 106 l 696 142 l 694 142 q 692 142 692 142 q 692 146 692 143 q 692 149 692 149 q 694 150 692 150 q 696 151 696 150 q 696 154 696 151 q 704 168 696 163 m 342 156 l 342 161 l 350 161 l 350 150 l 360 150 l 360 142 l 353 142 q 344 140 344 142 q 347 138 344 139 q 349 136 349 138 q 349 133 349 135 q 350 125 350 131 l 350 114 l 356 113 l 361 113 l 361 106 l 354 106 q 349 106 350 106 q 344 108 347 106 l 342 111 l 342 142 l 339 142 q 335 142 336 142 q 335 146 335 143 q 335 149 335 149 q 339 150 336 150 q 341 150 340 150 q 342 151 342 150 q 342 156 342 153 m 883 156 l 883 161 l 890 161 l 890 150 l 901 150 l 901 142 l 894 142 q 888 142 889 142 q 886 140 886 142 l 889 138 l 890 138 l 890 128 q 892 115 890 118 q 897 113 893 113 q 901 113 900 113 q 903 112 903 113 q 903 108 903 111 l 903 106 l 897 106 q 891 106 893 106 q 888 108 889 106 l 883 111 l 883 142 l 881 142 q 878 142 879 142 q 878 146 878 143 q 878 149 878 149 q 881 150 879 150 q 883 150 882 150 q 883 151 883 150 q 883 156 883 153 m 1050 156 l 1050 161 l 1058 161 l 1058 150 l 1068 150 l 1068 142 l 1061 142 q 1055 142 1057 142 q 1053 140 1053 142 l 1056 138 q 1057 137 1057 138 q 1058 134 1057 136 q 1058 128 1058 132 q 1059 115 1058 118 q 1065 113 1060 113 q 1068 113 1067 113 q 1069 112 1069 113 q 1069 108 1069 111 l 1069 106 l 1064 106 q 1058 106 1060 106 q 1054 108 1056 106 l 1050 111 l 1050 142 l 1047 142 q 1045 142 1046 142 q 1044 146 1044 143 q 1045 149 1044 149 q 1047 150 1046 150 q 1049 150 1049 150 q 1050 151 1050 150 q 1050 156 1050 153 m 282 149 q 290 150 286 150 q 303 145 297 150 q 311 129 310 140 l 311 125 l 293 125 q 280 124 283 125 q 276 122 276 124 l 276 121 q 278 118 276 119 q 288 113 281 113 l 290 113 q 299 115 294 113 q 303 119 301 118 q 308 119 306 119 q 310 118 310 119 q 307 114 310 117 q 301 108 304 111 q 297 106 299 106 l 292 106 q 285 106 289 106 q 276 107 281 106 q 268 126 268 114 q 269 135 268 128 q 282 149 269 143 m 297 140 q 287 142 292 143 q 278 136 282 142 l 278 133 l 276 132 l 281 132 q 289 131 283 131 q 297 132 293 131 l 301 132 q 302 134 303 132 q 300 138 301 136 q 297 140 299 139 m 754 149 q 763 150 758 150 q 771 149 767 150 q 783 126 783 143 q 780 113 783 119 q 769 106 776 107 q 763 104 765 104 q 756 105 760 104 q 747 110 751 106 q 742 121 743 114 q 740 131 740 125 l 740 135 q 746 143 742 139 q 754 149 750 147 m 769 140 q 760 143 764 143 q 751 139 756 143 q 747 128 747 135 q 750 118 747 124 q 760 113 753 113 l 764 113 q 771 114 767 113 q 775 128 775 119 q 769 140 775 136 m 828 149 q 836 150 832 150 q 842 149 839 150 q 849 142 846 147 q 850 136 850 140 q 850 122 850 132 l 850 106 l 843 106 l 843 121 q 843 132 843 128 q 842 138 843 136 q 840 140 842 139 q 835 142 839 142 q 828 140 832 143 q 823 135 824 139 q 821 119 822 131 l 821 106 l 814 106 l 814 150 l 818 150 q 821 149 821 150 q 819 144 821 147 q 817 142 818 143 q 817 139 817 140 l 817 136 l 818 139 q 823 145 821 143 q 828 149 825 147 m 992 149 q 997 150 994 150 q 1001 150 999 150 q 1015 144 1011 150 q 1018 126 1018 139 q 1018 119 1018 121 q 1018 115 1018 117 q 1019 114 1018 114 q 1022 110 1021 113 q 1022 107 1022 108 q 1019 106 1021 106 q 1013 113 1015 106 l 1010 117 l 1010 114 q 1006 106 1008 108 q 996 104 1003 104 q 985 108 989 104 q 982 115 982 111 q 982 120 982 117 q 989 128 982 124 q 994 130 990 129 q 1001 132 997 131 q 1007 133 1004 132 l 1010 133 l 1010 135 q 1008 138 1010 136 q 1003 142 1007 140 q 996 142 1000 143 q 990 138 992 142 q 988 136 989 136 q 985 136 988 136 q 982 138 982 136 l 983 142 q 987 146 985 144 q 992 149 989 147 m 1010 124 q 1008 126 1010 126 q 1003 125 1007 126 l 1001 125 q 994 122 997 124 q 991 120 992 121 q 990 119 990 119 q 989 117 989 118 q 997 111 989 111 q 1006 115 1001 111 q 1010 124 1010 119 m 493 132 l 493 150 l 501 150 l 501 133 q 501 122 501 125 q 502 117 501 118 q 503 114 503 115 q 508 113 506 113 q 515 113 511 113 q 521 118 518 114 q 522 124 522 121 q 522 136 522 128 l 524 150 l 531 150 l 531 132 q 531 123 531 126 q 531 117 531 119 q 531 115 531 115 q 533 114 532 114 q 535 110 535 113 q 535 107 535 108 q 533 106 535 106 q 528 108 531 106 q 524 114 525 110 q 522 115 522 115 q 521 111 522 114 q 517 106 519 107 q 510 104 515 104 q 494 111 500 104 q 494 118 494 114 q 493 132 493 122 m 196 49 q 199 49 197 49 q 204 50 201 50 l 210 49 l 210 40 l 204 40 q 198 40 200 40 q 194 38 196 39 q 192 33 193 35 q 192 29 192 32 l 192 25 l 204 25 l 204 15 l 194 15 q 188 15 190 15 q 185 14 185 15 l 188 11 l 192 8 l 192 -28 l 182 -28 l 182 15 l 178 15 q 176 15 176 15 q 175 17 175 15 q 175 19 175 18 q 176 24 175 22 q 178 25 176 25 q 180 25 179 25 q 181 26 181 25 q 182 31 182 28 q 196 49 183 46 m 575 36 l 575 50 l 585 50 l 585 17 q 585 1 585 7 q 585 -10 585 -6 q 586 -15 585 -14 l 586 -17 q 589 -18 588 -18 q 590 -19 590 -18 q 590 -24 590 -21 l 590 -26 l 589 -28 q 584 -26 588 -28 q 579 -22 581 -25 l 576 -19 l 572 -24 q 557 -29 565 -29 q 549 -28 553 -29 q 536 -11 539 -22 q 535 -3 535 -7 q 538 11 535 3 q 550 24 540 19 q 553 26 551 25 q 557 26 556 26 q 567 24 561 26 q 575 17 572 21 l 579 13 l 581 13 q 578 18 581 14 q 576 22 576 19 q 576 27 576 24 q 575 36 575 31 m 568 13 q 560 16 565 15 q 551 14 556 17 q 544 -4 544 8 q 547 -10 546 -7 q 547 -14 547 -12 q 557 -19 551 -18 l 560 -19 q 568 -17 564 -19 q 575 -1 575 -11 q 568 13 575 7 m 626 50 l 631 50 l 635 49 l 636 44 l 636 39 l 626 39 l 626 50 m 397 39 l 407 39 l 407 25 l 419 25 l 419 15 l 404 15 l 401 14 q 403 13 401 13 l 403 11 l 404 11 l 406 10 l 407 7 l 407 -4 q 408 -17 407 -15 q 410 -18 408 -18 q 415 -18 413 -18 l 419 -18 l 419 -28 l 414 -28 q 404 -26 407 -28 q 400 -22 401 -25 q 398 -15 399 -19 q 397 -1 397 -10 l 397 15 l 394 15 q 392 15 393 15 q 391 17 392 15 q 390 19 390 18 q 391 24 390 22 q 392 25 392 25 q 394 25 393 25 l 397 25 l 397 39 m 1051 39 l 1061 39 l 1061 25 l 1072 25 l 1072 15 l 1056 15 l 1056 14 l 1058 11 q 1060 8 1060 10 q 1060 4 1060 7 q 1061 -4 1061 1 l 1061 -18 l 1074 -18 l 1074 -29 l 1067 -28 q 1059 -27 1061 -28 q 1056 -24 1057 -26 l 1051 -21 l 1051 15 l 1047 15 q 1045 15 1046 15 q 1044 17 1044 15 q 1044 19 1044 18 q 1044 24 1044 22 q 1045 25 1044 25 q 1047 25 1046 25 l 1051 25 l 1051 39 m 249 25 l 254 26 q 263 25 258 26 q 271 19 267 24 l 274 17 l 274 21 q 274 24 274 24 q 278 25 275 25 l 282 25 l 282 -7 q 282 -26 282 -19 q 282 -35 282 -32 q 281 -40 282 -39 q 279 -43 281 -42 q 277 -46 279 -44 q 274 -49 275 -47 q 270 -51 272 -50 q 265 -51 268 -51 q 254 -51 261 -51 l 239 -51 l 239 -43 l 251 -43 q 261 -42 257 -43 q 267 -42 265 -42 q 274 -29 274 -37 q 274 -26 274 -28 q 276 -22 275 -24 q 278 -17 278 -18 q 274 -19 276 -17 q 261 -28 268 -25 q 254 -29 258 -29 q 247 -28 251 -29 q 240 -22 243 -26 q 235 -12 236 -17 q 233 -1 233 -8 q 235 8 233 4 q 240 18 236 14 q 249 25 243 22 m 265 14 q 259 16 264 15 q 251 15 254 17 q 243 4 244 13 l 243 0 q 246 -14 243 -7 q 256 -19 250 -19 q 261 -19 257 -19 q 271 -11 265 -19 q 272 -3 272 -7 q 272 3 272 -1 q 265 14 271 8 m 331 25 l 342 25 q 358 15 354 25 q 360 10 361 11 q 356 8 360 8 q 350 10 350 8 q 347 15 350 13 q 340 17 343 17 q 331 13 333 17 q 329 10 329 11 q 332 7 329 8 q 337 5 333 6 q 344 3 340 4 q 358 -3 354 0 q 361 -12 361 -7 q 361 -17 361 -15 q 358 -22 361 -19 q 342 -29 351 -29 q 332 -28 339 -29 q 319 -18 325 -28 q 318 -11 318 -12 q 322 -10 318 -10 q 327 -10 326 -10 q 328 -12 328 -11 l 329 -14 q 332 -17 329 -15 q 334 -19 333 -18 q 337 -19 335 -19 q 342 -19 339 -19 q 348 -19 346 -19 q 350 -17 350 -18 q 352 -15 351 -15 q 353 -12 353 -14 q 338 -6 353 -10 q 330 -3 333 -4 q 325 0 326 -1 q 321 5 322 1 q 319 13 319 8 q 324 20 321 17 q 331 25 328 24 m 689 25 l 694 25 q 706 23 700 25 q 718 14 713 21 q 720 7 719 10 q 721 0 721 4 l 721 -4 q 713 -24 721 -17 q 697 -29 706 -29 q 685 -26 693 -29 q 672 -10 676 -24 q 671 1 671 -4 q 674 11 671 7 q 681 19 676 15 q 689 25 685 24 m 703 15 l 697 17 q 692 15 696 17 q 683 10 688 14 q 681 1 681 6 q 681 -8 681 -4 q 694 -19 685 -18 l 697 -19 q 710 -12 706 -19 q 713 -1 713 -7 q 711 6 713 1 q 703 15 710 11 m 768 24 q 778 26 774 26 q 786 24 782 26 q 793 19 790 22 q 796 14 796 15 q 797 12 796 13 q 797 10 797 11 q 793 8 796 8 q 789 9 790 8 q 788 11 788 10 q 781 15 786 14 l 775 17 q 769 15 774 17 q 765 10 765 14 q 767 8 765 8 q 772 6 768 7 q 783 1 775 4 q 793 -2 790 0 q 797 -8 796 -4 q 799 -14 799 -11 q 793 -24 799 -19 q 776 -29 788 -29 q 762 -24 768 -29 q 756 -12 756 -19 q 756 -10 756 -11 q 760 -10 757 -10 q 764 -10 763 -10 q 765 -12 765 -11 q 778 -19 767 -19 q 789 -14 786 -19 q 787 -10 789 -11 q 779 -7 785 -8 q 765 -2 769 -4 q 758 3 761 0 q 757 7 757 4 l 757 11 q 768 24 757 21 m 901 22 q 906 25 904 24 q 910 26 908 26 q 921 22 915 26 q 928 13 926 18 q 928 5 928 11 q 929 -10 929 -1 l 929 -28 l 919 -28 l 919 -12 q 919 6 919 0 q 915 14 918 13 q 910 15 913 15 q 903 15 907 15 q 897 8 900 14 q 895 5 896 7 q 894 -1 894 3 q 894 -11 894 -4 l 893 -28 l 885 -28 l 885 25 l 889 25 q 893 24 892 25 q 894 22 894 24 l 893 21 q 892 18 892 19 q 889 13 889 15 l 889 11 l 892 15 q 901 22 896 19 m 983 25 l 989 26 q 998 25 993 26 q 1007 18 1003 24 q 1013 11 1011 15 q 1015 1 1014 7 l 1015 -6 l 975 -6 l 974 -7 q 976 -12 974 -10 q 982 -18 979 -15 q 989 -19 985 -19 q 994 -19 990 -19 q 1003 -14 999 -18 q 1004 -12 1003 -12 q 1008 -11 1006 -11 q 1013 -12 1013 -11 q 1011 -18 1014 -14 q 997 -28 1006 -25 q 989 -29 993 -29 q 981 -28 985 -29 q 964 -1 964 -21 q 983 25 965 19 m 997 14 q 990 16 994 15 q 983 15 986 17 q 978 11 981 14 q 975 6 975 8 l 974 3 l 989 3 q 999 3 996 3 q 1003 3 1003 3 q 1004 6 1004 4 q 1002 10 1004 7 q 997 14 1000 13 m 454 6 l 454 25 l 463 25 l 463 6 q 463 -6 463 -1 q 463 -12 463 -10 q 464 -15 464 -14 q 465 -17 464 -15 q 474 -19 468 -19 q 478 -19 475 -19 q 485 -12 482 -18 q 487 -9 486 -11 q 488 -3 488 -7 q 488 8 488 1 l 489 25 l 497 25 l 497 -15 l 500 -17 q 502 -19 501 -18 q 503 -24 503 -21 q 501 -28 503 -28 q 495 -26 499 -28 q 490 -19 492 -24 q 488 -17 489 -17 q 486 -24 486 -18 q 481 -28 485 -26 q 471 -29 476 -29 q 461 -26 465 -29 q 458 -24 460 -25 q 456 -19 457 -22 q 455 -15 456 -18 q 454 -8 454 -12 q 454 6 454 -4 m 626 25 l 631 25 l 635 24 l 636 -1 l 636 -28 l 626 -28 l 626 25 m 836 -17 q 838 -15 836 -15 q 842 -15 840 -15 l 847 -15 l 847 -28 l 835 -28 l 835 -22 q 836 -18 835 -19 l 836 -17 z "},"9":{"ha":1250,"x_min":83,"x_max":1167,"o":"m 328 1032 q 420 1033 335 1032 q 631 1033 506 1033 l 926 1033 l 942 1031 q 1063 978 1008 1018 q 1085 956 1071 969 q 1107 932 1099 943 q 1160 826 1146 885 q 1161 822 1161 824 q 1164 807 1163 814 q 1166 787 1165 800 q 1167 748 1167 774 q 1167 676 1167 722 l 1167 651 q 1167 563 1167 596 q 1167 514 1167 531 q 1165 489 1167 497 q 1163 472 1164 481 q 1085 332 1146 390 q 940 258 1026 274 l 924 256 l 632 256 q 486 254 543 254 q 397 255 429 254 q 347 256 364 256 q 323 256 331 256 q 307 258 315 257 l 307 260 q 147 351 211 276 q 86 482 100 407 l 83 499 l 83 788 l 86 803 q 163 954 100 892 q 328 1032 231 1021 m 699 774 q 683 776 690 776 q 660 771 674 776 q 638 747 647 765 q 635 742 636 744 q 635 736 635 739 q 635 726 635 733 q 635 717 635 721 q 635 712 635 714 q 638 707 636 710 q 660 685 646 692 q 682 679 671 679 l 690 679 q 725 703 714 683 q 732 728 732 715 q 729 744 732 736 q 717 762 725 754 q 699 774 708 769 m 854 776 l 829 776 l 829 754 l 828 733 l 815 754 l 801 775 l 775 775 l 775 679 l 803 679 l 803 722 l 817 701 l 831 679 l 854 679 l 854 776 m 228 774 q 222 774 225 774 q 215 775 219 775 q 200 775 210 775 l 179 775 l 179 679 l 206 679 l 206 710 l 215 711 q 224 712 221 711 q 231 714 228 713 q 249 742 249 724 l 249 744 q 228 774 246 765 m 353 775 l 290 775 l 290 679 l 353 679 l 353 704 l 318 704 l 318 714 l 349 714 l 349 739 l 318 739 l 318 749 l 353 749 l 353 775 m 454 771 l 449 775 l 400 775 l 400 679 l 426 679 l 426 694 q 426 706 426 703 q 428 710 426 710 q 432 706 429 710 q 439 694 435 701 l 449 679 l 479 679 l 476 685 q 468 697 472 690 l 457 714 l 461 718 q 465 723 463 721 q 468 728 467 725 q 471 733 471 731 q 471 742 471 736 q 471 751 471 747 q 469 756 471 754 q 454 771 464 765 m 567 774 q 553 775 561 775 q 538 772 543 775 q 515 749 517 765 q 516 738 515 742 q 521 729 517 733 q 549 717 528 721 q 560 714 557 715 q 565 710 564 713 q 565 708 565 708 q 564 706 565 707 q 557 704 561 704 q 551 704 556 704 q 543 708 546 704 l 540 711 l 533 710 l 532 710 q 526 708 529 708 q 521 707 522 707 q 515 704 515 706 l 515 703 q 517 697 515 701 q 542 679 524 683 q 553 678 547 678 q 576 683 564 678 q 592 706 592 690 l 592 711 q 558 739 592 733 q 543 746 543 742 q 544 749 543 747 q 553 751 547 751 q 561 747 558 751 l 564 744 l 578 747 q 585 749 582 749 q 588 749 588 749 q 590 751 589 750 q 589 753 590 751 q 581 765 588 760 q 567 774 575 771 m 957 768 l 954 775 l 925 775 l 910 728 q 899 694 904 708 q 894 679 894 681 l 922 679 l 925 690 l 940 689 l 954 689 l 956 683 l 957 679 l 971 679 q 982 679 979 679 q 985 681 985 679 l 982 688 q 971 722 978 700 q 963 749 967 736 q 957 767 958 761 l 957 768 m 1050 775 l 1024 775 l 1024 679 l 1079 679 l 1079 704 l 1050 704 l 1050 775 m 685 607 q 675 608 679 608 q 643 596 657 608 q 626 561 626 579 q 628 542 626 557 q 654 515 631 528 q 660 512 658 513 q 666 511 663 511 q 676 511 669 511 q 685 511 682 511 q 691 512 689 511 q 697 515 693 513 q 711 525 704 518 q 721 538 718 532 q 726 560 726 549 q 725 568 726 564 q 710 594 721 583 q 685 607 699 604 m 849 608 l 835 608 q 822 607 822 608 q 821 600 821 606 q 821 586 821 594 l 821 567 l 808 586 l 794 607 l 769 607 l 769 511 l 796 511 l 796 532 l 797 554 l 811 532 l 824 511 l 849 511 l 849 608 m 231 578 l 231 607 l 204 607 l 204 538 l 208 532 q 217 520 211 525 q 229 513 222 515 q 243 511 235 511 q 258 513 251 511 q 272 522 265 515 q 279 535 278 528 q 281 541 281 538 q 282 551 282 544 q 282 574 282 558 l 282 607 l 256 607 l 256 578 q 256 553 256 561 q 254 543 256 546 q 250 538 253 540 q 243 536 246 536 q 235 539 239 536 q 232 544 233 540 q 231 554 231 547 q 231 578 231 561 m 381 606 q 367 607 375 607 q 350 606 357 607 q 340 600 344 604 q 332 592 335 596 q 328 588 329 590 q 328 581 328 585 q 329 569 328 572 q 335 561 331 565 q 345 554 339 557 q 363 549 351 551 q 378 542 378 546 q 374 536 378 538 l 368 536 q 363 536 367 536 q 356 540 358 536 l 353 543 l 340 540 q 331 538 335 539 q 326 538 328 538 q 327 534 326 536 q 330 528 328 532 q 333 522 332 525 q 363 511 343 511 l 367 511 q 400 525 390 511 q 403 531 403 528 q 404 536 404 533 l 404 540 q 375 571 404 564 q 358 576 361 574 q 356 579 356 578 q 357 582 356 581 q 360 583 358 583 q 365 583 363 583 q 371 583 369 583 q 374 579 372 582 l 376 576 l 389 579 q 399 582 394 581 l 401 582 q 402 585 403 583 q 400 589 401 586 q 381 606 393 601 m 511 607 l 449 607 l 449 511 l 511 511 l 511 536 l 476 536 l 476 546 l 507 546 l 507 571 l 476 571 l 476 582 l 511 582 l 511 607 m 922 607 l 896 607 l 896 511 l 951 511 l 951 536 l 922 536 l 922 607 m 1001 594 l 994 607 l 963 607 l 965 604 q 971 594 967 601 q 982 576 975 586 l 996 551 l 996 511 l 1022 511 l 1022 551 l 1036 576 q 1048 595 1043 588 q 1053 604 1053 603 l 1054 607 l 1024 607 l 1017 594 q 1012 585 1014 589 q 1008 582 1010 582 l 1007 586 q 1001 594 1004 589 m 674 749 q 683 750 679 750 q 699 743 692 750 q 704 728 704 736 q 703 717 704 722 q 683 704 696 704 q 674 705 682 704 q 661 721 667 706 l 661 725 q 664 738 661 732 q 674 749 667 744 m 206 749 l 213 749 q 219 748 218 749 q 221 743 221 747 q 219 738 221 739 q 213 735 217 736 l 206 735 l 206 749 m 426 749 l 435 749 q 443 748 442 749 q 444 742 444 747 q 433 735 444 735 l 426 735 l 426 749 m 938 729 q 939 736 938 733 l 940 738 l 942 732 q 943 726 943 729 l 947 714 l 933 714 l 933 718 l 935 721 q 936 728 935 724 q 938 729 936 729 m 667 581 q 676 583 672 583 q 688 579 682 583 q 697 565 694 575 q 699 558 699 561 q 692 543 699 550 q 675 536 686 536 q 657 547 664 536 q 654 558 654 553 q 656 569 654 563 q 667 581 658 576 m 194 169 q 206 171 200 171 q 215 170 210 171 q 226 165 221 169 q 231 161 229 164 q 235 156 233 158 q 236 151 236 153 q 232 150 235 150 q 229 151 231 150 q 226 154 228 151 q 209 163 221 163 q 190 156 197 164 q 183 139 183 150 l 183 135 q 193 115 185 121 q 206 111 199 111 q 214 113 210 111 q 225 120 221 115 q 229 129 229 125 l 229 132 l 210 132 l 210 140 l 236 140 l 236 106 l 233 106 q 229 107 229 106 q 232 114 229 108 q 233 118 233 117 l 232 118 l 228 114 q 207 104 221 104 q 179 121 189 104 q 177 125 178 124 q 176 129 176 126 q 176 138 176 132 q 176 146 176 143 q 177 150 176 149 q 179 154 178 151 q 194 169 185 165 m 451 168 q 461 171 454 171 l 468 171 l 468 163 l 463 163 q 457 162 458 163 q 454 160 456 161 q 453 156 454 158 q 453 153 453 154 l 453 150 l 464 150 l 464 142 l 457 142 q 451 142 453 142 q 447 140 449 142 l 450 138 q 452 135 451 136 q 453 131 453 133 q 453 119 453 128 l 453 106 l 444 106 l 444 142 l 442 142 q 440 142 440 142 q 439 146 439 143 q 440 149 439 149 q 442 150 440 150 q 444 151 444 150 q 444 154 444 151 q 451 168 444 163 m 565 171 l 574 171 l 574 106 l 565 106 l 565 171 m 604 171 l 613 171 l 613 106 l 604 106 l 604 171 m 704 168 q 713 171 707 171 l 719 171 l 719 163 l 714 163 q 709 162 711 163 q 707 160 707 161 q 705 156 706 158 q 704 153 704 154 l 704 150 l 717 150 l 717 142 l 708 142 q 702 142 704 142 q 700 140 700 142 q 699 140 699 140 q 701 138 700 139 q 703 135 703 136 q 704 131 704 133 q 704 119 704 128 l 704 106 l 696 106 l 696 142 l 694 142 q 692 142 692 142 q 692 146 692 143 q 692 149 692 149 q 694 150 692 150 q 696 151 696 150 q 696 154 696 151 q 704 168 696 163 m 342 156 l 342 161 l 350 161 l 350 150 l 360 150 l 360 142 l 353 142 q 344 140 344 142 q 347 138 344 139 q 349 136 349 138 q 349 133 349 135 q 350 125 350 131 l 350 114 l 356 113 l 361 113 l 361 106 l 354 106 q 349 106 350 106 q 344 108 347 106 l 342 111 l 342 142 l 339 142 q 335 142 336 142 q 335 146 335 143 q 335 149 335 149 q 339 150 336 150 q 341 150 340 150 q 342 151 342 150 q 342 156 342 153 m 883 156 l 883 161 l 890 161 l 890 150 l 901 150 l 901 142 l 894 142 q 888 142 889 142 q 886 140 886 142 l 889 138 l 890 138 l 890 128 q 892 115 890 118 q 897 113 893 113 q 901 113 900 113 q 903 112 903 113 q 903 108 903 111 l 903 106 l 897 106 q 891 106 893 106 q 888 108 889 106 l 883 111 l 883 142 l 881 142 q 878 142 879 142 q 878 146 878 143 q 878 149 878 149 q 881 150 879 150 q 883 150 882 150 q 883 151 883 150 q 883 156 883 153 m 1050 156 l 1050 161 l 1058 161 l 1058 150 l 1068 150 l 1068 142 l 1061 142 q 1055 142 1057 142 q 1053 140 1053 142 l 1056 138 q 1057 137 1057 138 q 1058 134 1057 136 q 1058 128 1058 132 q 1059 115 1058 118 q 1065 113 1060 113 q 1068 113 1067 113 q 1069 112 1069 113 q 1069 108 1069 111 l 1069 106 l 1064 106 q 1058 106 1060 106 q 1054 108 1056 106 l 1050 111 l 1050 142 l 1047 142 q 1045 142 1046 142 q 1044 146 1044 143 q 1045 149 1044 149 q 1047 150 1046 150 q 1049 150 1049 150 q 1050 151 1050 150 q 1050 156 1050 153 m 282 149 q 290 150 286 150 q 303 145 297 150 q 311 129 310 140 l 311 125 l 293 125 q 280 124 283 125 q 276 122 276 124 l 276 121 q 278 118 276 119 q 288 113 281 113 l 290 113 q 299 115 294 113 q 303 119 301 118 q 308 119 306 119 q 310 118 310 119 q 307 114 310 117 q 301 108 304 111 q 297 106 299 106 l 292 106 q 285 106 289 106 q 276 107 281 106 q 268 126 268 114 q 269 135 268 128 q 282 149 269 143 m 297 140 q 287 142 292 143 q 278 136 282 142 l 278 133 l 276 132 l 281 132 q 289 131 283 131 q 297 132 293 131 l 301 132 q 302 134 303 132 q 300 138 301 136 q 297 140 299 139 m 754 149 q 763 150 758 150 q 771 149 767 150 q 783 126 783 143 q 780 113 783 119 q 769 106 776 107 q 763 104 765 104 q 756 105 760 104 q 747 110 751 106 q 742 121 743 114 q 740 131 740 125 l 740 135 q 746 143 742 139 q 754 149 750 147 m 769 140 q 760 143 764 143 q 751 139 756 143 q 747 128 747 135 q 750 118 747 124 q 760 113 753 113 l 764 113 q 771 114 767 113 q 775 128 775 119 q 769 140 775 136 m 828 149 q 836 150 832 150 q 842 149 839 150 q 849 142 846 147 q 850 136 850 140 q 850 122 850 132 l 850 106 l 843 106 l 843 121 q 843 132 843 128 q 842 138 843 136 q 840 140 842 139 q 835 142 839 142 q 828 140 832 143 q 823 135 824 139 q 821 119 822 131 l 821 106 l 814 106 l 814 150 l 818 150 q 821 149 821 150 q 819 144 821 147 q 817 142 818 143 q 817 139 817 140 l 817 136 l 818 139 q 823 145 821 143 q 828 149 825 147 m 992 149 q 997 150 994 150 q 1001 150 999 150 q 1015 144 1011 150 q 1018 126 1018 139 q 1018 119 1018 121 q 1018 115 1018 117 q 1019 114 1018 114 q 1022 110 1021 113 q 1022 107 1022 108 q 1019 106 1021 106 q 1013 113 1015 106 l 1010 117 l 1010 114 q 1006 106 1008 108 q 996 104 1003 104 q 985 108 989 104 q 982 115 982 111 q 982 120 982 117 q 989 128 982 124 q 994 130 990 129 q 1001 132 997 131 q 1007 133 1004 132 l 1010 133 l 1010 135 q 1008 138 1010 136 q 1003 142 1007 140 q 996 142 1000 143 q 990 138 992 142 q 988 136 989 136 q 985 136 988 136 q 982 138 982 136 l 983 142 q 987 146 985 144 q 992 149 989 147 m 1010 124 q 1008 126 1010 126 q 1003 125 1007 126 l 1001 125 q 994 122 997 124 q 991 120 992 121 q 990 119 990 119 q 989 117 989 118 q 997 111 989 111 q 1006 115 1001 111 q 1010 124 1010 119 m 493 132 l 493 150 l 501 150 l 501 133 q 501 122 501 125 q 502 117 501 118 q 503 114 503 115 q 508 113 506 113 q 515 113 511 113 q 521 118 518 114 q 522 124 522 121 q 522 136 522 128 l 524 150 l 531 150 l 531 132 q 531 123 531 126 q 531 117 531 119 q 531 115 531 115 q 533 114 532 114 q 535 110 535 113 q 535 107 535 108 q 533 106 535 106 q 528 108 531 106 q 524 114 525 110 q 522 115 522 115 q 521 111 522 114 q 517 106 519 107 q 510 104 515 104 q 494 111 500 104 q 494 118 494 114 q 493 132 493 122 m 196 49 q 199 49 197 49 q 204 50 201 50 l 210 49 l 210 40 l 204 40 q 198 40 200 40 q 194 38 196 39 q 192 33 193 35 q 192 29 192 32 l 192 25 l 204 25 l 204 15 l 194 15 q 188 15 190 15 q 185 14 185 15 l 188 11 l 192 8 l 192 -28 l 182 -28 l 182 15 l 178 15 q 176 15 176 15 q 175 17 175 15 q 175 19 175 18 q 176 24 175 22 q 178 25 176 25 q 180 25 179 25 q 181 26 181 25 q 182 31 182 28 q 196 49 183 46 m 575 36 l 575 50 l 585 50 l 585 17 q 585 1 585 7 q 585 -10 585 -6 q 586 -15 585 -14 l 586 -17 q 589 -18 588 -18 q 590 -19 590 -18 q 590 -24 590 -21 l 590 -26 l 589 -28 q 584 -26 588 -28 q 579 -22 581 -25 l 576 -19 l 572 -24 q 557 -29 565 -29 q 549 -28 553 -29 q 536 -11 539 -22 q 535 -3 535 -7 q 538 11 535 3 q 550 24 540 19 q 553 26 551 25 q 557 26 556 26 q 567 24 561 26 q 575 17 572 21 l 579 13 l 581 13 q 578 18 581 14 q 576 22 576 19 q 576 27 576 24 q 575 36 575 31 m 568 13 q 560 16 565 15 q 551 14 556 17 q 544 -4 544 8 q 547 -10 546 -7 q 547 -14 547 -12 q 557 -19 551 -18 l 560 -19 q 568 -17 564 -19 q 575 -1 575 -11 q 568 13 575 7 m 626 50 l 631 50 l 635 49 l 636 44 l 636 39 l 626 39 l 626 50 m 397 39 l 407 39 l 407 25 l 419 25 l 419 15 l 404 15 l 401 14 q 403 13 401 13 l 403 11 l 404 11 l 406 10 l 407 7 l 407 -4 q 408 -17 407 -15 q 410 -18 408 -18 q 415 -18 413 -18 l 419 -18 l 419 -28 l 414 -28 q 404 -26 407 -28 q 400 -22 401 -25 q 398 -15 399 -19 q 397 -1 397 -10 l 397 15 l 394 15 q 392 15 393 15 q 391 17 392 15 q 390 19 390 18 q 391 24 390 22 q 392 25 392 25 q 394 25 393 25 l 397 25 l 397 39 m 1051 39 l 1061 39 l 1061 25 l 1072 25 l 1072 15 l 1056 15 l 1056 14 l 1058 11 q 1060 8 1060 10 q 1060 4 1060 7 q 1061 -4 1061 1 l 1061 -18 l 1074 -18 l 1074 -29 l 1067 -28 q 1059 -27 1061 -28 q 1056 -24 1057 -26 l 1051 -21 l 1051 15 l 1047 15 q 1045 15 1046 15 q 1044 17 1044 15 q 1044 19 1044 18 q 1044 24 1044 22 q 1045 25 1044 25 q 1047 25 1046 25 l 1051 25 l 1051 39 m 249 25 l 254 26 q 263 25 258 26 q 271 19 267 24 l 274 17 l 274 21 q 274 24 274 24 q 278 25 275 25 l 282 25 l 282 -7 q 282 -26 282 -19 q 282 -35 282 -32 q 281 -40 282 -39 q 279 -43 281 -42 q 277 -46 279 -44 q 274 -49 275 -47 q 270 -51 272 -50 q 265 -51 268 -51 q 254 -51 261 -51 l 239 -51 l 239 -43 l 251 -43 q 261 -42 257 -43 q 267 -42 265 -42 q 274 -29 274 -37 q 274 -26 274 -28 q 276 -22 275 -24 q 278 -17 278 -18 q 274 -19 276 -17 q 261 -28 268 -25 q 254 -29 258 -29 q 247 -28 251 -29 q 240 -22 243 -26 q 235 -12 236 -17 q 233 -1 233 -8 q 235 8 233 4 q 240 18 236 14 q 249 25 243 22 m 265 14 q 259 16 264 15 q 251 15 254 17 q 243 4 244 13 l 243 0 q 246 -14 243 -7 q 256 -19 250 -19 q 261 -19 257 -19 q 271 -11 265 -19 q 272 -3 272 -7 q 272 3 272 -1 q 265 14 271 8 m 331 25 l 342 25 q 358 15 354 25 q 360 10 361 11 q 356 8 360 8 q 350 10 350 8 q 347 15 350 13 q 340 17 343 17 q 331 13 333 17 q 329 10 329 11 q 332 7 329 8 q 337 5 333 6 q 344 3 340 4 q 358 -3 354 0 q 361 -12 361 -7 q 361 -17 361 -15 q 358 -22 361 -19 q 342 -29 351 -29 q 332 -28 339 -29 q 319 -18 325 -28 q 318 -11 318 -12 q 322 -10 318 -10 q 327 -10 326 -10 q 328 -12 328 -11 l 329 -14 q 332 -17 329 -15 q 334 -19 333 -18 q 337 -19 335 -19 q 342 -19 339 -19 q 348 -19 346 -19 q 350 -17 350 -18 q 352 -15 351 -15 q 353 -12 353 -14 q 338 -6 353 -10 q 330 -3 333 -4 q 325 0 326 -1 q 321 5 322 1 q 319 13 319 8 q 324 20 321 17 q 331 25 328 24 m 689 25 l 694 25 q 706 23 700 25 q 718 14 713 21 q 720 7 719 10 q 721 0 721 4 l 721 -4 q 713 -24 721 -17 q 697 -29 706 -29 q 685 -26 693 -29 q 672 -10 676 -24 q 671 1 671 -4 q 674 11 671 7 q 681 19 676 15 q 689 25 685 24 m 703 15 l 697 17 q 692 15 696 17 q 683 10 688 14 q 681 1 681 6 q 681 -8 681 -4 q 694 -19 685 -18 l 697 -19 q 710 -12 706 -19 q 713 -1 713 -7 q 711 6 713 1 q 703 15 710 11 m 768 24 q 778 26 774 26 q 786 24 782 26 q 793 19 790 22 q 796 14 796 15 q 797 12 796 13 q 797 10 797 11 q 793 8 796 8 q 789 9 790 8 q 788 11 788 10 q 781 15 786 14 l 775 17 q 769 15 774 17 q 765 10 765 14 q 767 8 765 8 q 772 6 768 7 q 783 1 775 4 q 793 -2 790 0 q 797 -8 796 -4 q 799 -14 799 -11 q 793 -24 799 -19 q 776 -29 788 -29 q 762 -24 768 -29 q 756 -12 756 -19 q 756 -10 756 -11 q 760 -10 757 -10 q 764 -10 763 -10 q 765 -12 765 -11 q 778 -19 767 -19 q 789 -14 786 -19 q 787 -10 789 -11 q 779 -7 785 -8 q 765 -2 769 -4 q 758 3 761 0 q 757 7 757 4 l 757 11 q 768 24 757 21 m 901 22 q 906 25 904 24 q 910 26 908 26 q 921 22 915 26 q 928 13 926 18 q 928 5 928 11 q 929 -10 929 -1 l 929 -28 l 919 -28 l 919 -12 q 919 6 919 0 q 915 14 918 13 q 910 15 913 15 q 903 15 907 15 q 897 8 900 14 q 895 5 896 7 q 894 -1 894 3 q 894 -11 894 -4 l 893 -28 l 885 -28 l 885 25 l 889 25 q 893 24 892 25 q 894 22 894 24 l 893 21 q 892 18 892 19 q 889 13 889 15 l 889 11 l 892 15 q 901 22 896 19 m 983 25 l 989 26 q 998 25 993 26 q 1007 18 1003 24 q 1013 11 1011 15 q 1015 1 1014 7 l 1015 -6 l 975 -6 l 974 -7 q 976 -12 974 -10 q 982 -18 979 -15 q 989 -19 985 -19 q 994 -19 990 -19 q 1003 -14 999 -18 q 1004 -12 1003 -12 q 1008 -11 1006 -11 q 1013 -12 1013 -11 q 1011 -18 1014 -14 q 997 -28 1006 -25 q 989 -29 993 -29 q 981 -28 985 -29 q 964 -1 964 -21 q 983 25 965 19 m 997 14 q 990 16 994 15 q 983 15 986 17 q 978 11 981 14 q 975 6 975 8 l 974 3 l 989 3 q 999 3 996 3 q 1003 3 1003 3 q 1004 6 1004 4 q 1002 10 1004 7 q 997 14 1000 13 m 454 6 l 454 25 l 463 25 l 463 6 q 463 -6 463 -1 q 463 -12 463 -10 q 464 -15 464 -14 q 465 -17 464 -15 q 474 -19 468 -19 q 478 -19 475 -19 q 485 -12 482 -18 q 487 -9 486 -11 q 488 -3 488 -7 q 488 8 488 1 l 489 25 l 497 25 l 497 -15 l 500 -17 q 502 -19 501 -18 q 503 -24 503 -21 q 501 -28 503 -28 q 495 -26 499 -28 q 490 -19 492 -24 q 488 -17 489 -17 q 486 -24 486 -18 q 481 -28 485 -26 q 471 -29 476 -29 q 461 -26 465 -29 q 458 -24 460 -25 q 456 -19 457 -22 q 455 -15 456 -18 q 454 -8 454 -12 q 454 6 454 -4 m 626 25 l 631 25 l 635 24 l 636 -1 l 636 -28 l 626 -28 l 626 25 m 836 -17 q 838 -15 836 -15 q 842 -15 840 -15 l 847 -15 l 847 -28 l 835 -28 l 835 -22 q 836 -18 835 -19 l 836 -17 z "},"\u0000":{"ha":0,"x_min":0,"x_max":0,"o":""}," ":{"ha":304,"x_min":0,"x_max":0,"o":""},"\n":{"ha":0,"x_min":0,"x_max":0,"o":""},"!":{"ha":240,"x_min":17,"x_max":456,"o":"m 140 343 q 132 344 135 343 q 103 367 110 351 q 97 385 97 375 l 97 392 q 100 403 99 399 q 104 415 101 408 q 152 547 124 479 q 217 682 181 615 q 294 810 253 749 q 382 921 336 871 q 413 933 393 933 q 442 922 428 933 q 456 896 456 911 q 443 868 456 881 q 434 856 439 861 q 425 843 429 850 q 422 839 422 840 q 418 835 421 838 q 193 415 275 644 l 185 394 q 181 382 182 388 q 176 371 179 376 l 172 363 q 171 360 172 361 q 140 343 161 343 m 92 65 q 86 54 92 63 q 74 44 83 47 q 58 40 65 40 q 32 50 46 40 q 18 74 18 60 q 17 89 17 81 l 17 104 q 43 178 21 147 q 75 196 53 196 q 115 171 103 196 q 119 158 119 165 q 118 151 119 156 q 92 65 103 110 z "},"\"":{"ha":301,"x_min":143,"x_max":507,"o":"m 363 431 q 342 415 356 417 l 322 415 q 292 446 299 419 q 289 465 289 456 q 289 488 289 475 l 289 500 q 290 511 289 506 q 290 524 290 517 q 300 547 293 540 q 315 570 310 558 q 324 593 321 582 q 343 650 329 611 q 373 731 357 689 q 405 810 389 774 q 432 860 421 847 q 458 875 440 874 q 483 871 471 875 q 503 854 496 867 q 507 838 507 846 q 506 829 507 833 q 503 821 506 828 q 497 806 500 814 q 492 792 494 799 q 488 785 489 786 q 431 644 456 715 q 385 501 406 574 q 376 465 382 483 q 363 431 371 447 m 239 540 q 234 512 239 526 q 215 490 229 497 q 201 488 204 488 q 186 492 193 488 q 157 515 168 497 q 156 518 156 517 q 150 525 153 519 q 143 549 143 538 q 147 563 143 556 q 160 597 156 579 q 167 631 164 614 q 193 744 175 683 q 239 851 211 804 q 275 872 251 872 l 283 872 q 310 858 299 872 q 319 838 319 849 q 317 828 319 833 q 310 809 314 818 q 303 790 307 800 l 301 789 q 260 667 278 728 q 239 540 243 606 z "},"#":{"ha":619,"x_min":81,"x_max":690,"o":"m 536 421 q 540 410 536 417 q 550 404 542 407 q 561 403 556 403 q 572 401 567 403 q 585 401 579 401 q 597 400 590 400 q 625 385 614 397 q 633 365 633 375 l 633 360 q 613 341 626 344 q 585 338 600 338 l 565 338 q 554 338 560 338 q 543 336 549 338 q 526 333 538 336 q 510 319 514 329 q 502 293 506 306 q 496 268 499 281 q 466 145 481 206 q 438 22 451 85 q 431 -6 435 7 q 425 -31 428 -18 q 388 -58 418 -58 q 360 -46 369 -58 q 350 -19 350 -33 l 350 -15 q 355 12 353 -1 q 361 39 357 25 q 378 118 369 79 q 397 197 388 157 l 418 285 q 421 301 421 293 q 419 313 421 307 q 415 319 419 315 q 408 325 411 324 q 406 326 407 325 q 404 326 406 326 l 393 326 l 385 325 q 351 319 368 322 q 317 314 333 317 q 293 306 303 311 q 291 305 292 306 q 289 304 290 304 q 278 293 281 303 q 275 288 275 290 q 265 260 269 275 q 242 176 253 218 q 219 92 231 133 q 217 81 217 83 q 210 60 214 69 q 204 40 207 50 q 192 21 200 29 q 174 15 186 15 l 164 15 q 157 17 161 17 q 136 32 144 19 q 129 51 129 43 l 129 57 q 136 86 132 72 q 143 115 140 100 q 161 179 153 147 q 176 243 169 211 q 178 256 178 247 l 178 260 q 175 265 178 263 q 168 268 169 268 l 164 268 q 150 267 154 268 q 144 265 147 265 q 139 263 142 264 q 133 261 136 261 q 128 260 131 261 q 119 258 124 258 q 96 267 108 258 q 81 293 81 279 l 81 297 q 84 311 81 304 q 94 321 88 318 l 111 329 q 172 350 139 342 l 200 361 q 211 374 208 369 q 215 386 215 381 q 217 390 217 388 q 231 438 224 411 q 244 494 239 465 q 240 507 244 503 q 229 513 239 510 l 224 513 q 215 513 219 513 q 206 511 210 513 l 185 511 q 171 510 178 510 q 157 510 164 510 q 142 511 147 510 l 139 511 q 122 520 129 513 q 113 538 115 528 l 113 542 q 117 558 113 550 q 131 569 121 567 q 169 578 150 574 q 208 582 189 582 q 231 585 218 583 q 254 590 243 586 q 275 608 268 594 q 282 631 281 621 q 292 667 288 649 q 303 703 297 685 q 309 724 306 714 q 315 746 313 735 q 318 760 315 751 l 329 799 q 365 825 338 825 l 374 825 q 403 800 394 821 q 404 788 404 793 l 404 782 q 400 760 403 771 q 394 735 397 749 q 388 713 392 724 q 382 690 385 701 q 375 667 379 679 q 368 642 371 654 q 367 632 367 636 q 365 624 367 628 l 365 618 q 370 610 365 615 q 378 604 375 604 l 414 604 q 427 606 421 606 q 439 606 433 606 q 461 607 451 607 q 479 610 471 607 q 501 631 494 614 q 510 663 507 649 q 518 690 514 676 q 526 715 522 703 l 547 782 q 553 799 550 790 q 561 817 557 807 q 581 833 565 828 q 590 835 586 835 q 611 828 601 835 q 629 797 629 819 q 631 789 631 793 q 625 767 631 778 q 600 686 614 724 q 593 660 596 672 q 589 633 590 647 q 588 631 588 632 q 592 625 588 629 q 600 619 594 619 q 606 618 604 619 q 618 617 614 618 l 649 617 q 677 604 664 614 q 690 579 690 594 q 681 560 690 567 q 658 549 671 550 q 642 549 650 549 q 626 547 635 549 l 610 547 q 599 547 604 547 q 586 546 593 546 q 558 522 564 543 q 545 476 551 499 q 536 429 539 454 l 536 421 m 469 519 q 465 529 469 525 q 458 533 464 533 q 445 535 451 535 q 433 535 439 535 q 425 536 431 536 q 400 535 413 536 q 375 532 388 533 q 363 531 368 532 q 353 526 358 529 q 336 513 340 522 q 319 463 326 489 q 308 410 313 438 l 308 407 q 311 394 308 399 q 325 389 317 389 q 378 392 351 389 q 431 403 404 396 q 443 411 438 403 q 444 413 444 413 q 446 415 444 414 q 447 418 447 417 q 449 421 447 419 q 461 470 456 446 q 469 519 467 494 z "},"$":{"ha":511,"x_min":104,"x_max":492,"o":"m 371 93 q 347 51 365 74 q 306 26 328 29 q 297 26 301 26 q 289 25 293 25 l 264 21 q 253 15 257 19 q 249 7 250 10 q 246 -1 247 3 q 244 -8 244 -4 q 243 -12 243 -11 q 242 -17 243 -14 q 240 -22 240 -19 q 239 -26 240 -24 q 234 -41 236 -33 q 229 -56 232 -49 q 213 -68 225 -67 q 189 -58 197 -68 q 183 -40 183 -50 q 182 -26 182 -33 q 188 8 182 -10 q 193 35 192 25 l 193 42 q 191 53 193 47 q 183 66 189 60 q 165 81 176 72 l 163 83 q 154 90 158 86 q 147 97 150 94 q 135 106 140 101 q 125 115 131 111 q 113 126 117 124 l 111 128 q 104 147 104 136 l 104 154 q 122 176 107 169 q 133 179 128 179 q 142 178 138 179 q 158 169 153 174 q 175 158 164 167 q 189 149 183 154 q 196 146 190 149 q 200 144 199 146 l 203 144 q 208 145 206 144 q 213 149 211 146 q 220 166 218 157 q 224 182 222 175 q 242 267 233 225 q 258 347 251 310 q 260 364 260 353 q 261 371 261 365 l 261 379 q 258 406 261 392 q 243 453 249 432 l 239 463 q 216 537 225 503 q 200 603 207 571 q 192 690 192 646 q 193 731 192 711 q 215 779 196 760 q 251 800 231 796 q 272 803 261 803 q 286 801 279 803 l 313 801 q 325 813 321 804 q 331 826 328 818 q 331 838 331 833 q 332 850 332 843 q 333 863 333 854 q 335 875 335 869 q 336 886 335 881 q 347 901 336 893 q 360 904 354 904 q 368 903 364 904 q 389 872 385 894 q 390 853 390 867 q 389 843 389 849 q 388 831 389 838 q 386 815 388 821 l 386 811 q 386 801 386 807 q 385 788 386 794 q 400 751 385 765 l 408 743 q 419 733 414 738 q 431 722 425 728 q 478 665 461 690 q 488 647 482 654 q 488 645 488 646 q 489 643 489 644 q 492 633 492 639 q 490 625 492 629 q 458 606 482 606 q 429 618 440 606 l 413 639 q 406 647 410 643 q 399 656 401 651 q 385 664 394 661 l 383 664 q 376 661 379 664 q 367 622 369 644 l 367 621 q 352 535 360 578 q 338 453 344 493 l 333 432 q 332 419 332 425 q 336 397 332 407 q 366 289 353 344 q 382 178 379 233 l 382 169 q 371 93 382 135 m 283 578 q 292 574 286 574 q 299 579 297 576 q 301 583 301 582 q 312 640 308 611 q 318 706 315 669 l 318 711 q 307 729 318 722 q 293 733 299 733 q 286 732 289 733 q 278 726 279 728 q 269 706 269 717 q 267 692 268 699 q 267 678 267 685 q 271 628 267 650 q 281 583 275 606 l 283 578 m 289 193 q 279 167 283 185 q 278 160 278 164 q 276 154 278 157 q 272 132 274 143 q 271 115 271 124 l 271 108 q 274 106 271 106 l 274 104 q 279 103 275 103 q 286 106 283 103 q 299 138 297 121 q 301 156 301 147 q 301 174 301 164 q 300 182 300 178 q 299 190 300 186 l 296 193 q 293 194 294 194 q 289 193 290 194 z "},"%":{"ha":713,"x_min":99,"x_max":658,"o":"m 642 744 q 619 710 631 728 q 597 676 608 693 q 590 666 594 671 q 583 654 586 661 l 508 540 q 356 304 433 422 q 203 68 279 186 q 183 40 192 53 q 164 15 174 26 q 138 3 156 3 l 136 3 q 107 14 115 3 q 99 39 99 26 q 100 50 99 44 q 107 67 101 56 q 120 87 114 76 q 133 108 126 97 q 340 427 233 264 q 557 760 446 590 q 572 782 564 771 q 586 804 579 793 q 593 810 589 807 q 600 817 597 814 l 613 821 l 617 821 q 642 810 631 819 q 657 790 654 801 q 658 783 658 786 q 656 772 658 778 q 649 758 653 765 q 642 744 646 751 m 358 664 q 342 574 356 619 q 294 499 329 529 q 247 483 275 483 q 189 510 211 483 q 160 571 168 538 q 154 628 154 597 l 154 649 q 179 732 157 692 q 235 797 201 772 q 278 811 258 811 l 282 811 q 315 794 303 808 q 347 733 338 772 q 358 664 356 693 m 263 593 q 278 668 278 624 l 278 675 q 277 684 278 679 q 275 696 276 689 q 269 703 275 700 l 269 704 q 263 704 267 704 q 256 701 258 704 q 255 700 256 700 q 254 699 254 700 q 251 696 251 697 q 249 693 250 694 q 229 622 229 657 q 232 597 229 610 q 238 585 235 589 q 239 582 239 585 q 242 581 240 581 q 246 579 243 581 q 250 581 249 579 l 251 581 l 256 585 q 263 593 261 590 m 614 218 l 614 213 q 600 151 614 185 q 574 108 590 131 q 538 69 558 86 q 494 40 518 51 q 446 29 471 29 q 383 65 403 36 q 375 82 378 74 q 369 113 369 99 l 369 118 q 378 174 369 144 q 399 231 386 203 q 427 285 411 260 q 457 332 443 311 l 464 339 q 465 340 464 340 q 465 342 465 340 q 500 356 482 356 q 536 346 524 353 q 594 294 575 328 q 614 218 614 260 m 538 232 q 532 258 538 249 q 525 265 529 263 l 525 267 q 519 268 524 268 l 517 268 l 515 267 q 493 241 504 258 q 473 203 482 224 q 458 161 464 182 q 449 128 451 140 l 449 125 q 453 115 449 117 q 463 113 456 113 l 464 114 l 472 118 q 518 167 499 133 q 538 232 538 201 z "},"&":{"ha":599,"x_min":60,"x_max":565,"o":"m 518 872 q 561 826 550 854 q 565 800 565 814 q 558 761 565 782 q 543 728 553 744 q 524 697 533 713 q 499 658 511 678 q 475 618 486 638 q 454 584 464 601 q 433 550 444 567 q 421 531 426 539 q 411 514 415 522 q 400 479 400 494 q 401 469 400 474 l 401 457 q 414 300 413 369 l 414 294 q 422 282 417 286 q 432 281 425 281 q 451 289 446 286 q 464 294 458 292 q 476 299 469 296 q 488 301 482 301 q 499 298 493 301 q 513 289 506 294 q 524 265 524 279 q 522 254 524 260 q 496 228 514 236 q 490 225 493 228 q 475 217 479 219 q 460 207 468 211 q 444 199 451 203 q 420 178 425 185 q 413 147 415 171 q 409 92 410 119 q 407 32 408 64 q 406 -2 407 14 q 400 -33 404 -18 q 396 -51 399 -40 q 376 -68 390 -64 q 371 -69 374 -68 q 365 -69 368 -69 q 338 -58 350 -69 q 326 -32 326 -47 l 326 -15 q 326 6 326 -7 q 328 35 326 18 q 329 44 329 39 q 331 58 331 51 q 332 71 331 64 q 331 77 332 74 q 331 83 331 81 q 324 94 331 92 q 317 97 319 97 q 314 96 315 97 l 311 94 q 295 83 303 88 q 279 71 288 78 l 213 21 q 178 0 200 10 q 139 -10 156 -10 q 97 3 115 -10 q 68 33 78 15 q 60 67 60 50 q 63 88 60 78 q 85 138 69 114 l 101 165 q 110 179 106 172 q 119 193 115 186 q 203 329 161 261 q 286 464 246 397 l 294 478 q 303 491 299 485 q 310 504 307 497 q 317 532 317 515 q 316 542 317 538 q 315 551 315 547 l 315 556 q 310 603 313 582 q 304 644 308 625 q 300 665 301 656 q 297 685 299 675 q 292 710 294 697 q 288 735 290 722 q 282 786 282 758 q 283 814 282 800 q 300 860 285 843 q 337 884 315 876 q 383 894 358 892 q 431 896 408 896 q 463 892 446 896 q 501 881 481 889 q 518 872 510 879 m 486 796 l 486 799 q 483 811 486 804 q 471 822 479 821 l 467 824 q 449 828 457 826 q 431 832 440 831 q 418 833 424 833 q 381 822 397 833 q 362 799 365 817 q 358 768 358 782 l 360 760 q 367 719 364 740 q 375 678 371 699 q 385 651 378 663 q 389 647 386 647 l 392 649 q 404 658 400 651 q 444 720 426 692 q 478 774 463 749 q 481 783 481 778 q 485 792 482 788 q 486 796 485 794 m 154 93 q 157 85 154 88 l 161 85 q 176 90 171 85 q 236 135 207 113 q 293 182 265 158 q 306 192 300 188 q 317 201 311 196 q 333 236 333 217 l 333 301 q 329 344 333 324 q 324 351 326 350 l 319 351 q 314 350 317 351 q 304 340 308 346 q 296 328 300 335 q 231 223 264 276 q 161 108 197 169 q 154 93 156 101 z "},"'":{"ha":186,"x_min":211,"x_max":408,"o":"m 407 864 q 397 841 403 853 q 385 814 392 829 q 314 625 342 722 q 309 606 311 615 q 304 586 307 596 q 300 572 301 579 q 296 556 299 564 q 289 533 294 546 q 269 514 282 521 q 256 511 261 511 q 240 515 247 511 q 214 549 218 524 q 213 557 213 551 q 211 564 211 558 q 214 585 211 571 q 222 610 218 597 q 229 633 226 622 q 243 686 233 656 q 265 749 253 717 q 290 810 276 781 q 313 860 303 839 q 321 875 317 867 q 331 890 325 883 q 353 907 338 903 q 364 908 358 908 q 382 904 374 908 q 401 889 397 897 q 408 871 408 879 q 407 864 408 867 z "},"(":{"ha":347,"x_min":64,"x_max":478,"o":"m 157 233 q 146 146 150 190 q 143 76 143 111 l 143 53 q 144 25 144 39 q 144 -1 144 11 q 182 -282 144 -131 l 183 -283 q 188 -300 186 -292 q 189 -318 189 -308 q 165 -346 189 -342 q 141 -343 153 -346 q 122 -326 129 -340 l 121 -324 q 105 -279 113 -306 q 92 -224 97 -253 q 82 -167 86 -194 q 76 -119 78 -139 q 67 -47 71 -83 q 64 25 64 -11 q 64 74 64 47 q 68 129 64 100 q 69 140 68 135 q 69 153 69 146 q 160 558 82 360 q 371 917 239 757 q 375 922 374 919 q 392 942 383 932 q 411 961 400 953 q 438 969 422 969 q 469 956 457 969 q 477 937 476 949 q 474 918 478 925 q 465 907 469 913 q 456 894 461 901 q 444 881 449 888 q 432 867 439 874 q 410 838 421 851 q 389 810 400 825 q 238 536 297 686 q 157 233 178 386 z "},")":{"ha":396,"x_min":22,"x_max":456,"o":"m 299 169 q 224 33 263 100 q 149 -101 186 -35 q 127 -139 138 -121 q 106 -176 117 -157 q 89 -201 100 -189 q 60 -212 78 -212 q 28 -193 40 -210 q 22 -175 22 -185 q 25 -162 22 -169 q 31 -149 28 -156 q 39 -135 35 -142 q 65 -88 51 -111 q 90 -42 78 -65 q 129 28 108 -8 q 212 177 171 103 q 289 329 253 251 q 344 478 321 403 q 375 632 367 553 q 381 693 378 660 l 381 714 q 379 758 381 736 q 378 794 379 776 q 374 831 376 811 q 370 849 371 840 q 368 867 369 858 q 363 900 365 883 q 356 932 361 917 l 356 950 q 360 963 356 958 q 386 975 372 975 l 389 975 q 422 954 413 972 q 436 917 432 936 q 452 797 449 856 q 456 675 456 738 q 442 544 456 610 q 408 413 429 478 q 358 288 386 349 q 299 169 329 226 z "},"*":{"ha":508,"x_min":253,"x_max":703,"o":"m 521 768 q 514 761 517 765 q 511 756 511 758 q 513 751 511 753 q 514 747 514 749 q 515 743 514 746 q 518 735 517 739 q 521 729 519 732 q 526 717 524 722 q 532 707 529 713 q 546 676 539 692 q 557 644 553 661 q 558 638 558 640 q 546 617 558 625 q 528 610 538 610 q 515 613 522 610 q 488 638 497 619 q 482 650 485 642 q 474 663 478 657 q 465 672 471 668 q 460 675 463 675 l 457 675 q 454 674 456 674 q 447 669 449 671 q 438 657 443 663 q 431 646 433 651 q 419 628 424 638 q 408 611 414 619 q 397 594 401 603 q 385 575 392 585 q 378 565 382 569 q 369 556 374 561 q 358 550 361 550 q 344 547 347 547 q 308 569 322 547 q 304 583 304 578 q 307 594 304 589 q 328 633 315 614 q 336 647 333 642 q 340 652 339 650 q 343 657 340 654 q 358 689 356 674 q 356 696 358 694 q 351 697 354 697 q 343 696 346 697 q 332 692 336 696 q 322 688 326 689 q 313 683 318 686 q 293 681 303 681 q 282 682 288 681 q 254 706 261 686 q 253 715 253 711 q 255 728 253 721 q 265 740 257 735 l 268 742 q 300 759 283 751 q 332 774 317 767 l 357 786 q 372 794 364 789 q 381 804 378 796 q 378 817 381 814 q 375 822 376 819 q 372 826 374 824 q 365 837 368 832 q 358 847 361 842 q 356 857 356 851 q 357 867 356 861 q 367 883 357 876 q 386 888 375 888 q 414 878 404 888 q 423 869 418 874 q 432 861 428 865 l 446 849 q 453 847 450 847 q 460 849 457 847 l 472 861 q 481 874 476 868 q 488 886 485 879 q 501 906 496 897 q 513 921 506 913 q 528 932 519 929 q 544 936 536 936 q 569 926 557 936 q 583 904 582 917 q 585 893 583 897 l 585 886 q 590 876 585 878 q 599 874 593 874 l 603 874 q 619 876 608 874 q 632 879 628 879 l 636 881 q 647 882 642 882 q 657 883 651 882 l 660 883 q 699 860 685 883 q 702 844 703 853 q 694 829 701 836 q 674 817 688 822 q 652 811 663 814 q 631 806 642 808 l 615 801 q 536 776 576 792 q 521 768 526 774 z "},"+":{"ha":557,"x_min":103,"x_max":550,"o":"m 344 290 q 335 266 339 278 q 325 243 331 254 q 318 226 322 235 q 310 210 314 218 q 282 194 301 197 q 260 197 269 194 q 242 210 251 200 q 233 232 233 221 q 235 240 233 236 q 242 261 239 251 q 250 281 246 271 l 263 314 q 266 326 265 321 q 269 339 267 332 q 270 344 269 342 q 271 349 271 346 q 269 354 271 350 q 264 360 268 358 l 261 360 q 253 361 258 361 q 247 362 250 363 q 242 361 244 361 q 197 353 217 357 q 158 346 178 350 l 154 346 q 122 353 139 346 q 104 379 107 363 q 103 385 103 382 q 108 400 103 392 q 122 411 114 408 l 124 411 q 151 419 138 415 q 181 425 165 424 q 189 426 185 425 q 199 426 193 426 q 238 433 218 431 q 282 438 258 436 q 299 442 289 438 q 313 451 308 446 q 324 471 319 461 q 337 503 331 486 q 350 535 343 519 l 358 556 q 360 560 360 558 q 363 565 361 563 l 367 576 q 379 604 371 590 q 390 618 385 613 q 410 628 399 628 q 426 624 418 628 q 442 614 438 618 q 454 592 451 608 q 455 580 454 586 q 453 567 456 574 q 446 548 450 557 q 439 531 442 539 q 435 521 436 525 q 432 511 433 517 q 426 499 429 503 q 415 467 419 481 q 418 451 415 456 q 432 443 421 446 q 448 441 440 442 q 463 439 456 440 q 510 435 488 439 q 543 417 528 435 q 550 401 549 410 l 550 397 q 547 386 550 392 q 524 368 538 369 q 510 367 518 367 l 503 367 q 489 368 494 367 q 449 372 469 371 q 408 372 428 372 q 392 369 397 372 q 374 358 381 368 q 367 345 371 351 q 361 332 364 339 q 353 310 357 321 q 344 290 349 300 z "},",":{"ha":135,"x_min":-176,"x_max":11,"o":"m -14 185 q 8 165 1 179 q 11 150 11 158 q 10 138 11 144 q 4 124 7 131 q -3 110 1 117 q -87 -101 -47 18 q -93 -117 -90 -108 q -100 -135 -96 -126 q -129 -153 -110 -153 q -144 -149 -139 -153 q -165 -133 -156 -144 q -174 -117 -172 -125 q -176 -93 -176 -106 l -176 -85 q -175 -68 -176 -76 q -168 -50 -172 -54 q -151 -22 -157 -36 q -139 7 -144 -7 q -112 74 -126 40 q -82 140 -97 107 q -74 156 -78 147 q -64 171 -69 164 q -50 184 -58 181 q -32 189 -42 188 q -28 188 -29 189 q -26 188 -28 188 q -14 185 -22 188 z "},"-":{"ha":554,"x_min":94,"x_max":540,"o":"m 139 329 q 101 350 114 329 q 94 367 94 358 q 104 386 94 376 q 126 397 115 396 q 142 401 133 400 q 157 404 150 401 q 191 410 174 407 q 228 414 208 414 q 233 415 232 414 q 336 425 285 425 q 438 424 388 425 l 456 424 l 474 422 q 511 416 490 422 q 539 392 532 410 q 540 381 540 386 q 538 367 540 374 q 522 354 533 357 q 506 351 515 351 q 492 353 499 351 q 460 353 476 353 q 426 354 443 353 l 404 354 l 404 353 l 329 353 q 258 346 297 353 q 240 343 249 344 q 221 340 231 342 q 192 336 206 338 q 163 331 178 335 q 153 329 160 329 l 139 329 z "},".":{"ha":138,"x_min":-89,"x_max":13,"o":"m -26 196 q 7 178 -3 193 q 13 153 13 168 q 12 150 13 151 q 11 147 11 149 q -10 81 -1 114 q -12 71 -11 75 q -15 61 -14 67 q -26 47 -18 53 q -46 40 -35 40 q -74 51 -62 40 q -89 79 -86 63 l -89 103 q -84 133 -89 115 q -69 167 -79 151 q -60 182 -64 178 q -32 196 -50 196 l -26 196 z "},"/":{"ha":253,"x_min":-260,"x_max":651,"o":"m -226 -214 q -258 -186 -251 -211 q -260 -176 -260 -181 q -257 -167 -260 -171 l -257 -165 q -252 -155 -254 -160 q -247 -144 -250 -150 q -234 -123 -240 -133 q -221 -101 -228 -112 l -218 -99 q 147 464 -40 185 q 533 1018 335 743 q 556 1049 544 1033 q 576 1075 567 1064 q 608 1090 586 1090 l 615 1090 q 647 1069 636 1089 q 651 1051 651 1060 q 646 1033 651 1042 q 637 1017 642 1025 q 625 1001 632 1010 l 624 999 q 230 435 421 718 q -146 -142 39 151 q -175 -187 -162 -167 q -181 -195 -178 -192 q -186 -203 -183 -199 q -215 -215 -199 -215 l -217 -215 q -226 -214 -224 -215 z "},":":{"ha":226,"x_min":-3,"x_max":239,"o":"m 151 450 q 128 464 136 453 q 119 486 119 475 q 125 519 119 499 q 140 558 131 539 q 163 591 150 576 q 193 607 176 606 q 225 597 215 607 q 238 578 233 589 q 239 568 239 572 q 236 556 239 561 l 233 550 q 213 510 222 531 q 194 469 203 489 q 164 450 188 450 l 151 450 m 76 64 q 65 48 74 54 q 47 40 57 42 q 10 56 25 40 q -3 86 -3 68 l -3 93 q 3 117 0 104 q 8 140 6 129 q 24 174 14 156 q 58 196 33 196 q 71 194 64 196 q 90 182 82 192 q 101 161 99 172 l 101 157 q 99 144 101 149 q 86 103 92 124 q 76 64 81 83 z "},";":{"ha":225,"x_min":-93,"x_max":240,"o":"m 167 444 q 119 471 133 444 q 117 481 118 475 l 117 490 q 165 592 131 550 q 194 606 178 606 q 204 604 199 606 q 239 569 232 600 q 240 567 240 568 q 239 564 240 565 l 239 561 q 237 554 238 558 q 233 547 236 550 q 212 508 222 528 q 194 468 201 488 q 167 444 188 449 m -7 -143 q -11 -154 -10 -149 q -15 -165 -12 -160 q -32 -183 -19 -176 q -47 -187 -40 -187 q -57 -186 -54 -187 q -74 -178 -68 -182 q -90 -151 -90 -165 q -92 -137 -92 -144 l -92 -122 q -93 -108 -93 -115 q -91 -92 -93 -101 q -81 -74 -89 -82 q -70 -58 -74 -67 q -64 -43 -67 -50 q -25 67 -46 11 q 25 174 -4 124 q 43 188 31 182 q 56 190 50 190 q 64 189 60 190 q 82 182 71 188 q 99 165 93 176 q 101 151 101 158 q 100 143 101 147 l 99 142 q 89 115 94 125 q 39 -7 63 57 q -7 -143 15 -71 z "},"<":{"ha":446,"x_min":131,"x_max":544,"o":"m 525 585 q 539 572 535 579 q 544 556 544 564 l 544 551 q 533 532 544 543 q 511 522 522 525 q 444 499 478 511 q 379 476 411 488 l 342 463 q 339 461 340 461 q 336 460 338 461 l 325 457 l 319 454 q 292 445 306 450 q 263 435 278 440 q 256 431 260 432 q 249 426 251 429 q 242 422 247 425 l 242 421 q 240 418 240 421 l 240 410 q 242 406 242 407 q 244 403 243 406 q 251 394 247 399 q 257 385 254 389 q 308 328 283 357 q 357 271 333 300 q 369 256 364 264 q 379 240 375 249 q 383 225 383 236 q 377 208 383 215 q 364 199 371 200 q 353 197 360 197 q 331 203 339 197 q 314 218 322 210 q 224 321 268 271 q 146 411 181 371 q 142 414 143 413 q 140 417 142 415 q 139 419 139 418 q 138 421 139 419 q 131 442 131 432 q 132 450 131 446 q 149 469 135 465 q 210 493 179 482 q 272 515 240 504 l 321 532 l 449 576 l 454 578 q 474 584 464 581 q 493 590 483 588 q 504 592 499 592 q 525 585 515 592 z "},"=":{"ha":668,"x_min":106,"x_max":664,"o":"m 204 475 q 171 489 183 475 q 161 506 163 497 l 161 518 q 169 531 164 525 q 183 540 175 538 q 201 544 194 544 q 308 557 257 553 q 350 560 329 558 q 392 564 371 561 q 410 567 401 567 q 428 568 419 567 q 514 569 469 568 q 608 569 558 569 q 621 569 615 569 q 633 567 626 569 q 663 544 653 563 q 664 533 664 539 q 661 519 664 526 q 642 503 656 507 l 639 503 q 634 501 636 501 q 629 500 632 501 l 593 500 q 569 499 581 499 q 544 499 557 499 q 512 499 528 499 q 479 497 496 499 q 434 496 458 497 q 383 492 410 494 q 342 488 363 488 q 299 484 322 486 q 253 478 276 482 q 238 476 246 476 q 222 475 229 475 l 204 475 m 625 311 q 618 296 624 304 q 604 288 613 288 l 594 283 q 591 283 592 283 q 588 282 590 282 q 526 278 557 281 q 463 271 494 275 q 448 269 456 269 q 433 269 440 269 q 426 268 428 269 q 385 266 406 268 q 342 261 364 264 q 315 258 328 258 q 288 257 301 258 q 244 254 267 256 q 199 249 222 253 q 184 247 192 247 q 169 246 176 246 q 156 244 160 246 q 146 246 153 244 q 131 251 139 247 q 118 258 124 254 q 113 265 113 261 l 111 265 q 106 283 106 274 q 107 294 106 289 q 129 314 114 310 l 133 314 q 161 317 147 315 q 189 321 175 318 q 283 329 235 326 l 292 329 q 303 329 297 329 q 319 331 310 329 q 373 338 346 336 q 426 340 400 339 l 433 342 q 460 343 447 342 q 488 347 474 344 q 557 353 524 353 q 583 351 571 353 q 592 350 590 351 l 596 350 q 618 336 608 347 q 625 315 625 326 l 625 311 z "},">":{"ha":494,"x_min":135,"x_max":483,"o":"m 440 347 l 432 343 q 421 338 426 340 q 410 333 415 336 q 386 322 399 326 q 363 310 374 317 q 304 280 335 296 q 236 240 274 264 q 196 217 217 231 q 186 213 190 214 q 178 211 182 211 q 153 219 165 211 l 153 221 q 143 228 149 222 q 135 251 135 239 q 144 269 138 264 q 156 279 150 275 q 168 288 161 283 q 235 327 201 308 q 303 364 269 346 l 347 386 l 356 392 q 361 397 358 393 q 363 403 363 400 l 363 404 q 361 407 361 406 q 357 413 360 410 q 343 425 350 419 q 329 435 336 431 q 302 453 315 444 q 276 469 289 461 q 244 491 261 481 q 213 513 228 501 q 200 523 206 518 q 189 533 194 528 q 181 557 181 542 q 186 572 181 565 q 200 581 192 579 q 211 582 206 582 q 231 576 224 582 q 251 564 243 571 q 414 454 335 508 l 454 428 q 478 408 467 419 q 483 386 483 401 q 475 367 483 375 l 472 364 q 468 361 469 363 q 464 358 467 360 q 453 353 458 356 q 440 347 447 350 z "},"?":{"ha":283,"x_min":11,"x_max":543,"o":"m 538 840 q 491 733 522 783 q 425 636 460 683 q 389 590 407 613 q 353 543 371 567 q 314 494 333 519 q 276 443 294 469 l 199 343 q 190 331 194 336 q 179 319 185 326 q 154 310 169 310 q 138 314 146 310 q 114 333 122 321 q 110 350 110 342 q 111 358 110 354 q 119 375 114 369 q 172 447 144 411 q 228 518 200 483 q 288 597 257 557 q 347 675 318 636 q 372 708 360 692 q 396 742 385 725 q 417 772 407 757 q 433 804 426 788 q 436 815 436 813 q 433 824 436 822 q 428 825 429 825 l 425 825 q 415 819 419 822 q 406 811 410 815 q 356 760 381 788 q 307 700 332 732 q 301 692 304 694 q 292 678 297 685 q 282 667 288 672 q 258 657 272 658 l 256 657 q 233 665 246 657 q 214 689 221 672 q 213 696 213 692 q 215 708 213 701 q 223 724 218 715 q 232 739 228 732 q 287 808 257 775 q 351 874 317 842 l 354 876 q 390 906 372 892 q 426 933 407 921 q 454 945 442 943 q 485 947 467 947 l 486 947 q 526 926 511 944 q 542 889 540 908 q 543 879 543 886 l 543 869 q 542 867 543 868 q 542 864 542 867 q 540 853 542 858 q 538 840 539 847 m 111 143 q 99 103 104 124 q 88 64 93 83 q 76 47 85 53 q 54 40 67 40 q 24 54 38 40 q 11 88 11 69 q 31 164 15 133 q 39 179 33 168 q 74 196 51 196 l 78 196 q 113 156 113 189 q 111 143 113 147 z "},"@":{"ha":697,"x_min":26,"x_max":728,"o":"m 179 -196 l 157 -174 q 63 -17 93 -101 q 26 163 32 67 l 26 176 q 38 297 26 239 q 74 414 49 354 q 126 513 94 463 q 197 608 157 564 q 283 688 236 653 q 382 742 331 724 q 426 753 404 750 q 471 760 447 757 q 486 760 478 761 q 501 758 494 760 q 515 757 508 758 q 528 754 521 756 q 533 753 531 754 q 538 753 535 753 q 670 674 621 736 q 726 531 719 613 q 728 507 728 518 q 696 354 728 429 q 576 147 649 244 q 418 -33 503 50 q 411 -39 415 -35 q 408 -40 410 -40 q 381 -50 399 -50 q 354 -42 365 -50 q 340 -14 340 -29 l 340 -7 q 340 0 340 -4 q 342 11 340 4 q 344 28 343 19 q 349 46 346 38 q 351 64 350 56 q 356 82 353 72 q 353 91 356 86 q 346 96 351 96 q 335 92 339 94 q 325 86 331 89 l 319 83 q 263 65 293 65 q 207 113 221 75 q 203 136 203 124 q 204 150 203 143 q 210 173 207 161 q 218 196 214 185 q 446 521 289 389 q 458 531 453 526 q 471 539 464 535 q 490 544 478 544 q 522 529 508 544 q 531 507 531 519 q 522 488 531 494 q 503 470 513 479 q 485 453 494 461 l 483 451 q 382 338 431 403 q 308 206 333 274 q 307 192 307 201 l 307 188 q 308 185 307 186 q 314 182 311 182 q 317 183 315 182 q 351 212 332 192 q 388 257 369 232 q 420 306 406 282 q 443 346 435 331 q 449 357 446 354 q 457 376 453 367 q 467 394 461 385 q 496 410 478 410 q 518 403 507 410 q 536 372 536 392 l 536 365 q 529 342 535 354 q 524 330 526 335 q 519 318 522 325 q 517 313 518 315 q 515 308 517 311 q 491 251 501 281 q 469 192 481 221 q 467 181 468 186 q 464 171 465 176 q 463 163 464 165 q 465 154 463 156 q 471 151 468 151 q 478 157 475 151 q 479 158 479 157 q 481 158 479 158 q 481 160 481 160 q 482 161 482 160 q 587 314 538 232 q 650 486 636 396 q 651 514 651 500 q 626 614 651 565 q 536 688 599 668 q 526 690 531 689 q 514 692 521 690 q 492 693 503 693 q 388 665 438 693 q 298 600 340 640 q 221 511 256 560 q 160 409 186 463 q 121 306 135 356 q 103 172 103 239 q 107 110 103 142 q 203 -122 124 -22 q 210 -131 206 -126 q 217 -139 214 -135 q 227 -152 222 -146 q 238 -165 232 -158 q 242 -182 242 -174 l 242 -185 q 238 -197 242 -192 q 213 -208 224 -208 q 201 -207 206 -208 q 190 -201 194 -204 q 179 -196 185 -199 z "}}}
